ISO-10303-21;
HEADER;
FILE_DESCRIPTION(('FreeCAD Model'),'2;1');
FILE_NAME('Open CASCADE Shape Model','2026-10-09T13:30:09',('FreeCAD'),(
    'FreeCAD'),'Open CASCADE STEP processor 7.8','FreeCAD','Unknown');
FILE_SCHEMA(('AUTOMOTIVE_DESIGN { 1 0 10303 214 1 1 1 1 }'));
ENDSEC;
DATA;
#1 = APPLICATION_PROTOCOL_DEFINITION('international standard',
  'automotive_design',2000,#2);
#2 = APPLICATION_CONTEXT(
  'core data for automotive mechanical design processes');
#3 = SHAPE_DEFINITION_REPRESENTATION(#4,#10);
#4 = PRODUCT_DEFINITION_SHAPE('','',#5);
#5 = PRODUCT_DEFINITION('design','',#6,#9);
#6 = PRODUCT_DEFINITION_FORMATION('','',#7);
#7 = PRODUCT('Open CASCADE STEP translator 7.8 1',
  'Open CASCADE STEP translator 7.8 1','',(#8));
#8 = PRODUCT_CONTEXT('',#2,'mechanical');
#9 = PRODUCT_DEFINITION_CONTEXT('part definition',#2,'design');
#10 = SHAPE_REPRESENTATION('',(#11,#15,#161,#307,#453,#599,#745,#891,
    #1037,#1183,#1329),#1603);
#11 = AXIS2_PLACEMENT_3D('',#12,#13,#14);
#12 = CARTESIAN_POINT('',(0.,0.,0.));
#13 = DIRECTION('',(0.,0.,1.));
#14 = DIRECTION('',(1.,0.,-0.));
#15 = MANIFOLD_SOLID_BREP('',#16);
#16 = CLOSED_SHELL('',(#17,#55,#85,#115,#137,#149));
#17 = ADVANCED_FACE('',(#18),#50,.F.);
#18 = FACE_BOUND('',#19,.F.);
#19 = EDGE_LOOP('',(#20,#30,#37,#45));
#20 = ORIENTED_EDGE('',*,*,#21,.T.);
#21 = EDGE_CURVE('',#22,#24,#26,.T.);
#22 = VERTEX_POINT('',#23);
#23 = CARTESIAN_POINT('',(325.91883092036,-135.,0.));
#24 = VERTEX_POINT('',#25);
#25 = CARTESIAN_POINT('',(325.91883092036,135.,0.));
#26 = LINE('',#27,#28);
#27 = CARTESIAN_POINT('',(325.91883092036,-135.,0.));
#28 = VECTOR('',#29,1.);
#29 = DIRECTION('',(0.,1.,0.));
#30 = ORIENTED_EDGE('',*,*,#31,.T.);
#31 = EDGE_CURVE('',#24,#32,#34,.T.);
#32 = VERTEX_POINT('',#33);
#33 = CARTESIAN_POINT('',(312.12133308005,135.,5.884645558284));
#34 = B_SPLINE_CURVE_WITH_KNOTS('',1,(#35,#36),.UNSPECIFIED.,.F.,.F.,(2,
    2),(0.,1.),.PIECEWISE_BEZIER_KNOTS.);
#35 = CARTESIAN_POINT('',(325.91883092036,135.,0.));
#36 = CARTESIAN_POINT('',(312.12133308005,135.,5.884645558284));
#37 = ORIENTED_EDGE('',*,*,#38,.F.);
#38 = EDGE_CURVE('',#39,#32,#41,.T.);
#39 = VERTEX_POINT('',#40);
#40 = CARTESIAN_POINT('',(312.12133308005,-135.,5.884645558284));
#41 = LINE('',#42,#43);
#42 = CARTESIAN_POINT('',(312.12133308005,-135.,5.884645558284));
#43 = VECTOR('',#44,1.);
#44 = DIRECTION('',(0.,1.,0.));
#45 = ORIENTED_EDGE('',*,*,#46,.F.);
#46 = EDGE_CURVE('',#22,#39,#47,.T.);
#47 = B_SPLINE_CURVE_WITH_KNOTS('',1,(#48,#49),.UNSPECIFIED.,.F.,.F.,(2,
    2),(0.,1.),.PIECEWISE_BEZIER_KNOTS.);
#48 = CARTESIAN_POINT('',(325.91883092036,-135.,0.));
#49 = CARTESIAN_POINT('',(312.12133308005,-135.,5.884645558284));
#50 = PLANE('',#51);
#51 = AXIS2_PLACEMENT_3D('',#52,#53,#54);
#52 = CARTESIAN_POINT('',(312.12133308005,-135.,5.884645558284));
#53 = DIRECTION('',(0.392309703886,0.,0.919833189354));
#54 = DIRECTION('',(0.,1.,0.));
#55 = ADVANCED_FACE('',(#56),#80,.F.);
#56 = FACE_BOUND('',#57,.F.);
#57 = EDGE_LOOP('',(#58,#66,#73,#79));
#58 = ORIENTED_EDGE('',*,*,#59,.T.);
#59 = EDGE_CURVE('',#24,#60,#62,.T.);
#60 = VERTEX_POINT('',#61);
#61 = CARTESIAN_POINT('',(482.84271247461,200.,367.9332757416));
#62 = LINE('',#63,#64);
#63 = CARTESIAN_POINT('',(325.91883092036,135.,0.));
#64 = VECTOR('',#65,1.);
#65 = DIRECTION('',(0.38723036604,0.160396069376,0.90792386495));
#66 = ORIENTED_EDGE('',*,*,#67,.T.);
#67 = EDGE_CURVE('',#60,#68,#70,.T.);
#68 = VERTEX_POINT('',#69);
#69 = CARTESIAN_POINT('',(469.0452146343,200.,373.81792129988));
#70 = B_SPLINE_CURVE_WITH_KNOTS('',1,(#71,#72),.UNSPECIFIED.,.F.,.F.,(2,
    2),(0.,1.),.PIECEWISE_BEZIER_KNOTS.);
#71 = CARTESIAN_POINT('',(482.84271247461,200.,367.9332757416));
#72 = CARTESIAN_POINT('',(469.0452146343,200.,373.81792129988));
#73 = ORIENTED_EDGE('',*,*,#74,.F.);
#74 = EDGE_CURVE('',#32,#68,#75,.T.);
#75 = LINE('',#76,#77);
#76 = CARTESIAN_POINT('',(312.12133308005,135.,5.884645558284));
#77 = VECTOR('',#78,1.);
#78 = DIRECTION('',(0.38723036604,0.160396069376,0.90792386495));
#79 = ORIENTED_EDGE('',*,*,#31,.F.);
#80 = PLANE('',#81);
#81 = AXIS2_PLACEMENT_3D('',#82,#83,#84);
#82 = CARTESIAN_POINT('',(312.12133308005,135.,5.884645558284));
#83 = DIRECTION('',(6.292493448147E-02,-0.987052734624,0.147537628054));
#84 = DIRECTION('',(0.38723036604,0.160396069376,0.90792386495));
#85 = ADVANCED_FACE('',(#86),#110,.F.);
#86 = FACE_BOUND('',#87,.F.);
#87 = EDGE_LOOP('',(#88,#96,#103,#109));
#88 = ORIENTED_EDGE('',*,*,#89,.T.);
#89 = EDGE_CURVE('',#60,#90,#92,.T.);
#90 = VERTEX_POINT('',#91);
#91 = CARTESIAN_POINT('',(482.84271247461,-200.,367.9332757416));
#92 = LINE('',#93,#94);
#93 = CARTESIAN_POINT('',(482.84271247461,200.,367.9332757416));
#94 = VECTOR('',#95,1.);
#95 = DIRECTION('',(0.,-1.,0.));
#96 = ORIENTED_EDGE('',*,*,#97,.T.);
#97 = EDGE_CURVE('',#90,#98,#100,.T.);
#98 = VERTEX_POINT('',#99);
#99 = CARTESIAN_POINT('',(469.0452146343,-200.,373.81792129988));
#100 = B_SPLINE_CURVE_WITH_KNOTS('',1,(#101,#102),.UNSPECIFIED.,.F.,.F.,
  (2,2),(0.,1.),.PIECEWISE_BEZIER_KNOTS.);
#101 = CARTESIAN_POINT('',(482.84271247461,-200.,367.9332757416));
#102 = CARTESIAN_POINT('',(469.0452146343,-200.,373.81792129988));
#103 = ORIENTED_EDGE('',*,*,#104,.F.);
#104 = EDGE_CURVE('',#68,#98,#105,.T.);
#105 = LINE('',#106,#107);
#106 = CARTESIAN_POINT('',(469.0452146343,200.,373.81792129988));
#107 = VECTOR('',#108,1.);
#108 = DIRECTION('',(0.,-1.,0.));
#109 = ORIENTED_EDGE('',*,*,#67,.F.);
#110 = PLANE('',#111);
#111 = AXIS2_PLACEMENT_3D('',#112,#113,#114);
#112 = CARTESIAN_POINT('',(469.0452146343,200.,373.81792129988));
#113 = DIRECTION('',(-0.392309703886,-0.,-0.919833189354));
#114 = DIRECTION('',(0.,-1.,0.));
#115 = ADVANCED_FACE('',(#116),#132,.F.);
#116 = FACE_BOUND('',#117,.F.);
#117 = EDGE_LOOP('',(#118,#124,#125,#131));
#118 = ORIENTED_EDGE('',*,*,#119,.T.);
#119 = EDGE_CURVE('',#90,#22,#120,.T.);
#120 = LINE('',#121,#122);
#121 = CARTESIAN_POINT('',(482.84271247461,-200.,367.9332757416));
#122 = VECTOR('',#123,1.);
#123 = DIRECTION('',(-0.38723036604,0.160396069376,-0.90792386495));
#124 = ORIENTED_EDGE('',*,*,#46,.T.);
#125 = ORIENTED_EDGE('',*,*,#126,.F.);
#126 = EDGE_CURVE('',#98,#39,#127,.T.);
#127 = LINE('',#128,#129);
#128 = CARTESIAN_POINT('',(469.0452146343,-200.,373.81792129988));
#129 = VECTOR('',#130,1.);
#130 = DIRECTION('',(-0.38723036604,0.160396069376,-0.90792386495));
#131 = ORIENTED_EDGE('',*,*,#97,.F.);
#132 = PLANE('',#133);
#133 = AXIS2_PLACEMENT_3D('',#134,#135,#136);
#134 = CARTESIAN_POINT('',(469.0452146343,-200.,373.81792129988));
#135 = DIRECTION('',(6.292493448147E-02,0.987052734624,0.147537628054));
#136 = DIRECTION('',(-0.38723036604,0.160396069376,-0.90792386495));
#137 = ADVANCED_FACE('',(#138),#144,.T.);
#138 = FACE_BOUND('',#139,.T.);
#139 = EDGE_LOOP('',(#140,#141,#142,#143));
#140 = ORIENTED_EDGE('',*,*,#21,.T.);
#141 = ORIENTED_EDGE('',*,*,#59,.T.);
#142 = ORIENTED_EDGE('',*,*,#89,.T.);
#143 = ORIENTED_EDGE('',*,*,#119,.T.);
#144 = PLANE('',#145);
#145 = AXIS2_PLACEMENT_3D('',#146,#147,#148);
#146 = CARTESIAN_POINT('',(325.91883092036,-135.,0.));
#147 = DIRECTION('',(0.919833189354,0.,-0.392309703886));
#148 = DIRECTION('',(0.300763436738,0.642067671978,0.705188244175));
#149 = ADVANCED_FACE('',(#150),#156,.F.);
#150 = FACE_BOUND('',#151,.F.);
#151 = EDGE_LOOP('',(#152,#153,#154,#155));
#152 = ORIENTED_EDGE('',*,*,#38,.T.);
#153 = ORIENTED_EDGE('',*,*,#74,.T.);
#154 = ORIENTED_EDGE('',*,*,#104,.T.);
#155 = ORIENTED_EDGE('',*,*,#126,.T.);
#156 = PLANE('',#157);
#157 = AXIS2_PLACEMENT_3D('',#158,#159,#160);
#158 = CARTESIAN_POINT('',(312.12133308005,-135.,5.884645558284));
#159 = DIRECTION('',(0.919833189354,0.,-0.392309703886));
#160 = DIRECTION('',(0.300763436738,0.642067671978,0.705188244175));
#161 = MANIFOLD_SOLID_BREP('',#162);
#162 = CLOSED_SHELL('',(#163,#201,#231,#261,#283,#295));
#163 = ADVANCED_FACE('',(#164),#196,.F.);
#164 = FACE_BOUND('',#165,.F.);
#165 = EDGE_LOOP('',(#166,#176,#183,#191));
#166 = ORIENTED_EDGE('',*,*,#167,.T.);
#167 = EDGE_CURVE('',#168,#170,#172,.T.);
#168 = VERTEX_POINT('',#169);
#169 = CARTESIAN_POINT('',(325.91883092036,135.,0.));
#170 = VERTEX_POINT('',#171);
#171 = CARTESIAN_POINT('',(135.,325.91883092036,0.));
#172 = LINE('',#173,#174);
#173 = CARTESIAN_POINT('',(325.91883092036,135.,0.));
#174 = VECTOR('',#175,1.);
#175 = DIRECTION('',(-0.707106781187,0.707106781187,0.));
#176 = ORIENTED_EDGE('',*,*,#177,.T.);
#177 = EDGE_CURVE('',#170,#178,#180,.T.);
#178 = VERTEX_POINT('',#179);
#179 = CARTESIAN_POINT('',(125.24369571371,316.16252663407,
    5.884645558284));
#180 = B_SPLINE_CURVE_WITH_KNOTS('',1,(#181,#182),.UNSPECIFIED.,.F.,.F.,
  (2,2),(0.,1.),.PIECEWISE_BEZIER_KNOTS.);
#181 = CARTESIAN_POINT('',(135.,325.91883092036,0.));
#182 = CARTESIAN_POINT('',(125.24369571371,316.16252663407,
    5.884645558284));
#183 = ORIENTED_EDGE('',*,*,#184,.F.);
#184 = EDGE_CURVE('',#185,#178,#187,.T.);
#185 = VERTEX_POINT('',#186);
#186 = CARTESIAN_POINT('',(316.16252663407,125.24369571371,
    5.884645558284));
#187 = LINE('',#188,#189);
#188 = CARTESIAN_POINT('',(316.16252663407,125.24369571371,
    5.884645558284));
#189 = VECTOR('',#190,1.);
#190 = DIRECTION('',(-0.707106781187,0.707106781187,0.));
#191 = ORIENTED_EDGE('',*,*,#192,.F.);
#192 = EDGE_CURVE('',#168,#185,#193,.T.);
#193 = B_SPLINE_CURVE_WITH_KNOTS('',1,(#194,#195),.UNSPECIFIED.,.F.,.F.,
  (2,2),(0.,1.),.PIECEWISE_BEZIER_KNOTS.);
#194 = CARTESIAN_POINT('',(325.91883092036,135.,0.));
#195 = CARTESIAN_POINT('',(316.16252663407,125.24369571371,
    5.884645558284));
#196 = PLANE('',#197);
#197 = AXIS2_PLACEMENT_3D('',#198,#199,#200);
#198 = CARTESIAN_POINT('',(316.16252663407,125.24369571371,
    5.884645558284));
#199 = DIRECTION('',(0.277404851943,0.277404851943,0.919833189354));
#200 = DIRECTION('',(-0.707106781187,0.707106781187,0.));
#201 = ADVANCED_FACE('',(#202),#226,.F.);
#202 = FACE_BOUND('',#203,.F.);
#203 = EDGE_LOOP('',(#204,#212,#219,#225));
#204 = ORIENTED_EDGE('',*,*,#205,.T.);
#205 = EDGE_CURVE('',#170,#206,#208,.T.);
#206 = VERTEX_POINT('',#207);
#207 = CARTESIAN_POINT('',(200.,482.84271247461,367.9332757416));
#208 = LINE('',#209,#210);
#209 = CARTESIAN_POINT('',(135.,325.91883092036,0.));
#210 = VECTOR('',#211,1.);
#211 = DIRECTION('',(0.160396069376,0.38723036604,0.90792386495));
#212 = ORIENTED_EDGE('',*,*,#213,.T.);
#213 = EDGE_CURVE('',#206,#214,#216,.T.);
#214 = VERTEX_POINT('',#215);
#215 = CARTESIAN_POINT('',(190.24369571371,473.08640818832,
    373.81792129988));
#216 = B_SPLINE_CURVE_WITH_KNOTS('',1,(#217,#218),.UNSPECIFIED.,.F.,.F.,
  (2,2),(0.,1.),.PIECEWISE_BEZIER_KNOTS.);
#217 = CARTESIAN_POINT('',(200.,482.84271247461,367.9332757416));
#218 = CARTESIAN_POINT('',(190.24369571371,473.08640818832,
    373.81792129988));
#219 = ORIENTED_EDGE('',*,*,#220,.F.);
#220 = EDGE_CURVE('',#178,#214,#221,.T.);
#221 = LINE('',#222,#223);
#222 = CARTESIAN_POINT('',(125.24369571371,316.16252663407,
    5.884645558284));
#223 = VECTOR('',#224,1.);
#224 = DIRECTION('',(0.160396069376,0.38723036604,0.90792386495));
#225 = ORIENTED_EDGE('',*,*,#177,.F.);
#226 = PLANE('',#227);
#227 = AXIS2_PLACEMENT_3D('',#228,#229,#230);
#228 = CARTESIAN_POINT('',(125.24369571371,316.16252663407,
    5.884645558284));
#229 = DIRECTION('',(0.742446329919,-0.653457034164,0.147537628054));
#230 = DIRECTION('',(0.160396069376,0.38723036604,0.90792386495));
#231 = ADVANCED_FACE('',(#232),#256,.F.);
#232 = FACE_BOUND('',#233,.F.);
#233 = EDGE_LOOP('',(#234,#242,#249,#255));
#234 = ORIENTED_EDGE('',*,*,#235,.T.);
#235 = EDGE_CURVE('',#206,#236,#238,.T.);
#236 = VERTEX_POINT('',#237);
#237 = CARTESIAN_POINT('',(482.84271247461,200.,367.9332757416));
#238 = LINE('',#239,#240);
#239 = CARTESIAN_POINT('',(200.,482.84271247461,367.9332757416));
#240 = VECTOR('',#241,1.);
#241 = DIRECTION('',(0.707106781187,-0.707106781187,0.));
#242 = ORIENTED_EDGE('',*,*,#243,.T.);
#243 = EDGE_CURVE('',#236,#244,#246,.T.);
#244 = VERTEX_POINT('',#245);
#245 = CARTESIAN_POINT('',(473.08640818832,190.24369571371,
    373.81792129988));
#246 = B_SPLINE_CURVE_WITH_KNOTS('',1,(#247,#248),.UNSPECIFIED.,.F.,.F.,
  (2,2),(0.,1.),.PIECEWISE_BEZIER_KNOTS.);
#247 = CARTESIAN_POINT('',(482.84271247461,200.,367.9332757416));
#248 = CARTESIAN_POINT('',(473.08640818832,190.24369571371,
    373.81792129988));
#249 = ORIENTED_EDGE('',*,*,#250,.F.);
#250 = EDGE_CURVE('',#214,#244,#251,.T.);
#251 = LINE('',#252,#253);
#252 = CARTESIAN_POINT('',(190.24369571371,473.08640818832,
    373.81792129988));
#253 = VECTOR('',#254,1.);
#254 = DIRECTION('',(0.707106781187,-0.707106781187,0.));
#255 = ORIENTED_EDGE('',*,*,#213,.F.);
#256 = PLANE('',#257);
#257 = AXIS2_PLACEMENT_3D('',#258,#259,#260);
#258 = CARTESIAN_POINT('',(190.24369571371,473.08640818832,
    373.81792129988));
#259 = DIRECTION('',(-0.277404851943,-0.277404851943,-0.919833189354));
#260 = DIRECTION('',(0.707106781187,-0.707106781187,0.));
#261 = ADVANCED_FACE('',(#262),#278,.F.);
#262 = FACE_BOUND('',#263,.F.);
#263 = EDGE_LOOP('',(#264,#270,#271,#277));
#264 = ORIENTED_EDGE('',*,*,#265,.T.);
#265 = EDGE_CURVE('',#236,#168,#266,.T.);
#266 = LINE('',#267,#268);
#267 = CARTESIAN_POINT('',(482.84271247461,200.,367.9332757416));
#268 = VECTOR('',#269,1.);
#269 = DIRECTION('',(-0.38723036604,-0.160396069376,-0.90792386495));
#270 = ORIENTED_EDGE('',*,*,#192,.T.);
#271 = ORIENTED_EDGE('',*,*,#272,.F.);
#272 = EDGE_CURVE('',#244,#185,#273,.T.);
#273 = LINE('',#274,#275);
#274 = CARTESIAN_POINT('',(473.08640818832,190.24369571371,
    373.81792129988));
#275 = VECTOR('',#276,1.);
#276 = DIRECTION('',(-0.38723036604,-0.160396069376,-0.90792386495));
#277 = ORIENTED_EDGE('',*,*,#243,.F.);
#278 = PLANE('',#279);
#279 = AXIS2_PLACEMENT_3D('',#280,#281,#282);
#280 = CARTESIAN_POINT('',(473.08640818832,190.24369571371,
    373.81792129988));
#281 = DIRECTION('',(-0.653457034164,0.742446329919,0.147537628054));
#282 = DIRECTION('',(-0.38723036604,-0.160396069376,-0.90792386495));
#283 = ADVANCED_FACE('',(#284),#290,.T.);
#284 = FACE_BOUND('',#285,.T.);
#285 = EDGE_LOOP('',(#286,#287,#288,#289));
#286 = ORIENTED_EDGE('',*,*,#167,.T.);
#287 = ORIENTED_EDGE('',*,*,#205,.T.);
#288 = ORIENTED_EDGE('',*,*,#235,.T.);
#289 = ORIENTED_EDGE('',*,*,#265,.T.);
#290 = PLANE('',#291);
#291 = AXIS2_PLACEMENT_3D('',#292,#293,#294);
#292 = CARTESIAN_POINT('',(325.91883092036,135.,0.));
#293 = DIRECTION('',(0.650420285753,0.650420285753,-0.392309703886));
#294 = DIRECTION('',(-0.241338539186,0.666682270487,0.705188244175));
#295 = ADVANCED_FACE('',(#296),#302,.F.);
#296 = FACE_BOUND('',#297,.F.);
#297 = EDGE_LOOP('',(#298,#299,#300,#301));
#298 = ORIENTED_EDGE('',*,*,#184,.T.);
#299 = ORIENTED_EDGE('',*,*,#220,.T.);
#300 = ORIENTED_EDGE('',*,*,#250,.T.);
#301 = ORIENTED_EDGE('',*,*,#272,.T.);
#302 = PLANE('',#303);
#303 = AXIS2_PLACEMENT_3D('',#304,#305,#306);
#304 = CARTESIAN_POINT('',(316.16252663407,125.24369571371,
    5.884645558284));
#305 = DIRECTION('',(0.650420285753,0.650420285753,-0.392309703886));
#306 = DIRECTION('',(-0.241338539186,0.666682270487,0.705188244175));
#307 = MANIFOLD_SOLID_BREP('',#308);
#308 = CLOSED_SHELL('',(#309,#347,#377,#407,#429,#441));
#309 = ADVANCED_FACE('',(#310),#342,.F.);
#310 = FACE_BOUND('',#311,.F.);
#311 = EDGE_LOOP('',(#312,#322,#329,#337));
#312 = ORIENTED_EDGE('',*,*,#313,.T.);
#313 = EDGE_CURVE('',#314,#316,#318,.T.);
#314 = VERTEX_POINT('',#315);
#315 = CARTESIAN_POINT('',(135.,325.91883092036,0.));
#316 = VERTEX_POINT('',#317);
#317 = CARTESIAN_POINT('',(-135.,325.91883092036,0.));
#318 = LINE('',#319,#320);
#319 = CARTESIAN_POINT('',(135.,325.91883092036,0.));
#320 = VECTOR('',#321,1.);
#321 = DIRECTION('',(-1.,1.110223024625E-16,0.));
#322 = ORIENTED_EDGE('',*,*,#323,.T.);
#323 = EDGE_CURVE('',#316,#324,#326,.T.);
#324 = VERTEX_POINT('',#325);
#325 = CARTESIAN_POINT('',(-135.,312.12133308005,5.884645558284));
#326 = B_SPLINE_CURVE_WITH_KNOTS('',1,(#327,#328),.UNSPECIFIED.,.F.,.F.,
  (2,2),(0.,1.),.PIECEWISE_BEZIER_KNOTS.);
#327 = CARTESIAN_POINT('',(-135.,325.91883092036,0.));
#328 = CARTESIAN_POINT('',(-135.,312.12133308005,5.884645558284));
#329 = ORIENTED_EDGE('',*,*,#330,.F.);
#330 = EDGE_CURVE('',#331,#324,#333,.T.);
#331 = VERTEX_POINT('',#332);
#332 = CARTESIAN_POINT('',(135.,312.12133308005,5.884645558284));
#333 = LINE('',#334,#335);
#334 = CARTESIAN_POINT('',(135.,312.12133308005,5.884645558284));
#335 = VECTOR('',#336,1.);
#336 = DIRECTION('',(-1.,1.110223024625E-16,0.));
#337 = ORIENTED_EDGE('',*,*,#338,.F.);
#338 = EDGE_CURVE('',#314,#331,#339,.T.);
#339 = B_SPLINE_CURVE_WITH_KNOTS('',1,(#340,#341),.UNSPECIFIED.,.F.,.F.,
  (2,2),(0.,1.),.PIECEWISE_BEZIER_KNOTS.);
#340 = CARTESIAN_POINT('',(135.,325.91883092036,0.));
#341 = CARTESIAN_POINT('',(135.,312.12133308005,5.884645558284));
#342 = PLANE('',#343);
#343 = AXIS2_PLACEMENT_3D('',#344,#345,#346);
#344 = CARTESIAN_POINT('',(135.,312.12133308005,5.884645558284));
#345 = DIRECTION('',(4.355512660377E-17,0.392309703886,0.919833189354));
#346 = DIRECTION('',(-1.,1.110223024625E-16,0.));
#347 = ADVANCED_FACE('',(#348),#372,.F.);
#348 = FACE_BOUND('',#349,.F.);
#349 = EDGE_LOOP('',(#350,#358,#365,#371));
#350 = ORIENTED_EDGE('',*,*,#351,.T.);
#351 = EDGE_CURVE('',#316,#352,#354,.T.);
#352 = VERTEX_POINT('',#353);
#353 = CARTESIAN_POINT('',(-200.,482.84271247461,367.9332757416));
#354 = LINE('',#355,#356);
#355 = CARTESIAN_POINT('',(-135.,325.91883092036,0.));
#356 = VECTOR('',#357,1.);
#357 = DIRECTION('',(-0.160396069376,0.38723036604,0.90792386495));
#358 = ORIENTED_EDGE('',*,*,#359,.T.);
#359 = EDGE_CURVE('',#352,#360,#362,.T.);
#360 = VERTEX_POINT('',#361);
#361 = CARTESIAN_POINT('',(-200.,469.0452146343,373.81792129988));
#362 = B_SPLINE_CURVE_WITH_KNOTS('',1,(#363,#364),.UNSPECIFIED.,.F.,.F.,
  (2,2),(0.,1.),.PIECEWISE_BEZIER_KNOTS.);
#363 = CARTESIAN_POINT('',(-200.,482.84271247461,367.9332757416));
#364 = CARTESIAN_POINT('',(-200.,469.0452146343,373.81792129988));
#365 = ORIENTED_EDGE('',*,*,#366,.F.);
#366 = EDGE_CURVE('',#324,#360,#367,.T.);
#367 = LINE('',#368,#369);
#368 = CARTESIAN_POINT('',(-135.,312.12133308005,5.884645558284));
#369 = VECTOR('',#370,1.);
#370 = DIRECTION('',(-0.160396069376,0.38723036604,0.90792386495));
#371 = ORIENTED_EDGE('',*,*,#323,.F.);
#372 = PLANE('',#373);
#373 = AXIS2_PLACEMENT_3D('',#374,#375,#376);
#374 = CARTESIAN_POINT('',(-135.,312.12133308005,5.884645558284));
#375 = DIRECTION('',(0.987052734624,6.292493448147E-02,0.147537628054));
#376 = DIRECTION('',(-0.160396069376,0.38723036604,0.90792386495));
#377 = ADVANCED_FACE('',(#378),#402,.F.);
#378 = FACE_BOUND('',#379,.F.);
#379 = EDGE_LOOP('',(#380,#388,#395,#401));
#380 = ORIENTED_EDGE('',*,*,#381,.T.);
#381 = EDGE_CURVE('',#352,#382,#384,.T.);
#382 = VERTEX_POINT('',#383);
#383 = CARTESIAN_POINT('',(200.,482.84271247461,367.9332757416));
#384 = LINE('',#385,#386);
#385 = CARTESIAN_POINT('',(-200.,482.84271247461,367.9332757416));
#386 = VECTOR('',#387,1.);
#387 = DIRECTION('',(1.,-1.110223024625E-16,0.));
#388 = ORIENTED_EDGE('',*,*,#389,.T.);
#389 = EDGE_CURVE('',#382,#390,#392,.T.);
#390 = VERTEX_POINT('',#391);
#391 = CARTESIAN_POINT('',(200.,469.0452146343,373.81792129988));
#392 = B_SPLINE_CURVE_WITH_KNOTS('',1,(#393,#394),.UNSPECIFIED.,.F.,.F.,
  (2,2),(0.,1.),.PIECEWISE_BEZIER_KNOTS.);
#393 = CARTESIAN_POINT('',(200.,482.84271247461,367.9332757416));
#394 = CARTESIAN_POINT('',(200.,469.0452146343,373.81792129988));
#395 = ORIENTED_EDGE('',*,*,#396,.F.);
#396 = EDGE_CURVE('',#360,#390,#397,.T.);
#397 = LINE('',#398,#399);
#398 = CARTESIAN_POINT('',(-200.,469.0452146343,373.81792129988));
#399 = VECTOR('',#400,1.);
#400 = DIRECTION('',(1.,-1.110223024625E-16,0.));
#401 = ORIENTED_EDGE('',*,*,#359,.F.);
#402 = PLANE('',#403);
#403 = AXIS2_PLACEMENT_3D('',#404,#405,#406);
#404 = CARTESIAN_POINT('',(-200.,469.0452146343,373.81792129988));
#405 = DIRECTION('',(-4.355512660377E-17,-0.392309703886,-0.919833189354
    ));
#406 = DIRECTION('',(1.,-1.110223024625E-16,0.));
#407 = ADVANCED_FACE('',(#408),#424,.F.);
#408 = FACE_BOUND('',#409,.F.);
#409 = EDGE_LOOP('',(#410,#416,#417,#423));
#410 = ORIENTED_EDGE('',*,*,#411,.T.);
#411 = EDGE_CURVE('',#382,#314,#412,.T.);
#412 = LINE('',#413,#414);
#413 = CARTESIAN_POINT('',(200.,482.84271247461,367.9332757416));
#414 = VECTOR('',#415,1.);
#415 = DIRECTION('',(-0.160396069376,-0.38723036604,-0.90792386495));
#416 = ORIENTED_EDGE('',*,*,#338,.T.);
#417 = ORIENTED_EDGE('',*,*,#418,.F.);
#418 = EDGE_CURVE('',#390,#331,#419,.T.);
#419 = LINE('',#420,#421);
#420 = CARTESIAN_POINT('',(200.,469.0452146343,373.81792129988));
#421 = VECTOR('',#422,1.);
#422 = DIRECTION('',(-0.160396069376,-0.38723036604,-0.90792386495));
#423 = ORIENTED_EDGE('',*,*,#389,.F.);
#424 = PLANE('',#425);
#425 = AXIS2_PLACEMENT_3D('',#426,#427,#428);
#426 = CARTESIAN_POINT('',(200.,469.0452146343,373.81792129988));
#427 = DIRECTION('',(-0.987052734624,6.292493448147E-02,0.147537628054)
  );
#428 = DIRECTION('',(-0.160396069376,-0.38723036604,-0.90792386495));
#429 = ADVANCED_FACE('',(#430),#436,.T.);
#430 = FACE_BOUND('',#431,.T.);
#431 = EDGE_LOOP('',(#432,#433,#434,#435));
#432 = ORIENTED_EDGE('',*,*,#313,.T.);
#433 = ORIENTED_EDGE('',*,*,#351,.T.);
#434 = ORIENTED_EDGE('',*,*,#381,.T.);
#435 = ORIENTED_EDGE('',*,*,#411,.T.);
#436 = PLANE('',#437);
#437 = AXIS2_PLACEMENT_3D('',#438,#439,#440);
#438 = CARTESIAN_POINT('',(135.,325.91883092036,0.));
#439 = DIRECTION('',(1.021219985635E-16,0.919833189354,-0.392309703886)
  );
#440 = DIRECTION('',(-0.642067671978,0.300763436738,0.705188244175));
#441 = ADVANCED_FACE('',(#442),#448,.F.);
#442 = FACE_BOUND('',#443,.F.);
#443 = EDGE_LOOP('',(#444,#445,#446,#447));
#444 = ORIENTED_EDGE('',*,*,#330,.T.);
#445 = ORIENTED_EDGE('',*,*,#366,.T.);
#446 = ORIENTED_EDGE('',*,*,#396,.T.);
#447 = ORIENTED_EDGE('',*,*,#418,.T.);
#448 = PLANE('',#449);
#449 = AXIS2_PLACEMENT_3D('',#450,#451,#452);
#450 = CARTESIAN_POINT('',(135.,312.12133308005,5.884645558284));
#451 = DIRECTION('',(1.021219985635E-16,0.919833189354,-0.392309703886)
  );
#452 = DIRECTION('',(-0.642067671978,0.300763436738,0.705188244175));
#453 = MANIFOLD_SOLID_BREP('',#454);
#454 = CLOSED_SHELL('',(#455,#493,#523,#553,#575,#587));
#455 = ADVANCED_FACE('',(#456),#488,.F.);
#456 = FACE_BOUND('',#457,.F.);
#457 = EDGE_LOOP('',(#458,#468,#475,#483));
#458 = ORIENTED_EDGE('',*,*,#459,.T.);
#459 = EDGE_CURVE('',#460,#462,#464,.T.);
#460 = VERTEX_POINT('',#461);
#461 = CARTESIAN_POINT('',(-135.,325.91883092036,0.));
#462 = VERTEX_POINT('',#463);
#463 = CARTESIAN_POINT('',(-325.9188309203,135.,0.));
#464 = LINE('',#465,#466);
#465 = CARTESIAN_POINT('',(-135.,325.91883092036,0.));
#466 = VECTOR('',#467,1.);
#467 = DIRECTION('',(-0.707106781187,-0.707106781187,0.));
#468 = ORIENTED_EDGE('',*,*,#469,.T.);
#469 = EDGE_CURVE('',#462,#470,#472,.T.);
#470 = VERTEX_POINT('',#471);
#471 = CARTESIAN_POINT('',(-316.162526634,125.24369571371,5.884645558284
    ));
#472 = B_SPLINE_CURVE_WITH_KNOTS('',1,(#473,#474),.UNSPECIFIED.,.F.,.F.,
  (2,2),(0.,1.),.PIECEWISE_BEZIER_KNOTS.);
#473 = CARTESIAN_POINT('',(-325.9188309203,135.,0.));
#474 = CARTESIAN_POINT('',(-316.162526634,125.24369571371,5.884645558284
    ));
#475 = ORIENTED_EDGE('',*,*,#476,.F.);
#476 = EDGE_CURVE('',#477,#470,#479,.T.);
#477 = VERTEX_POINT('',#478);
#478 = CARTESIAN_POINT('',(-125.2436957137,316.16252663407,
    5.884645558284));
#479 = LINE('',#480,#481);
#480 = CARTESIAN_POINT('',(-125.2436957137,316.16252663407,
    5.884645558284));
#481 = VECTOR('',#482,1.);
#482 = DIRECTION('',(-0.707106781187,-0.707106781187,0.));
#483 = ORIENTED_EDGE('',*,*,#484,.F.);
#484 = EDGE_CURVE('',#460,#477,#485,.T.);
#485 = B_SPLINE_CURVE_WITH_KNOTS('',1,(#486,#487),.UNSPECIFIED.,.F.,.F.,
  (2,2),(0.,1.),.PIECEWISE_BEZIER_KNOTS.);
#486 = CARTESIAN_POINT('',(-135.,325.91883092036,0.));
#487 = CARTESIAN_POINT('',(-125.2436957137,316.16252663407,
    5.884645558284));
#488 = PLANE('',#489);
#489 = AXIS2_PLACEMENT_3D('',#490,#491,#492);
#490 = CARTESIAN_POINT('',(-125.2436957137,316.16252663407,
    5.884645558284));
#491 = DIRECTION('',(-0.277404851943,0.277404851943,0.919833189354));
#492 = DIRECTION('',(-0.707106781187,-0.707106781187,0.));
#493 = ADVANCED_FACE('',(#494),#518,.F.);
#494 = FACE_BOUND('',#495,.F.);
#495 = EDGE_LOOP('',(#496,#504,#511,#517));
#496 = ORIENTED_EDGE('',*,*,#497,.T.);
#497 = EDGE_CURVE('',#462,#498,#500,.T.);
#498 = VERTEX_POINT('',#499);
#499 = CARTESIAN_POINT('',(-482.8427124746,200.,367.9332757416));
#500 = LINE('',#501,#502);
#501 = CARTESIAN_POINT('',(-325.9188309203,135.,0.));
#502 = VECTOR('',#503,1.);
#503 = DIRECTION('',(-0.38723036604,0.160396069376,0.90792386495));
#504 = ORIENTED_EDGE('',*,*,#505,.T.);
#505 = EDGE_CURVE('',#498,#506,#508,.T.);
#506 = VERTEX_POINT('',#507);
#507 = CARTESIAN_POINT('',(-473.0864081883,190.24369571371,
    373.81792129988));
#508 = B_SPLINE_CURVE_WITH_KNOTS('',1,(#509,#510),.UNSPECIFIED.,.F.,.F.,
  (2,2),(0.,1.),.PIECEWISE_BEZIER_KNOTS.);
#509 = CARTESIAN_POINT('',(-482.8427124746,200.,367.9332757416));
#510 = CARTESIAN_POINT('',(-473.0864081883,190.24369571371,
    373.81792129988));
#511 = ORIENTED_EDGE('',*,*,#512,.F.);
#512 = EDGE_CURVE('',#470,#506,#513,.T.);
#513 = LINE('',#514,#515);
#514 = CARTESIAN_POINT('',(-316.162526634,125.24369571371,5.884645558284
    ));
#515 = VECTOR('',#516,1.);
#516 = DIRECTION('',(-0.38723036604,0.160396069376,0.90792386495));
#517 = ORIENTED_EDGE('',*,*,#469,.F.);
#518 = PLANE('',#519);
#519 = AXIS2_PLACEMENT_3D('',#520,#521,#522);
#520 = CARTESIAN_POINT('',(-316.162526634,125.24369571371,5.884645558284
    ));
#521 = DIRECTION('',(0.653457034164,0.742446329919,0.147537628054));
#522 = DIRECTION('',(-0.38723036604,0.160396069376,0.90792386495));
#523 = ADVANCED_FACE('',(#524),#548,.F.);
#524 = FACE_BOUND('',#525,.F.);
#525 = EDGE_LOOP('',(#526,#534,#541,#547));
#526 = ORIENTED_EDGE('',*,*,#527,.T.);
#527 = EDGE_CURVE('',#498,#528,#530,.T.);
#528 = VERTEX_POINT('',#529);
#529 = CARTESIAN_POINT('',(-200.,482.84271247461,367.9332757416));
#530 = LINE('',#531,#532);
#531 = CARTESIAN_POINT('',(-482.8427124746,200.,367.9332757416));
#532 = VECTOR('',#533,1.);
#533 = DIRECTION('',(0.707106781187,0.707106781187,0.));
#534 = ORIENTED_EDGE('',*,*,#535,.T.);
#535 = EDGE_CURVE('',#528,#536,#538,.T.);
#536 = VERTEX_POINT('',#537);
#537 = CARTESIAN_POINT('',(-190.2436957137,473.08640818832,
    373.81792129988));
#538 = B_SPLINE_CURVE_WITH_KNOTS('',1,(#539,#540),.UNSPECIFIED.,.F.,.F.,
  (2,2),(0.,1.),.PIECEWISE_BEZIER_KNOTS.);
#539 = CARTESIAN_POINT('',(-200.,482.84271247461,367.9332757416));
#540 = CARTESIAN_POINT('',(-190.2436957137,473.08640818832,
    373.81792129988));
#541 = ORIENTED_EDGE('',*,*,#542,.F.);
#542 = EDGE_CURVE('',#506,#536,#543,.T.);
#543 = LINE('',#544,#545);
#544 = CARTESIAN_POINT('',(-473.0864081883,190.24369571371,
    373.81792129988));
#545 = VECTOR('',#546,1.);
#546 = DIRECTION('',(0.707106781187,0.707106781187,0.));
#547 = ORIENTED_EDGE('',*,*,#505,.F.);
#548 = PLANE('',#549);
#549 = AXIS2_PLACEMENT_3D('',#550,#551,#552);
#550 = CARTESIAN_POINT('',(-473.0864081883,190.24369571371,
    373.81792129988));
#551 = DIRECTION('',(0.277404851943,-0.277404851943,-0.919833189354));
#552 = DIRECTION('',(0.707106781187,0.707106781187,0.));
#553 = ADVANCED_FACE('',(#554),#570,.F.);
#554 = FACE_BOUND('',#555,.F.);
#555 = EDGE_LOOP('',(#556,#562,#563,#569));
#556 = ORIENTED_EDGE('',*,*,#557,.T.);
#557 = EDGE_CURVE('',#528,#460,#558,.T.);
#558 = LINE('',#559,#560);
#559 = CARTESIAN_POINT('',(-200.,482.84271247461,367.9332757416));
#560 = VECTOR('',#561,1.);
#561 = DIRECTION('',(0.160396069376,-0.38723036604,-0.90792386495));
#562 = ORIENTED_EDGE('',*,*,#484,.T.);
#563 = ORIENTED_EDGE('',*,*,#564,.F.);
#564 = EDGE_CURVE('',#536,#477,#565,.T.);
#565 = LINE('',#566,#567);
#566 = CARTESIAN_POINT('',(-190.2436957137,473.08640818832,
    373.81792129988));
#567 = VECTOR('',#568,1.);
#568 = DIRECTION('',(0.160396069376,-0.38723036604,-0.90792386495));
#569 = ORIENTED_EDGE('',*,*,#535,.F.);
#570 = PLANE('',#571);
#571 = AXIS2_PLACEMENT_3D('',#572,#573,#574);
#572 = CARTESIAN_POINT('',(-190.2436957137,473.08640818832,
    373.81792129988));
#573 = DIRECTION('',(-0.742446329919,-0.653457034164,0.147537628054));
#574 = DIRECTION('',(0.160396069376,-0.38723036604,-0.90792386495));
#575 = ADVANCED_FACE('',(#576),#582,.T.);
#576 = FACE_BOUND('',#577,.T.);
#577 = EDGE_LOOP('',(#578,#579,#580,#581));
#578 = ORIENTED_EDGE('',*,*,#459,.T.);
#579 = ORIENTED_EDGE('',*,*,#497,.T.);
#580 = ORIENTED_EDGE('',*,*,#527,.T.);
#581 = ORIENTED_EDGE('',*,*,#557,.T.);
#582 = PLANE('',#583);
#583 = AXIS2_PLACEMENT_3D('',#584,#585,#586);
#584 = CARTESIAN_POINT('',(-135.,325.91883092036,0.));
#585 = DIRECTION('',(-0.650420285753,0.650420285753,-0.392309703886));
#586 = DIRECTION('',(-0.666682270487,-0.241338539186,0.705188244175));
#587 = ADVANCED_FACE('',(#588),#594,.F.);
#588 = FACE_BOUND('',#589,.F.);
#589 = EDGE_LOOP('',(#590,#591,#592,#593));
#590 = ORIENTED_EDGE('',*,*,#476,.T.);
#591 = ORIENTED_EDGE('',*,*,#512,.T.);
#592 = ORIENTED_EDGE('',*,*,#542,.T.);
#593 = ORIENTED_EDGE('',*,*,#564,.T.);
#594 = PLANE('',#595);
#595 = AXIS2_PLACEMENT_3D('',#596,#597,#598);
#596 = CARTESIAN_POINT('',(-125.2436957137,316.16252663407,
    5.884645558284));
#597 = DIRECTION('',(-0.650420285753,0.650420285753,-0.392309703886));
#598 = DIRECTION('',(-0.666682270487,-0.241338539186,0.705188244175));
#599 = MANIFOLD_SOLID_BREP('',#600);
#600 = CLOSED_SHELL('',(#601,#639,#669,#699,#721,#733));
#601 = ADVANCED_FACE('',(#602),#634,.F.);
#602 = FACE_BOUND('',#603,.F.);
#603 = EDGE_LOOP('',(#604,#614,#621,#629));
#604 = ORIENTED_EDGE('',*,*,#605,.T.);
#605 = EDGE_CURVE('',#606,#608,#610,.T.);
#606 = VERTEX_POINT('',#607);
#607 = CARTESIAN_POINT('',(-325.9188309203,135.,0.));
#608 = VERTEX_POINT('',#609);
#609 = CARTESIAN_POINT('',(-325.9188309203,-135.,0.));
#610 = LINE('',#611,#612);
#611 = CARTESIAN_POINT('',(-325.9188309203,135.,0.));
#612 = VECTOR('',#613,1.);
#613 = DIRECTION('',(-1.224646799147E-16,-1.,0.));
#614 = ORIENTED_EDGE('',*,*,#615,.T.);
#615 = EDGE_CURVE('',#608,#616,#618,.T.);
#616 = VERTEX_POINT('',#617);
#617 = CARTESIAN_POINT('',(-312.12133308,-135.,5.884645558284));
#618 = B_SPLINE_CURVE_WITH_KNOTS('',1,(#619,#620),.UNSPECIFIED.,.F.,.F.,
  (2,2),(0.,1.),.PIECEWISE_BEZIER_KNOTS.);
#619 = CARTESIAN_POINT('',(-325.9188309203,-135.,0.));
#620 = CARTESIAN_POINT('',(-312.12133308,-135.,5.884645558284));
#621 = ORIENTED_EDGE('',*,*,#622,.F.);
#622 = EDGE_CURVE('',#623,#616,#625,.T.);
#623 = VERTEX_POINT('',#624);
#624 = CARTESIAN_POINT('',(-312.12133308,135.,5.884645558284));
#625 = LINE('',#626,#627);
#626 = CARTESIAN_POINT('',(-312.12133308,135.,5.884645558284));
#627 = VECTOR('',#628,1.);
#628 = DIRECTION('',(-1.224646799147E-16,-1.,0.));
#629 = ORIENTED_EDGE('',*,*,#630,.F.);
#630 = EDGE_CURVE('',#606,#623,#631,.T.);
#631 = B_SPLINE_CURVE_WITH_KNOTS('',1,(#632,#633),.UNSPECIFIED.,.F.,.F.,
  (2,2),(0.,1.),.PIECEWISE_BEZIER_KNOTS.);
#632 = CARTESIAN_POINT('',(-325.9188309203,135.,0.));
#633 = CARTESIAN_POINT('',(-312.12133308,135.,5.884645558284));
#634 = PLANE('',#635);
#635 = AXIS2_PLACEMENT_3D('',#636,#637,#638);
#636 = CARTESIAN_POINT('',(-312.12133308,135.,5.884645558284));
#637 = DIRECTION('',(-0.392309703886,4.80440823138E-17,0.919833189354));
#638 = DIRECTION('',(-1.224646799147E-16,-1.,0.));
#639 = ADVANCED_FACE('',(#640),#664,.F.);
#640 = FACE_BOUND('',#641,.F.);
#641 = EDGE_LOOP('',(#642,#650,#657,#663));
#642 = ORIENTED_EDGE('',*,*,#643,.T.);
#643 = EDGE_CURVE('',#608,#644,#646,.T.);
#644 = VERTEX_POINT('',#645);
#645 = CARTESIAN_POINT('',(-482.8427124746,-200.,367.9332757416));
#646 = LINE('',#647,#648);
#647 = CARTESIAN_POINT('',(-325.9188309203,-135.,0.));
#648 = VECTOR('',#649,1.);
#649 = DIRECTION('',(-0.38723036604,-0.160396069376,0.90792386495));
#650 = ORIENTED_EDGE('',*,*,#651,.T.);
#651 = EDGE_CURVE('',#644,#652,#654,.T.);
#652 = VERTEX_POINT('',#653);
#653 = CARTESIAN_POINT('',(-469.0452146343,-200.,373.81792129988));
#654 = B_SPLINE_CURVE_WITH_KNOTS('',1,(#655,#656),.UNSPECIFIED.,.F.,.F.,
  (2,2),(0.,1.),.PIECEWISE_BEZIER_KNOTS.);
#655 = CARTESIAN_POINT('',(-482.8427124746,-200.,367.9332757416));
#656 = CARTESIAN_POINT('',(-469.0452146343,-200.,373.81792129988));
#657 = ORIENTED_EDGE('',*,*,#658,.F.);
#658 = EDGE_CURVE('',#616,#652,#659,.T.);
#659 = LINE('',#660,#661);
#660 = CARTESIAN_POINT('',(-312.12133308,-135.,5.884645558284));
#661 = VECTOR('',#662,1.);
#662 = DIRECTION('',(-0.38723036604,-0.160396069376,0.90792386495));
#663 = ORIENTED_EDGE('',*,*,#615,.F.);
#664 = PLANE('',#665);
#665 = AXIS2_PLACEMENT_3D('',#666,#667,#668);
#666 = CARTESIAN_POINT('',(-312.12133308,-135.,5.884645558284));
#667 = DIRECTION('',(-6.292493448147E-02,0.987052734624,0.147537628054)
  );
#668 = DIRECTION('',(-0.38723036604,-0.160396069376,0.90792386495));
#669 = ADVANCED_FACE('',(#670),#694,.F.);
#670 = FACE_BOUND('',#671,.F.);
#671 = EDGE_LOOP('',(#672,#680,#687,#693));
#672 = ORIENTED_EDGE('',*,*,#673,.T.);
#673 = EDGE_CURVE('',#644,#674,#676,.T.);
#674 = VERTEX_POINT('',#675);
#675 = CARTESIAN_POINT('',(-482.8427124746,200.,367.9332757416));
#676 = LINE('',#677,#678);
#677 = CARTESIAN_POINT('',(-482.8427124746,-200.,367.9332757416));
#678 = VECTOR('',#679,1.);
#679 = DIRECTION('',(1.224646799147E-16,1.,0.));
#680 = ORIENTED_EDGE('',*,*,#681,.T.);
#681 = EDGE_CURVE('',#674,#682,#684,.T.);
#682 = VERTEX_POINT('',#683);
#683 = CARTESIAN_POINT('',(-469.0452146343,200.,373.81792129988));
#684 = B_SPLINE_CURVE_WITH_KNOTS('',1,(#685,#686),.UNSPECIFIED.,.F.,.F.,
  (2,2),(0.,1.),.PIECEWISE_BEZIER_KNOTS.);
#685 = CARTESIAN_POINT('',(-482.8427124746,200.,367.9332757416));
#686 = CARTESIAN_POINT('',(-469.0452146343,200.,373.81792129988));
#687 = ORIENTED_EDGE('',*,*,#688,.F.);
#688 = EDGE_CURVE('',#652,#682,#689,.T.);
#689 = LINE('',#690,#691);
#690 = CARTESIAN_POINT('',(-469.0452146343,-200.,373.81792129988));
#691 = VECTOR('',#692,1.);
#692 = DIRECTION('',(1.224646799147E-16,1.,0.));
#693 = ORIENTED_EDGE('',*,*,#651,.F.);
#694 = PLANE('',#695);
#695 = AXIS2_PLACEMENT_3D('',#696,#697,#698);
#696 = CARTESIAN_POINT('',(-469.0452146343,-200.,373.81792129988));
#697 = DIRECTION('',(0.392309703886,-4.80440823138E-17,-0.919833189354)
  );
#698 = DIRECTION('',(1.224646799147E-16,1.,0.));
#699 = ADVANCED_FACE('',(#700),#716,.F.);
#700 = FACE_BOUND('',#701,.F.);
#701 = EDGE_LOOP('',(#702,#708,#709,#715));
#702 = ORIENTED_EDGE('',*,*,#703,.T.);
#703 = EDGE_CURVE('',#674,#606,#704,.T.);
#704 = LINE('',#705,#706);
#705 = CARTESIAN_POINT('',(-482.8427124746,200.,367.9332757416));
#706 = VECTOR('',#707,1.);
#707 = DIRECTION('',(0.38723036604,-0.160396069376,-0.90792386495));
#708 = ORIENTED_EDGE('',*,*,#630,.T.);
#709 = ORIENTED_EDGE('',*,*,#710,.F.);
#710 = EDGE_CURVE('',#682,#623,#711,.T.);
#711 = LINE('',#712,#713);
#712 = CARTESIAN_POINT('',(-469.0452146343,200.,373.81792129988));
#713 = VECTOR('',#714,1.);
#714 = DIRECTION('',(0.38723036604,-0.160396069376,-0.90792386495));
#715 = ORIENTED_EDGE('',*,*,#681,.F.);
#716 = PLANE('',#717);
#717 = AXIS2_PLACEMENT_3D('',#718,#719,#720);
#718 = CARTESIAN_POINT('',(-469.0452146343,200.,373.81792129988));
#719 = DIRECTION('',(-6.292493448147E-02,-0.987052734624,0.147537628054)
  );
#720 = DIRECTION('',(0.38723036604,-0.160396069376,-0.90792386495));
#721 = ADVANCED_FACE('',(#722),#728,.T.);
#722 = FACE_BOUND('',#723,.T.);
#723 = EDGE_LOOP('',(#724,#725,#726,#727));
#724 = ORIENTED_EDGE('',*,*,#605,.T.);
#725 = ORIENTED_EDGE('',*,*,#643,.T.);
#726 = ORIENTED_EDGE('',*,*,#673,.T.);
#727 = ORIENTED_EDGE('',*,*,#703,.T.);
#728 = PLANE('',#729);
#729 = AXIS2_PLACEMENT_3D('',#730,#731,#732);
#730 = CARTESIAN_POINT('',(-325.9188309203,135.,0.));
#731 = DIRECTION('',(-0.919833189354,1.126470771092E-16,-0.392309703886)
  );
#732 = DIRECTION('',(-0.300763436738,-0.642067671978,0.705188244175));
#733 = ADVANCED_FACE('',(#734),#740,.F.);
#734 = FACE_BOUND('',#735,.F.);
#735 = EDGE_LOOP('',(#736,#737,#738,#739));
#736 = ORIENTED_EDGE('',*,*,#622,.T.);
#737 = ORIENTED_EDGE('',*,*,#658,.T.);
#738 = ORIENTED_EDGE('',*,*,#688,.T.);
#739 = ORIENTED_EDGE('',*,*,#710,.T.);
#740 = PLANE('',#741);
#741 = AXIS2_PLACEMENT_3D('',#742,#743,#744);
#742 = CARTESIAN_POINT('',(-312.12133308,135.,5.884645558284));
#743 = DIRECTION('',(-0.919833189354,1.126470771092E-16,-0.392309703886)
  );
#744 = DIRECTION('',(-0.300763436738,-0.642067671978,0.705188244175));
#745 = MANIFOLD_SOLID_BREP('',#746);
#746 = CLOSED_SHELL('',(#747,#785,#815,#845,#867,#879));
#747 = ADVANCED_FACE('',(#748),#780,.F.);
#748 = FACE_BOUND('',#749,.F.);
#749 = EDGE_LOOP('',(#750,#760,#767,#775));
#750 = ORIENTED_EDGE('',*,*,#751,.T.);
#751 = EDGE_CURVE('',#752,#754,#756,.T.);
#752 = VERTEX_POINT('',#753);
#753 = CARTESIAN_POINT('',(-325.9188309203,-135.,0.));
#754 = VERTEX_POINT('',#755);
#755 = CARTESIAN_POINT('',(-135.,-325.9188309203,0.));
#756 = LINE('',#757,#758);
#757 = CARTESIAN_POINT('',(-325.9188309203,-135.,0.));
#758 = VECTOR('',#759,1.);
#759 = DIRECTION('',(0.707106781187,-0.707106781187,0.));
#760 = ORIENTED_EDGE('',*,*,#761,.T.);
#761 = EDGE_CURVE('',#754,#762,#764,.T.);
#762 = VERTEX_POINT('',#763);
#763 = CARTESIAN_POINT('',(-125.2436957137,-316.162526634,5.884645558284
    ));
#764 = B_SPLINE_CURVE_WITH_KNOTS('',1,(#765,#766),.UNSPECIFIED.,.F.,.F.,
  (2,2),(0.,1.),.PIECEWISE_BEZIER_KNOTS.);
#765 = CARTESIAN_POINT('',(-135.,-325.9188309203,0.));
#766 = CARTESIAN_POINT('',(-125.2436957137,-316.162526634,5.884645558284
    ));
#767 = ORIENTED_EDGE('',*,*,#768,.F.);
#768 = EDGE_CURVE('',#769,#762,#771,.T.);
#769 = VERTEX_POINT('',#770);
#770 = CARTESIAN_POINT('',(-316.162526634,-125.2436957137,5.884645558284
    ));
#771 = LINE('',#772,#773);
#772 = CARTESIAN_POINT('',(-316.162526634,-125.2436957137,5.884645558284
    ));
#773 = VECTOR('',#774,1.);
#774 = DIRECTION('',(0.707106781187,-0.707106781187,0.));
#775 = ORIENTED_EDGE('',*,*,#776,.F.);
#776 = EDGE_CURVE('',#752,#769,#777,.T.);
#777 = B_SPLINE_CURVE_WITH_KNOTS('',1,(#778,#779),.UNSPECIFIED.,.F.,.F.,
  (2,2),(0.,1.),.PIECEWISE_BEZIER_KNOTS.);
#778 = CARTESIAN_POINT('',(-325.9188309203,-135.,0.));
#779 = CARTESIAN_POINT('',(-316.162526634,-125.2436957137,5.884645558284
    ));
#780 = PLANE('',#781);
#781 = AXIS2_PLACEMENT_3D('',#782,#783,#784);
#782 = CARTESIAN_POINT('',(-316.162526634,-125.2436957137,5.884645558284
    ));
#783 = DIRECTION('',(-0.277404851943,-0.277404851943,0.919833189354));
#784 = DIRECTION('',(0.707106781187,-0.707106781187,0.));
#785 = ADVANCED_FACE('',(#786),#810,.F.);
#786 = FACE_BOUND('',#787,.F.);
#787 = EDGE_LOOP('',(#788,#796,#803,#809));
#788 = ORIENTED_EDGE('',*,*,#789,.T.);
#789 = EDGE_CURVE('',#754,#790,#792,.T.);
#790 = VERTEX_POINT('',#791);
#791 = CARTESIAN_POINT('',(-200.,-482.8427124746,367.9332757416));
#792 = LINE('',#793,#794);
#793 = CARTESIAN_POINT('',(-135.,-325.9188309203,0.));
#794 = VECTOR('',#795,1.);
#795 = DIRECTION('',(-0.160396069376,-0.38723036604,0.90792386495));
#796 = ORIENTED_EDGE('',*,*,#797,.T.);
#797 = EDGE_CURVE('',#790,#798,#800,.T.);
#798 = VERTEX_POINT('',#799);
#799 = CARTESIAN_POINT('',(-190.2436957137,-473.0864081883,
    373.81792129988));
#800 = B_SPLINE_CURVE_WITH_KNOTS('',1,(#801,#802),.UNSPECIFIED.,.F.,.F.,
  (2,2),(0.,1.),.PIECEWISE_BEZIER_KNOTS.);
#801 = CARTESIAN_POINT('',(-200.,-482.8427124746,367.9332757416));
#802 = CARTESIAN_POINT('',(-190.2436957137,-473.0864081883,
    373.81792129988));
#803 = ORIENTED_EDGE('',*,*,#804,.F.);
#804 = EDGE_CURVE('',#762,#798,#805,.T.);
#805 = LINE('',#806,#807);
#806 = CARTESIAN_POINT('',(-125.2436957137,-316.162526634,5.884645558284
    ));
#807 = VECTOR('',#808,1.);
#808 = DIRECTION('',(-0.160396069376,-0.38723036604,0.90792386495));
#809 = ORIENTED_EDGE('',*,*,#761,.F.);
#810 = PLANE('',#811);
#811 = AXIS2_PLACEMENT_3D('',#812,#813,#814);
#812 = CARTESIAN_POINT('',(-125.2436957137,-316.162526634,5.884645558284
    ));
#813 = DIRECTION('',(-0.742446329919,0.653457034164,0.147537628054));
#814 = DIRECTION('',(-0.160396069376,-0.38723036604,0.90792386495));
#815 = ADVANCED_FACE('',(#816),#840,.F.);
#816 = FACE_BOUND('',#817,.F.);
#817 = EDGE_LOOP('',(#818,#826,#833,#839));
#818 = ORIENTED_EDGE('',*,*,#819,.T.);
#819 = EDGE_CURVE('',#790,#820,#822,.T.);
#820 = VERTEX_POINT('',#821);
#821 = CARTESIAN_POINT('',(-482.8427124746,-200.,367.9332757416));
#822 = LINE('',#823,#824);
#823 = CARTESIAN_POINT('',(-200.,-482.8427124746,367.9332757416));
#824 = VECTOR('',#825,1.);
#825 = DIRECTION('',(-0.707106781187,0.707106781187,0.));
#826 = ORIENTED_EDGE('',*,*,#827,.T.);
#827 = EDGE_CURVE('',#820,#828,#830,.T.);
#828 = VERTEX_POINT('',#829);
#829 = CARTESIAN_POINT('',(-473.0864081883,-190.2436957137,
    373.81792129988));
#830 = B_SPLINE_CURVE_WITH_KNOTS('',1,(#831,#832),.UNSPECIFIED.,.F.,.F.,
  (2,2),(0.,1.),.PIECEWISE_BEZIER_KNOTS.);
#831 = CARTESIAN_POINT('',(-482.8427124746,-200.,367.9332757416));
#832 = CARTESIAN_POINT('',(-473.0864081883,-190.2436957137,
    373.81792129988));
#833 = ORIENTED_EDGE('',*,*,#834,.F.);
#834 = EDGE_CURVE('',#798,#828,#835,.T.);
#835 = LINE('',#836,#837);
#836 = CARTESIAN_POINT('',(-190.2436957137,-473.0864081883,
    373.81792129988));
#837 = VECTOR('',#838,1.);
#838 = DIRECTION('',(-0.707106781187,0.707106781187,0.));
#839 = ORIENTED_EDGE('',*,*,#797,.F.);
#840 = PLANE('',#841);
#841 = AXIS2_PLACEMENT_3D('',#842,#843,#844);
#842 = CARTESIAN_POINT('',(-190.2436957137,-473.0864081883,
    373.81792129988));
#843 = DIRECTION('',(0.277404851943,0.277404851943,-0.919833189354));
#844 = DIRECTION('',(-0.707106781187,0.707106781187,0.));
#845 = ADVANCED_FACE('',(#846),#862,.F.);
#846 = FACE_BOUND('',#847,.F.);
#847 = EDGE_LOOP('',(#848,#854,#855,#861));
#848 = ORIENTED_EDGE('',*,*,#849,.T.);
#849 = EDGE_CURVE('',#820,#752,#850,.T.);
#850 = LINE('',#851,#852);
#851 = CARTESIAN_POINT('',(-482.8427124746,-200.,367.9332757416));
#852 = VECTOR('',#853,1.);
#853 = DIRECTION('',(0.38723036604,0.160396069376,-0.90792386495));
#854 = ORIENTED_EDGE('',*,*,#776,.T.);
#855 = ORIENTED_EDGE('',*,*,#856,.F.);
#856 = EDGE_CURVE('',#828,#769,#857,.T.);
#857 = LINE('',#858,#859);
#858 = CARTESIAN_POINT('',(-473.0864081883,-190.2436957137,
    373.81792129988));
#859 = VECTOR('',#860,1.);
#860 = DIRECTION('',(0.38723036604,0.160396069376,-0.90792386495));
#861 = ORIENTED_EDGE('',*,*,#827,.F.);
#862 = PLANE('',#863);
#863 = AXIS2_PLACEMENT_3D('',#864,#865,#866);
#864 = CARTESIAN_POINT('',(-473.0864081883,-190.2436957137,
    373.81792129988));
#865 = DIRECTION('',(0.653457034164,-0.742446329919,0.147537628054));
#866 = DIRECTION('',(0.38723036604,0.160396069376,-0.90792386495));
#867 = ADVANCED_FACE('',(#868),#874,.T.);
#868 = FACE_BOUND('',#869,.T.);
#869 = EDGE_LOOP('',(#870,#871,#872,#873));
#870 = ORIENTED_EDGE('',*,*,#751,.T.);
#871 = ORIENTED_EDGE('',*,*,#789,.T.);
#872 = ORIENTED_EDGE('',*,*,#819,.T.);
#873 = ORIENTED_EDGE('',*,*,#849,.T.);
#874 = PLANE('',#875);
#875 = AXIS2_PLACEMENT_3D('',#876,#877,#878);
#876 = CARTESIAN_POINT('',(-325.9188309203,-135.,0.));
#877 = DIRECTION('',(-0.650420285753,-0.650420285753,-0.392309703886));
#878 = DIRECTION('',(0.241338539186,-0.666682270487,0.705188244175));
#879 = ADVANCED_FACE('',(#880),#886,.F.);
#880 = FACE_BOUND('',#881,.F.);
#881 = EDGE_LOOP('',(#882,#883,#884,#885));
#882 = ORIENTED_EDGE('',*,*,#768,.T.);
#883 = ORIENTED_EDGE('',*,*,#804,.T.);
#884 = ORIENTED_EDGE('',*,*,#834,.T.);
#885 = ORIENTED_EDGE('',*,*,#856,.T.);
#886 = PLANE('',#887);
#887 = AXIS2_PLACEMENT_3D('',#888,#889,#890);
#888 = CARTESIAN_POINT('',(-316.162526634,-125.2436957137,5.884645558284
    ));
#889 = DIRECTION('',(-0.650420285753,-0.650420285753,-0.392309703886));
#890 = DIRECTION('',(0.241338539186,-0.666682270487,0.705188244175));
#891 = MANIFOLD_SOLID_BREP('',#892);
#892 = CLOSED_SHELL('',(#893,#931,#961,#991,#1013,#1025));
#893 = ADVANCED_FACE('',(#894),#926,.F.);
#894 = FACE_BOUND('',#895,.F.);
#895 = EDGE_LOOP('',(#896,#906,#913,#921));
#896 = ORIENTED_EDGE('',*,*,#897,.T.);
#897 = EDGE_CURVE('',#898,#900,#902,.T.);
#898 = VERTEX_POINT('',#899);
#899 = CARTESIAN_POINT('',(-135.,-325.9188309203,0.));
#900 = VERTEX_POINT('',#901);
#901 = CARTESIAN_POINT('',(135.,-325.9188309203,0.));
#902 = LINE('',#903,#904);
#903 = CARTESIAN_POINT('',(-135.,-325.9188309203,0.));
#904 = VECTOR('',#905,1.);
#905 = DIRECTION('',(1.,-2.22044604925E-16,0.));
#906 = ORIENTED_EDGE('',*,*,#907,.T.);
#907 = EDGE_CURVE('',#900,#908,#910,.T.);
#908 = VERTEX_POINT('',#909);
#909 = CARTESIAN_POINT('',(135.,-312.12133308,5.884645558284));
#910 = B_SPLINE_CURVE_WITH_KNOTS('',1,(#911,#912),.UNSPECIFIED.,.F.,.F.,
  (2,2),(0.,1.),.PIECEWISE_BEZIER_KNOTS.);
#911 = CARTESIAN_POINT('',(135.,-325.9188309203,0.));
#912 = CARTESIAN_POINT('',(135.,-312.12133308,5.884645558284));
#913 = ORIENTED_EDGE('',*,*,#914,.F.);
#914 = EDGE_CURVE('',#915,#908,#917,.T.);
#915 = VERTEX_POINT('',#916);
#916 = CARTESIAN_POINT('',(-135.,-312.12133308,5.884645558284));
#917 = LINE('',#918,#919);
#918 = CARTESIAN_POINT('',(-135.,-312.12133308,5.884645558284));
#919 = VECTOR('',#920,1.);
#920 = DIRECTION('',(1.,-2.22044604925E-16,0.));
#921 = ORIENTED_EDGE('',*,*,#922,.F.);
#922 = EDGE_CURVE('',#898,#915,#923,.T.);
#923 = B_SPLINE_CURVE_WITH_KNOTS('',1,(#924,#925),.UNSPECIFIED.,.F.,.F.,
  (2,2),(0.,1.),.PIECEWISE_BEZIER_KNOTS.);
#924 = CARTESIAN_POINT('',(-135.,-325.9188309203,0.));
#925 = CARTESIAN_POINT('',(-135.,-312.12133308,5.884645558284));
#926 = PLANE('',#927);
#927 = AXIS2_PLACEMENT_3D('',#928,#929,#930);
#928 = CARTESIAN_POINT('',(-135.,-312.12133308,5.884645558284));
#929 = DIRECTION('',(-8.711025320754E-17,-0.392309703886,0.919833189354)
  );
#930 = DIRECTION('',(1.,-2.22044604925E-16,0.));
#931 = ADVANCED_FACE('',(#932),#956,.F.);
#932 = FACE_BOUND('',#933,.F.);
#933 = EDGE_LOOP('',(#934,#942,#949,#955));
#934 = ORIENTED_EDGE('',*,*,#935,.T.);
#935 = EDGE_CURVE('',#900,#936,#938,.T.);
#936 = VERTEX_POINT('',#937);
#937 = CARTESIAN_POINT('',(200.,-482.8427124746,367.9332757416));
#938 = LINE('',#939,#940);
#939 = CARTESIAN_POINT('',(135.,-325.9188309203,0.));
#940 = VECTOR('',#941,1.);
#941 = DIRECTION('',(0.160396069376,-0.38723036604,0.90792386495));
#942 = ORIENTED_EDGE('',*,*,#943,.T.);
#943 = EDGE_CURVE('',#936,#944,#946,.T.);
#944 = VERTEX_POINT('',#945);
#945 = CARTESIAN_POINT('',(200.,-469.0452146343,373.81792129988));
#946 = B_SPLINE_CURVE_WITH_KNOTS('',1,(#947,#948),.UNSPECIFIED.,.F.,.F.,
  (2,2),(0.,1.),.PIECEWISE_BEZIER_KNOTS.);
#947 = CARTESIAN_POINT('',(200.,-482.8427124746,367.9332757416));
#948 = CARTESIAN_POINT('',(200.,-469.0452146343,373.81792129988));
#949 = ORIENTED_EDGE('',*,*,#950,.F.);
#950 = EDGE_CURVE('',#908,#944,#951,.T.);
#951 = LINE('',#952,#953);
#952 = CARTESIAN_POINT('',(135.,-312.12133308,5.884645558284));
#953 = VECTOR('',#954,1.);
#954 = DIRECTION('',(0.160396069376,-0.38723036604,0.90792386495));
#955 = ORIENTED_EDGE('',*,*,#907,.F.);
#956 = PLANE('',#957);
#957 = AXIS2_PLACEMENT_3D('',#958,#959,#960);
#958 = CARTESIAN_POINT('',(135.,-312.12133308,5.884645558284));
#959 = DIRECTION('',(-0.987052734624,-6.292493448147E-02,0.147537628054)
  );
#960 = DIRECTION('',(0.160396069376,-0.38723036604,0.90792386495));
#961 = ADVANCED_FACE('',(#962),#986,.F.);
#962 = FACE_BOUND('',#963,.F.);
#963 = EDGE_LOOP('',(#964,#972,#979,#985));
#964 = ORIENTED_EDGE('',*,*,#965,.T.);
#965 = EDGE_CURVE('',#936,#966,#968,.T.);
#966 = VERTEX_POINT('',#967);
#967 = CARTESIAN_POINT('',(-200.,-482.8427124746,367.9332757416));
#968 = LINE('',#969,#970);
#969 = CARTESIAN_POINT('',(200.,-482.8427124746,367.9332757416));
#970 = VECTOR('',#971,1.);
#971 = DIRECTION('',(-1.,2.22044604925E-16,0.));
#972 = ORIENTED_EDGE('',*,*,#973,.T.);
#973 = EDGE_CURVE('',#966,#974,#976,.T.);
#974 = VERTEX_POINT('',#975);
#975 = CARTESIAN_POINT('',(-200.,-469.0452146343,373.81792129988));
#976 = B_SPLINE_CURVE_WITH_KNOTS('',1,(#977,#978),.UNSPECIFIED.,.F.,.F.,
  (2,2),(0.,1.),.PIECEWISE_BEZIER_KNOTS.);
#977 = CARTESIAN_POINT('',(-200.,-482.8427124746,367.9332757416));
#978 = CARTESIAN_POINT('',(-200.,-469.0452146343,373.81792129988));
#979 = ORIENTED_EDGE('',*,*,#980,.F.);
#980 = EDGE_CURVE('',#944,#974,#981,.T.);
#981 = LINE('',#982,#983);
#982 = CARTESIAN_POINT('',(200.,-469.0452146343,373.81792129988));
#983 = VECTOR('',#984,1.);
#984 = DIRECTION('',(-1.,2.22044604925E-16,0.));
#985 = ORIENTED_EDGE('',*,*,#943,.F.);
#986 = PLANE('',#987);
#987 = AXIS2_PLACEMENT_3D('',#988,#989,#990);
#988 = CARTESIAN_POINT('',(200.,-469.0452146343,373.81792129988));
#989 = DIRECTION('',(8.711025320754E-17,0.392309703886,-0.919833189354)
  );
#990 = DIRECTION('',(-1.,2.22044604925E-16,0.));
#991 = ADVANCED_FACE('',(#992),#1008,.F.);
#992 = FACE_BOUND('',#993,.F.);
#993 = EDGE_LOOP('',(#994,#1000,#1001,#1007));
#994 = ORIENTED_EDGE('',*,*,#995,.T.);
#995 = EDGE_CURVE('',#966,#898,#996,.T.);
#996 = LINE('',#997,#998);
#997 = CARTESIAN_POINT('',(-200.,-482.8427124746,367.9332757416));
#998 = VECTOR('',#999,1.);
#999 = DIRECTION('',(0.160396069376,0.38723036604,-0.90792386495));
#1000 = ORIENTED_EDGE('',*,*,#922,.T.);
#1001 = ORIENTED_EDGE('',*,*,#1002,.F.);
#1002 = EDGE_CURVE('',#974,#915,#1003,.T.);
#1003 = LINE('',#1004,#1005);
#1004 = CARTESIAN_POINT('',(-200.,-469.0452146343,373.81792129988));
#1005 = VECTOR('',#1006,1.);
#1006 = DIRECTION('',(0.160396069376,0.38723036604,-0.90792386495));
#1007 = ORIENTED_EDGE('',*,*,#973,.F.);
#1008 = PLANE('',#1009);
#1009 = AXIS2_PLACEMENT_3D('',#1010,#1011,#1012);
#1010 = CARTESIAN_POINT('',(-200.,-469.0452146343,373.81792129988));
#1011 = DIRECTION('',(0.987052734624,-6.292493448147E-02,0.147537628054)
  );
#1012 = DIRECTION('',(0.160396069376,0.38723036604,-0.90792386495));
#1013 = ADVANCED_FACE('',(#1014),#1020,.T.);
#1014 = FACE_BOUND('',#1015,.T.);
#1015 = EDGE_LOOP('',(#1016,#1017,#1018,#1019));
#1016 = ORIENTED_EDGE('',*,*,#897,.T.);
#1017 = ORIENTED_EDGE('',*,*,#935,.T.);
#1018 = ORIENTED_EDGE('',*,*,#965,.T.);
#1019 = ORIENTED_EDGE('',*,*,#995,.T.);
#1020 = PLANE('',#1021);
#1021 = AXIS2_PLACEMENT_3D('',#1022,#1023,#1024);
#1022 = CARTESIAN_POINT('',(-135.,-325.9188309203,0.));
#1023 = DIRECTION('',(-2.04243997127E-16,-0.919833189354,-0.392309703886
    ));
#1024 = DIRECTION('',(0.642067671978,-0.300763436738,0.705188244175));
#1025 = ADVANCED_FACE('',(#1026),#1032,.F.);
#1026 = FACE_BOUND('',#1027,.F.);
#1027 = EDGE_LOOP('',(#1028,#1029,#1030,#1031));
#1028 = ORIENTED_EDGE('',*,*,#914,.T.);
#1029 = ORIENTED_EDGE('',*,*,#950,.T.);
#1030 = ORIENTED_EDGE('',*,*,#980,.T.);
#1031 = ORIENTED_EDGE('',*,*,#1002,.T.);
#1032 = PLANE('',#1033);
#1033 = AXIS2_PLACEMENT_3D('',#1034,#1035,#1036);
#1034 = CARTESIAN_POINT('',(-135.,-312.12133308,5.884645558284));
#1035 = DIRECTION('',(-2.04243997127E-16,-0.919833189354,-0.392309703886
    ));
#1036 = DIRECTION('',(0.642067671978,-0.300763436738,0.705188244175));
#1037 = MANIFOLD_SOLID_BREP('',#1038);
#1038 = CLOSED_SHELL('',(#1039,#1077,#1107,#1137,#1159,#1171));
#1039 = ADVANCED_FACE('',(#1040),#1072,.F.);
#1040 = FACE_BOUND('',#1041,.F.);
#1041 = EDGE_LOOP('',(#1042,#1052,#1059,#1067));
#1042 = ORIENTED_EDGE('',*,*,#1043,.T.);
#1043 = EDGE_CURVE('',#1044,#1046,#1048,.T.);
#1044 = VERTEX_POINT('',#1045);
#1045 = CARTESIAN_POINT('',(135.,-325.9188309203,0.));
#1046 = VERTEX_POINT('',#1047);
#1047 = CARTESIAN_POINT('',(325.91883092036,-135.,0.));
#1048 = LINE('',#1049,#1050);
#1049 = CARTESIAN_POINT('',(135.,-325.9188309203,0.));
#1050 = VECTOR('',#1051,1.);
#1051 = DIRECTION('',(0.707106781187,0.707106781187,0.));
#1052 = ORIENTED_EDGE('',*,*,#1053,.T.);
#1053 = EDGE_CURVE('',#1046,#1054,#1056,.T.);
#1054 = VERTEX_POINT('',#1055);
#1055 = CARTESIAN_POINT('',(316.16252663407,-125.2436957137,
    5.884645558284));
#1056 = B_SPLINE_CURVE_WITH_KNOTS('',1,(#1057,#1058),.UNSPECIFIED.,.F.,
  .F.,(2,2),(0.,1.),.PIECEWISE_BEZIER_KNOTS.);
#1057 = CARTESIAN_POINT('',(325.91883092036,-135.,0.));
#1058 = CARTESIAN_POINT('',(316.16252663407,-125.2436957137,
    5.884645558284));
#1059 = ORIENTED_EDGE('',*,*,#1060,.F.);
#1060 = EDGE_CURVE('',#1061,#1054,#1063,.T.);
#1061 = VERTEX_POINT('',#1062);
#1062 = CARTESIAN_POINT('',(125.24369571371,-316.162526634,
    5.884645558284));
#1063 = LINE('',#1064,#1065);
#1064 = CARTESIAN_POINT('',(125.24369571371,-316.162526634,
    5.884645558284));
#1065 = VECTOR('',#1066,1.);
#1066 = DIRECTION('',(0.707106781187,0.707106781187,0.));
#1067 = ORIENTED_EDGE('',*,*,#1068,.F.);
#1068 = EDGE_CURVE('',#1044,#1061,#1069,.T.);
#1069 = B_SPLINE_CURVE_WITH_KNOTS('',1,(#1070,#1071),.UNSPECIFIED.,.F.,
  .F.,(2,2),(0.,1.),.PIECEWISE_BEZIER_KNOTS.);
#1070 = CARTESIAN_POINT('',(135.,-325.9188309203,0.));
#1071 = CARTESIAN_POINT('',(125.24369571371,-316.162526634,
    5.884645558284));
#1072 = PLANE('',#1073);
#1073 = AXIS2_PLACEMENT_3D('',#1074,#1075,#1076);
#1074 = CARTESIAN_POINT('',(125.24369571371,-316.162526634,
    5.884645558284));
#1075 = DIRECTION('',(0.277404851943,-0.277404851943,0.919833189354));
#1076 = DIRECTION('',(0.707106781187,0.707106781187,0.));
#1077 = ADVANCED_FACE('',(#1078),#1102,.F.);
#1078 = FACE_BOUND('',#1079,.F.);
#1079 = EDGE_LOOP('',(#1080,#1088,#1095,#1101));
#1080 = ORIENTED_EDGE('',*,*,#1081,.T.);
#1081 = EDGE_CURVE('',#1046,#1082,#1084,.T.);
#1082 = VERTEX_POINT('',#1083);
#1083 = CARTESIAN_POINT('',(482.84271247461,-200.,367.9332757416));
#1084 = LINE('',#1085,#1086);
#1085 = CARTESIAN_POINT('',(325.91883092036,-135.,0.));
#1086 = VECTOR('',#1087,1.);
#1087 = DIRECTION('',(0.38723036604,-0.160396069376,0.90792386495));
#1088 = ORIENTED_EDGE('',*,*,#1089,.T.);
#1089 = EDGE_CURVE('',#1082,#1090,#1092,.T.);
#1090 = VERTEX_POINT('',#1091);
#1091 = CARTESIAN_POINT('',(473.08640818832,-190.2436957137,
    373.81792129988));
#1092 = B_SPLINE_CURVE_WITH_KNOTS('',1,(#1093,#1094),.UNSPECIFIED.,.F.,
  .F.,(2,2),(0.,1.),.PIECEWISE_BEZIER_KNOTS.);
#1093 = CARTESIAN_POINT('',(482.84271247461,-200.,367.9332757416));
#1094 = CARTESIAN_POINT('',(473.08640818832,-190.2436957137,
    373.81792129988));
#1095 = ORIENTED_EDGE('',*,*,#1096,.F.);
#1096 = EDGE_CURVE('',#1054,#1090,#1097,.T.);
#1097 = LINE('',#1098,#1099);
#1098 = CARTESIAN_POINT('',(316.16252663407,-125.2436957137,
    5.884645558284));
#1099 = VECTOR('',#1100,1.);
#1100 = DIRECTION('',(0.38723036604,-0.160396069376,0.90792386495));
#1101 = ORIENTED_EDGE('',*,*,#1053,.F.);
#1102 = PLANE('',#1103);
#1103 = AXIS2_PLACEMENT_3D('',#1104,#1105,#1106);
#1104 = CARTESIAN_POINT('',(316.16252663407,-125.2436957137,
    5.884645558284));
#1105 = DIRECTION('',(-0.653457034164,-0.742446329919,0.147537628054));
#1106 = DIRECTION('',(0.38723036604,-0.160396069376,0.90792386495));
#1107 = ADVANCED_FACE('',(#1108),#1132,.F.);
#1108 = FACE_BOUND('',#1109,.F.);
#1109 = EDGE_LOOP('',(#1110,#1118,#1125,#1131));
#1110 = ORIENTED_EDGE('',*,*,#1111,.T.);
#1111 = EDGE_CURVE('',#1082,#1112,#1114,.T.);
#1112 = VERTEX_POINT('',#1113);
#1113 = CARTESIAN_POINT('',(200.,-482.8427124746,367.9332757416));
#1114 = LINE('',#1115,#1116);
#1115 = CARTESIAN_POINT('',(482.84271247461,-200.,367.9332757416));
#1116 = VECTOR('',#1117,1.);
#1117 = DIRECTION('',(-0.707106781187,-0.707106781187,0.));
#1118 = ORIENTED_EDGE('',*,*,#1119,.T.);
#1119 = EDGE_CURVE('',#1112,#1120,#1122,.T.);
#1120 = VERTEX_POINT('',#1121);
#1121 = CARTESIAN_POINT('',(190.24369571371,-473.0864081883,
    373.81792129988));
#1122 = B_SPLINE_CURVE_WITH_KNOTS('',1,(#1123,#1124),.UNSPECIFIED.,.F.,
  .F.,(2,2),(0.,1.),.PIECEWISE_BEZIER_KNOTS.);
#1123 = CARTESIAN_POINT('',(200.,-482.8427124746,367.9332757416));
#1124 = CARTESIAN_POINT('',(190.24369571371,-473.0864081883,
    373.81792129988));
#1125 = ORIENTED_EDGE('',*,*,#1126,.F.);
#1126 = EDGE_CURVE('',#1090,#1120,#1127,.T.);
#1127 = LINE('',#1128,#1129);
#1128 = CARTESIAN_POINT('',(473.08640818832,-190.2436957137,
    373.81792129988));
#1129 = VECTOR('',#1130,1.);
#1130 = DIRECTION('',(-0.707106781187,-0.707106781187,0.));
#1131 = ORIENTED_EDGE('',*,*,#1089,.F.);
#1132 = PLANE('',#1133);
#1133 = AXIS2_PLACEMENT_3D('',#1134,#1135,#1136);
#1134 = CARTESIAN_POINT('',(473.08640818832,-190.2436957137,
    373.81792129988));
#1135 = DIRECTION('',(-0.277404851943,0.277404851943,-0.919833189354));
#1136 = DIRECTION('',(-0.707106781187,-0.707106781187,0.));
#1137 = ADVANCED_FACE('',(#1138),#1154,.F.);
#1138 = FACE_BOUND('',#1139,.F.);
#1139 = EDGE_LOOP('',(#1140,#1146,#1147,#1153));
#1140 = ORIENTED_EDGE('',*,*,#1141,.T.);
#1141 = EDGE_CURVE('',#1112,#1044,#1142,.T.);
#1142 = LINE('',#1143,#1144);
#1143 = CARTESIAN_POINT('',(200.,-482.8427124746,367.9332757416));
#1144 = VECTOR('',#1145,1.);
#1145 = DIRECTION('',(-0.160396069376,0.38723036604,-0.90792386495));
#1146 = ORIENTED_EDGE('',*,*,#1068,.T.);
#1147 = ORIENTED_EDGE('',*,*,#1148,.F.);
#1148 = EDGE_CURVE('',#1120,#1061,#1149,.T.);
#1149 = LINE('',#1150,#1151);
#1150 = CARTESIAN_POINT('',(190.24369571371,-473.0864081883,
    373.81792129988));
#1151 = VECTOR('',#1152,1.);
#1152 = DIRECTION('',(-0.160396069376,0.38723036604,-0.90792386495));
#1153 = ORIENTED_EDGE('',*,*,#1119,.F.);
#1154 = PLANE('',#1155);
#1155 = AXIS2_PLACEMENT_3D('',#1156,#1157,#1158);
#1156 = CARTESIAN_POINT('',(190.24369571371,-473.0864081883,
    373.81792129988));
#1157 = DIRECTION('',(0.742446329919,0.653457034164,0.147537628054));
#1158 = DIRECTION('',(-0.160396069376,0.38723036604,-0.90792386495));
#1159 = ADVANCED_FACE('',(#1160),#1166,.T.);
#1160 = FACE_BOUND('',#1161,.T.);
#1161 = EDGE_LOOP('',(#1162,#1163,#1164,#1165));
#1162 = ORIENTED_EDGE('',*,*,#1043,.T.);
#1163 = ORIENTED_EDGE('',*,*,#1081,.T.);
#1164 = ORIENTED_EDGE('',*,*,#1111,.T.);
#1165 = ORIENTED_EDGE('',*,*,#1141,.T.);
#1166 = PLANE('',#1167);
#1167 = AXIS2_PLACEMENT_3D('',#1168,#1169,#1170);
#1168 = CARTESIAN_POINT('',(135.,-325.9188309203,0.));
#1169 = DIRECTION('',(0.650420285753,-0.650420285753,-0.392309703886));
#1170 = DIRECTION('',(0.666682270487,0.241338539186,0.705188244175));
#1171 = ADVANCED_FACE('',(#1172),#1178,.F.);
#1172 = FACE_BOUND('',#1173,.F.);
#1173 = EDGE_LOOP('',(#1174,#1175,#1176,#1177));
#1174 = ORIENTED_EDGE('',*,*,#1060,.T.);
#1175 = ORIENTED_EDGE('',*,*,#1096,.T.);
#1176 = ORIENTED_EDGE('',*,*,#1126,.T.);
#1177 = ORIENTED_EDGE('',*,*,#1148,.T.);
#1178 = PLANE('',#1179);
#1179 = AXIS2_PLACEMENT_3D('',#1180,#1181,#1182);
#1180 = CARTESIAN_POINT('',(125.24369571371,-316.162526634,
    5.884645558284));
#1181 = DIRECTION('',(0.650420285753,-0.650420285753,-0.392309703886));
#1182 = DIRECTION('',(0.666682270487,0.241338539186,0.705188244175));
#1183 = MANIFOLD_SOLID_BREP('',#1184);
#1184 = CLOSED_SHELL('',(#1185,#1223,#1253,#1283,#1305,#1317));
#1185 = ADVANCED_FACE('',(#1186),#1218,.T.);
#1186 = FACE_BOUND('',#1187,.T.);
#1187 = EDGE_LOOP('',(#1188,#1198,#1205,#1213));
#1188 = ORIENTED_EDGE('',*,*,#1189,.T.);
#1189 = EDGE_CURVE('',#1190,#1192,#1194,.T.);
#1190 = VERTEX_POINT('',#1191);
#1191 = CARTESIAN_POINT('',(315.91883092036,-260.,0.));
#1192 = VERTEX_POINT('',#1193);
#1193 = CARTESIAN_POINT('',(315.91883092036,260.,0.));
#1194 = LINE('',#1195,#1196);
#1195 = CARTESIAN_POINT('',(315.91883092036,-260.,0.));
#1196 = VECTOR('',#1197,1.);
#1197 = DIRECTION('',(0.,1.,0.));
#1198 = ORIENTED_EDGE('',*,*,#1199,.T.);
#1199 = EDGE_CURVE('',#1192,#1200,#1202,.T.);
#1200 = VERTEX_POINT('',#1201);
#1201 = CARTESIAN_POINT('',(311.28357600474,260.,-14.26584774442));
#1202 = B_SPLINE_CURVE_WITH_KNOTS('',1,(#1203,#1204),.UNSPECIFIED.,.F.,
  .F.,(2,2),(0.,1.),.PIECEWISE_BEZIER_KNOTS.);
#1203 = CARTESIAN_POINT('',(315.91883092036,260.,0.));
#1204 = CARTESIAN_POINT('',(311.28357600474,260.,-14.26584774442));
#1205 = ORIENTED_EDGE('',*,*,#1206,.F.);
#1206 = EDGE_CURVE('',#1207,#1200,#1209,.T.);
#1207 = VERTEX_POINT('',#1208);
#1208 = CARTESIAN_POINT('',(311.28357600474,-260.,-14.26584774442));
#1209 = LINE('',#1210,#1211);
#1210 = CARTESIAN_POINT('',(311.28357600474,-260.,-14.26584774442));
#1211 = VECTOR('',#1212,1.);
#1212 = DIRECTION('',(0.,1.,0.));
#1213 = ORIENTED_EDGE('',*,*,#1214,.F.);
#1214 = EDGE_CURVE('',#1190,#1207,#1215,.T.);
#1215 = B_SPLINE_CURVE_WITH_KNOTS('',1,(#1216,#1217),.UNSPECIFIED.,.F.,
  .F.,(2,2),(0.,1.),.PIECEWISE_BEZIER_KNOTS.);
#1216 = CARTESIAN_POINT('',(315.91883092036,-260.,0.));
#1217 = CARTESIAN_POINT('',(311.28357600474,-260.,-14.26584774442));
#1218 = PLANE('',#1219);
#1219 = AXIS2_PLACEMENT_3D('',#1220,#1221,#1222);
#1220 = CARTESIAN_POINT('',(311.28357600474,-260.,-14.26584774442));
#1221 = DIRECTION('',(-0.951056516295,0.,0.309016994375));
#1222 = DIRECTION('',(0.,1.,0.));
#1223 = ADVANCED_FACE('',(#1224),#1248,.T.);
#1224 = FACE_BOUND('',#1225,.T.);
#1225 = EDGE_LOOP('',(#1226,#1234,#1241,#1247));
#1226 = ORIENTED_EDGE('',*,*,#1227,.T.);
#1227 = EDGE_CURVE('',#1192,#1228,#1230,.T.);
#1228 = VERTEX_POINT('',#1229);
#1229 = CARTESIAN_POINT('',(791.44708906794,325.,-154.5084971874));
#1230 = LINE('',#1231,#1232);
#1231 = CARTESIAN_POINT('',(315.91883092036,260.,0.));
#1232 = VECTOR('',#1233,1.);
#1233 = DIRECTION('',(0.943120536795,0.128915230255,-0.306438438326));
#1234 = ORIENTED_EDGE('',*,*,#1235,.T.);
#1235 = EDGE_CURVE('',#1228,#1236,#1238,.T.);
#1236 = VERTEX_POINT('',#1237);
#1237 = CARTESIAN_POINT('',(786.81183415232,325.,-168.7743449319));
#1238 = B_SPLINE_CURVE_WITH_KNOTS('',1,(#1239,#1240),.UNSPECIFIED.,.F.,
  .F.,(2,2),(0.,1.),.PIECEWISE_BEZIER_KNOTS.);
#1239 = CARTESIAN_POINT('',(791.44708906794,325.,-154.5084971874));
#1240 = CARTESIAN_POINT('',(786.81183415232,325.,-168.7743449319));
#1241 = ORIENTED_EDGE('',*,*,#1242,.F.);
#1242 = EDGE_CURVE('',#1200,#1236,#1243,.T.);
#1243 = LINE('',#1244,#1245);
#1244 = CARTESIAN_POINT('',(311.28357600474,260.,-14.26584774442));
#1245 = VECTOR('',#1246,1.);
#1246 = DIRECTION('',(0.943120536795,0.128915230255,-0.306438438326));
#1247 = ORIENTED_EDGE('',*,*,#1199,.F.);
#1248 = PLANE('',#1249);
#1249 = AXIS2_PLACEMENT_3D('',#1250,#1251,#1252);
#1250 = CARTESIAN_POINT('',(311.28357600474,260.,-14.26584774442));
#1251 = DIRECTION('',(-0.122605669783,0.991655617343,3.983699698244E-02)
  );
#1252 = DIRECTION('',(0.943120536795,0.128915230255,-0.306438438326));
#1253 = ADVANCED_FACE('',(#1254),#1278,.T.);
#1254 = FACE_BOUND('',#1255,.T.);
#1255 = EDGE_LOOP('',(#1256,#1264,#1271,#1277));
#1256 = ORIENTED_EDGE('',*,*,#1257,.T.);
#1257 = EDGE_CURVE('',#1228,#1258,#1260,.T.);
#1258 = VERTEX_POINT('',#1259);
#1259 = CARTESIAN_POINT('',(791.44708906794,-325.,-154.5084971874));
#1260 = LINE('',#1261,#1262);
#1261 = CARTESIAN_POINT('',(791.44708906794,325.,-154.5084971874));
#1262 = VECTOR('',#1263,1.);
#1263 = DIRECTION('',(0.,-1.,0.));
#1264 = ORIENTED_EDGE('',*,*,#1265,.T.);
#1265 = EDGE_CURVE('',#1258,#1266,#1268,.T.);
#1266 = VERTEX_POINT('',#1267);
#1267 = CARTESIAN_POINT('',(786.81183415232,-325.,-168.7743449319));
#1268 = B_SPLINE_CURVE_WITH_KNOTS('',1,(#1269,#1270),.UNSPECIFIED.,.F.,
  .F.,(2,2),(0.,1.),.PIECEWISE_BEZIER_KNOTS.);
#1269 = CARTESIAN_POINT('',(791.44708906794,-325.,-154.5084971874));
#1270 = CARTESIAN_POINT('',(786.81183415232,-325.,-168.7743449319));
#1271 = ORIENTED_EDGE('',*,*,#1272,.F.);
#1272 = EDGE_CURVE('',#1236,#1266,#1273,.T.);
#1273 = LINE('',#1274,#1275);
#1274 = CARTESIAN_POINT('',(786.81183415232,325.,-168.7743449319));
#1275 = VECTOR('',#1276,1.);
#1276 = DIRECTION('',(0.,-1.,0.));
#1277 = ORIENTED_EDGE('',*,*,#1235,.F.);
#1278 = PLANE('',#1279);
#1279 = AXIS2_PLACEMENT_3D('',#1280,#1281,#1282);
#1280 = CARTESIAN_POINT('',(786.81183415232,325.,-168.7743449319));
#1281 = DIRECTION('',(0.951056516295,0.,-0.309016994375));
#1282 = DIRECTION('',(0.,-1.,0.));
#1283 = ADVANCED_FACE('',(#1284),#1300,.T.);
#1284 = FACE_BOUND('',#1285,.T.);
#1285 = EDGE_LOOP('',(#1286,#1292,#1293,#1299));
#1286 = ORIENTED_EDGE('',*,*,#1287,.T.);
#1287 = EDGE_CURVE('',#1258,#1190,#1288,.T.);
#1288 = LINE('',#1289,#1290);
#1289 = CARTESIAN_POINT('',(791.44708906794,-325.,-154.5084971874));
#1290 = VECTOR('',#1291,1.);
#1291 = DIRECTION('',(-0.943120536795,0.128915230255,0.306438438326));
#1292 = ORIENTED_EDGE('',*,*,#1214,.T.);
#1293 = ORIENTED_EDGE('',*,*,#1294,.F.);
#1294 = EDGE_CURVE('',#1266,#1207,#1295,.T.);
#1295 = LINE('',#1296,#1297);
#1296 = CARTESIAN_POINT('',(786.81183415232,-325.,-168.7743449319));
#1297 = VECTOR('',#1298,1.);
#1298 = DIRECTION('',(-0.943120536795,0.128915230255,0.306438438326));
#1299 = ORIENTED_EDGE('',*,*,#1265,.F.);
#1300 = PLANE('',#1301);
#1301 = AXIS2_PLACEMENT_3D('',#1302,#1303,#1304);
#1302 = CARTESIAN_POINT('',(786.81183415232,-325.,-168.7743449319));
#1303 = DIRECTION('',(-0.122605669783,-0.991655617343,3.983699698244E-02
    ));
#1304 = DIRECTION('',(-0.943120536795,0.128915230255,0.306438438326));
#1305 = ADVANCED_FACE('',(#1306),#1312,.F.);
#1306 = FACE_BOUND('',#1307,.F.);
#1307 = EDGE_LOOP('',(#1308,#1309,#1310,#1311));
#1308 = ORIENTED_EDGE('',*,*,#1189,.T.);
#1309 = ORIENTED_EDGE('',*,*,#1227,.T.);
#1310 = ORIENTED_EDGE('',*,*,#1257,.T.);
#1311 = ORIENTED_EDGE('',*,*,#1287,.T.);
#1312 = PLANE('',#1313);
#1313 = AXIS2_PLACEMENT_3D('',#1314,#1315,#1316);
#1314 = CARTESIAN_POINT('',(315.91883092036,-260.,0.));
#1315 = DIRECTION('',(-0.309016994375,0.,-0.951056516295));
#1316 = DIRECTION('',(0.617921009453,0.760173100834,-0.200774706687));
#1317 = ADVANCED_FACE('',(#1318),#1324,.T.);
#1318 = FACE_BOUND('',#1319,.T.);
#1319 = EDGE_LOOP('',(#1320,#1321,#1322,#1323));
#1320 = ORIENTED_EDGE('',*,*,#1206,.T.);
#1321 = ORIENTED_EDGE('',*,*,#1242,.T.);
#1322 = ORIENTED_EDGE('',*,*,#1272,.T.);
#1323 = ORIENTED_EDGE('',*,*,#1294,.T.);
#1324 = PLANE('',#1325);
#1325 = AXIS2_PLACEMENT_3D('',#1326,#1327,#1328);
#1326 = CARTESIAN_POINT('',(311.28357600474,-260.,-14.26584774442));
#1327 = DIRECTION('',(-0.309016994375,3.313747200252E-17,-0.951056516295
    ));
#1328 = DIRECTION('',(0.617921009453,0.760173100834,-0.200774706687));
#1329 = MANIFOLD_SOLID_BREP('',#1330);
#1330 = CLOSED_SHELL('',(#1331,#1369,#1399,#1429,#1459,#1489,#1519,#1549
    ,#1571,#1587));
#1331 = ADVANCED_FACE('',(#1332),#1364,.F.);
#1332 = FACE_BOUND('',#1333,.F.);
#1333 = EDGE_LOOP('',(#1334,#1344,#1351,#1359));
#1334 = ORIENTED_EDGE('',*,*,#1335,.T.);
#1335 = EDGE_CURVE('',#1336,#1338,#1340,.T.);
#1336 = VERTEX_POINT('',#1337);
#1337 = CARTESIAN_POINT('',(482.84271247461,200.,367.9332757416));
#1338 = VERTEX_POINT('',#1339);
#1339 = CARTESIAN_POINT('',(200.,482.84271247461,367.9332757416));
#1340 = LINE('',#1341,#1342);
#1341 = CARTESIAN_POINT('',(482.84271247461,200.,367.9332757416));
#1342 = VECTOR('',#1343,1.);
#1343 = DIRECTION('',(-0.707106781187,0.707106781187,0.));
#1344 = ORIENTED_EDGE('',*,*,#1345,.T.);
#1345 = EDGE_CURVE('',#1338,#1346,#1348,.T.);
#1346 = VERTEX_POINT('',#1347);
#1347 = CARTESIAN_POINT('',(200.,482.84271247461,352.9332757416));
#1348 = B_SPLINE_CURVE_WITH_KNOTS('',1,(#1349,#1350),.UNSPECIFIED.,.F.,
  .F.,(2,2),(0.,1.),.PIECEWISE_BEZIER_KNOTS.);
#1349 = CARTESIAN_POINT('',(200.,482.84271247461,367.9332757416));
#1350 = CARTESIAN_POINT('',(200.,482.84271247461,352.9332757416));
#1351 = ORIENTED_EDGE('',*,*,#1352,.F.);
#1352 = EDGE_CURVE('',#1353,#1346,#1355,.T.);
#1353 = VERTEX_POINT('',#1354);
#1354 = CARTESIAN_POINT('',(482.84271247461,200.,352.9332757416));
#1355 = LINE('',#1356,#1357);
#1356 = CARTESIAN_POINT('',(482.84271247461,200.,352.9332757416));
#1357 = VECTOR('',#1358,1.);
#1358 = DIRECTION('',(-0.707106781187,0.707106781187,0.));
#1359 = ORIENTED_EDGE('',*,*,#1360,.F.);
#1360 = EDGE_CURVE('',#1336,#1353,#1361,.T.);
#1361 = B_SPLINE_CURVE_WITH_KNOTS('',1,(#1362,#1363),.UNSPECIFIED.,.F.,
  .F.,(2,2),(0.,1.),.PIECEWISE_BEZIER_KNOTS.);
#1362 = CARTESIAN_POINT('',(482.84271247461,200.,367.9332757416));
#1363 = CARTESIAN_POINT('',(482.84271247461,200.,352.9332757416));
#1364 = PLANE('',#1365);
#1365 = AXIS2_PLACEMENT_3D('',#1366,#1367,#1368);
#1366 = CARTESIAN_POINT('',(482.84271247461,200.,352.9332757416));
#1367 = DIRECTION('',(-0.707106781187,-0.707106781187,-0.));
#1368 = DIRECTION('',(-0.707106781187,0.707106781187,0.));
#1369 = ADVANCED_FACE('',(#1370),#1394,.F.);
#1370 = FACE_BOUND('',#1371,.F.);
#1371 = EDGE_LOOP('',(#1372,#1380,#1387,#1393));
#1372 = ORIENTED_EDGE('',*,*,#1373,.T.);
#1373 = EDGE_CURVE('',#1338,#1374,#1376,.T.);
#1374 = VERTEX_POINT('',#1375);
#1375 = CARTESIAN_POINT('',(-200.,482.84271247461,367.9332757416));
#1376 = LINE('',#1377,#1378);
#1377 = CARTESIAN_POINT('',(200.,482.84271247461,367.9332757416));
#1378 = VECTOR('',#1379,1.);
#1379 = DIRECTION('',(-1.,0.,0.));
#1380 = ORIENTED_EDGE('',*,*,#1381,.T.);
#1381 = EDGE_CURVE('',#1374,#1382,#1384,.T.);
#1382 = VERTEX_POINT('',#1383);
#1383 = CARTESIAN_POINT('',(-200.,482.84271247461,352.9332757416));
#1384 = B_SPLINE_CURVE_WITH_KNOTS('',1,(#1385,#1386),.UNSPECIFIED.,.F.,
  .F.,(2,2),(0.,1.),.PIECEWISE_BEZIER_KNOTS.);
#1385 = CARTESIAN_POINT('',(-200.,482.84271247461,367.9332757416));
#1386 = CARTESIAN_POINT('',(-200.,482.84271247461,352.9332757416));
#1387 = ORIENTED_EDGE('',*,*,#1388,.F.);
#1388 = EDGE_CURVE('',#1346,#1382,#1389,.T.);
#1389 = LINE('',#1390,#1391);
#1390 = CARTESIAN_POINT('',(200.,482.84271247461,352.9332757416));
#1391 = VECTOR('',#1392,1.);
#1392 = DIRECTION('',(-1.,0.,0.));
#1393 = ORIENTED_EDGE('',*,*,#1345,.F.);
#1394 = PLANE('',#1395);
#1395 = AXIS2_PLACEMENT_3D('',#1396,#1397,#1398);
#1396 = CARTESIAN_POINT('',(200.,482.84271247461,352.9332757416));
#1397 = DIRECTION('',(-0.,-1.,-0.));
#1398 = DIRECTION('',(-1.,0.,0.));
#1399 = ADVANCED_FACE('',(#1400),#1424,.F.);
#1400 = FACE_BOUND('',#1401,.F.);
#1401 = EDGE_LOOP('',(#1402,#1410,#1417,#1423));
#1402 = ORIENTED_EDGE('',*,*,#1403,.T.);
#1403 = EDGE_CURVE('',#1374,#1404,#1406,.T.);
#1404 = VERTEX_POINT('',#1405);
#1405 = CARTESIAN_POINT('',(-482.8427124746,200.,367.9332757416));
#1406 = LINE('',#1407,#1408);
#1407 = CARTESIAN_POINT('',(-200.,482.84271247461,367.9332757416));
#1408 = VECTOR('',#1409,1.);
#1409 = DIRECTION('',(-0.707106781187,-0.707106781187,0.));
#1410 = ORIENTED_EDGE('',*,*,#1411,.T.);
#1411 = EDGE_CURVE('',#1404,#1412,#1414,.T.);
#1412 = VERTEX_POINT('',#1413);
#1413 = CARTESIAN_POINT('',(-482.8427124746,200.,352.9332757416));
#1414 = B_SPLINE_CURVE_WITH_KNOTS('',1,(#1415,#1416),.UNSPECIFIED.,.F.,
  .F.,(2,2),(0.,1.),.PIECEWISE_BEZIER_KNOTS.);
#1415 = CARTESIAN_POINT('',(-482.8427124746,200.,367.9332757416));
#1416 = CARTESIAN_POINT('',(-482.8427124746,200.,352.9332757416));
#1417 = ORIENTED_EDGE('',*,*,#1418,.F.);
#1418 = EDGE_CURVE('',#1382,#1412,#1419,.T.);
#1419 = LINE('',#1420,#1421);
#1420 = CARTESIAN_POINT('',(-200.,482.84271247461,352.9332757416));
#1421 = VECTOR('',#1422,1.);
#1422 = DIRECTION('',(-0.707106781187,-0.707106781187,0.));
#1423 = ORIENTED_EDGE('',*,*,#1381,.F.);
#1424 = PLANE('',#1425);
#1425 = AXIS2_PLACEMENT_3D('',#1426,#1427,#1428);
#1426 = CARTESIAN_POINT('',(-200.,482.84271247461,352.9332757416));
#1427 = DIRECTION('',(0.707106781187,-0.707106781187,0.));
#1428 = DIRECTION('',(-0.707106781187,-0.707106781187,0.));
#1429 = ADVANCED_FACE('',(#1430),#1454,.F.);
#1430 = FACE_BOUND('',#1431,.F.);
#1431 = EDGE_LOOP('',(#1432,#1440,#1447,#1453));
#1432 = ORIENTED_EDGE('',*,*,#1433,.T.);
#1433 = EDGE_CURVE('',#1404,#1434,#1436,.T.);
#1434 = VERTEX_POINT('',#1435);
#1435 = CARTESIAN_POINT('',(-482.8427124746,-200.,367.9332757416));
#1436 = LINE('',#1437,#1438);
#1437 = CARTESIAN_POINT('',(-482.8427124746,200.,367.9332757416));
#1438 = VECTOR('',#1439,1.);
#1439 = DIRECTION('',(-1.42108547152E-16,-1.,0.));
#1440 = ORIENTED_EDGE('',*,*,#1441,.T.);
#1441 = EDGE_CURVE('',#1434,#1442,#1444,.T.);
#1442 = VERTEX_POINT('',#1443);
#1443 = CARTESIAN_POINT('',(-482.8427124746,-200.,352.9332757416));
#1444 = B_SPLINE_CURVE_WITH_KNOTS('',1,(#1445,#1446),.UNSPECIFIED.,.F.,
  .F.,(2,2),(0.,1.),.PIECEWISE_BEZIER_KNOTS.);
#1445 = CARTESIAN_POINT('',(-482.8427124746,-200.,367.9332757416));
#1446 = CARTESIAN_POINT('',(-482.8427124746,-200.,352.9332757416));
#1447 = ORIENTED_EDGE('',*,*,#1448,.F.);
#1448 = EDGE_CURVE('',#1412,#1442,#1449,.T.);
#1449 = LINE('',#1450,#1451);
#1450 = CARTESIAN_POINT('',(-482.8427124746,200.,352.9332757416));
#1451 = VECTOR('',#1452,1.);
#1452 = DIRECTION('',(-1.42108547152E-16,-1.,0.));
#1453 = ORIENTED_EDGE('',*,*,#1411,.F.);
#1454 = PLANE('',#1455);
#1455 = AXIS2_PLACEMENT_3D('',#1456,#1457,#1458);
#1456 = CARTESIAN_POINT('',(-482.8427124746,200.,352.9332757416));
#1457 = DIRECTION('',(1.,-1.42108547152E-16,0.));
#1458 = DIRECTION('',(-1.42108547152E-16,-1.,0.));
#1459 = ADVANCED_FACE('',(#1460),#1484,.F.);
#1460 = FACE_BOUND('',#1461,.F.);
#1461 = EDGE_LOOP('',(#1462,#1470,#1477,#1483));
#1462 = ORIENTED_EDGE('',*,*,#1463,.T.);
#1463 = EDGE_CURVE('',#1434,#1464,#1466,.T.);
#1464 = VERTEX_POINT('',#1465);
#1465 = CARTESIAN_POINT('',(-200.,-482.8427124746,367.9332757416));
#1466 = LINE('',#1467,#1468);
#1467 = CARTESIAN_POINT('',(-482.8427124746,-200.,367.9332757416));
#1468 = VECTOR('',#1469,1.);
#1469 = DIRECTION('',(0.707106781187,-0.707106781187,0.));
#1470 = ORIENTED_EDGE('',*,*,#1471,.T.);
#1471 = EDGE_CURVE('',#1464,#1472,#1474,.T.);
#1472 = VERTEX_POINT('',#1473);
#1473 = CARTESIAN_POINT('',(-200.,-482.8427124746,352.9332757416));
#1474 = B_SPLINE_CURVE_WITH_KNOTS('',1,(#1475,#1476),.UNSPECIFIED.,.F.,
  .F.,(2,2),(0.,1.),.PIECEWISE_BEZIER_KNOTS.);
#1475 = CARTESIAN_POINT('',(-200.,-482.8427124746,367.9332757416));
#1476 = CARTESIAN_POINT('',(-200.,-482.8427124746,352.9332757416));
#1477 = ORIENTED_EDGE('',*,*,#1478,.F.);
#1478 = EDGE_CURVE('',#1442,#1472,#1479,.T.);
#1479 = LINE('',#1480,#1481);
#1480 = CARTESIAN_POINT('',(-482.8427124746,-200.,352.9332757416));
#1481 = VECTOR('',#1482,1.);
#1482 = DIRECTION('',(0.707106781187,-0.707106781187,0.));
#1483 = ORIENTED_EDGE('',*,*,#1441,.F.);
#1484 = PLANE('',#1485);
#1485 = AXIS2_PLACEMENT_3D('',#1486,#1487,#1488);
#1486 = CARTESIAN_POINT('',(-482.8427124746,-200.,352.9332757416));
#1487 = DIRECTION('',(0.707106781187,0.707106781187,0.));
#1488 = DIRECTION('',(0.707106781187,-0.707106781187,0.));
#1489 = ADVANCED_FACE('',(#1490),#1514,.F.);
#1490 = FACE_BOUND('',#1491,.F.);
#1491 = EDGE_LOOP('',(#1492,#1500,#1507,#1513));
#1492 = ORIENTED_EDGE('',*,*,#1493,.T.);
#1493 = EDGE_CURVE('',#1464,#1494,#1496,.T.);
#1494 = VERTEX_POINT('',#1495);
#1495 = CARTESIAN_POINT('',(200.,-482.8427124746,367.9332757416));
#1496 = LINE('',#1497,#1498);
#1497 = CARTESIAN_POINT('',(-200.,-482.8427124746,367.9332757416));
#1498 = VECTOR('',#1499,1.);
#1499 = DIRECTION('',(1.,-1.42108547152E-16,0.));
#1500 = ORIENTED_EDGE('',*,*,#1501,.T.);
#1501 = EDGE_CURVE('',#1494,#1502,#1504,.T.);
#1502 = VERTEX_POINT('',#1503);
#1503 = CARTESIAN_POINT('',(200.,-482.8427124746,352.9332757416));
#1504 = B_SPLINE_CURVE_WITH_KNOTS('',1,(#1505,#1506),.UNSPECIFIED.,.F.,
  .F.,(2,2),(0.,1.),.PIECEWISE_BEZIER_KNOTS.);
#1505 = CARTESIAN_POINT('',(200.,-482.8427124746,367.9332757416));
#1506 = CARTESIAN_POINT('',(200.,-482.8427124746,352.9332757416));
#1507 = ORIENTED_EDGE('',*,*,#1508,.F.);
#1508 = EDGE_CURVE('',#1472,#1502,#1509,.T.);
#1509 = LINE('',#1510,#1511);
#1510 = CARTESIAN_POINT('',(-200.,-482.8427124746,352.9332757416));
#1511 = VECTOR('',#1512,1.);
#1512 = DIRECTION('',(1.,-1.42108547152E-16,0.));
#1513 = ORIENTED_EDGE('',*,*,#1471,.F.);
#1514 = PLANE('',#1515);
#1515 = AXIS2_PLACEMENT_3D('',#1516,#1517,#1518);
#1516 = CARTESIAN_POINT('',(-200.,-482.8427124746,352.9332757416));
#1517 = DIRECTION('',(1.42108547152E-16,1.,0.));
#1518 = DIRECTION('',(1.,-1.42108547152E-16,0.));
#1519 = ADVANCED_FACE('',(#1520),#1544,.F.);
#1520 = FACE_BOUND('',#1521,.F.);
#1521 = EDGE_LOOP('',(#1522,#1530,#1537,#1543));
#1522 = ORIENTED_EDGE('',*,*,#1523,.T.);
#1523 = EDGE_CURVE('',#1494,#1524,#1526,.T.);
#1524 = VERTEX_POINT('',#1525);
#1525 = CARTESIAN_POINT('',(482.84271247461,-200.,367.9332757416));
#1526 = LINE('',#1527,#1528);
#1527 = CARTESIAN_POINT('',(200.,-482.8427124746,367.9332757416));
#1528 = VECTOR('',#1529,1.);
#1529 = DIRECTION('',(0.707106781187,0.707106781187,0.));
#1530 = ORIENTED_EDGE('',*,*,#1531,.T.);
#1531 = EDGE_CURVE('',#1524,#1532,#1534,.T.);
#1532 = VERTEX_POINT('',#1533);
#1533 = CARTESIAN_POINT('',(482.84271247461,-200.,352.9332757416));
#1534 = B_SPLINE_CURVE_WITH_KNOTS('',1,(#1535,#1536),.UNSPECIFIED.,.F.,
  .F.,(2,2),(0.,1.),.PIECEWISE_BEZIER_KNOTS.);
#1535 = CARTESIAN_POINT('',(482.84271247461,-200.,367.9332757416));
#1536 = CARTESIAN_POINT('',(482.84271247461,-200.,352.9332757416));
#1537 = ORIENTED_EDGE('',*,*,#1538,.F.);
#1538 = EDGE_CURVE('',#1502,#1532,#1539,.T.);
#1539 = LINE('',#1540,#1541);
#1540 = CARTESIAN_POINT('',(200.,-482.8427124746,352.9332757416));
#1541 = VECTOR('',#1542,1.);
#1542 = DIRECTION('',(0.707106781187,0.707106781187,0.));
#1543 = ORIENTED_EDGE('',*,*,#1501,.F.);
#1544 = PLANE('',#1545);
#1545 = AXIS2_PLACEMENT_3D('',#1546,#1547,#1548);
#1546 = CARTESIAN_POINT('',(200.,-482.8427124746,352.9332757416));
#1547 = DIRECTION('',(-0.707106781187,0.707106781187,0.));
#1548 = DIRECTION('',(0.707106781187,0.707106781187,0.));
#1549 = ADVANCED_FACE('',(#1550),#1566,.F.);
#1550 = FACE_BOUND('',#1551,.F.);
#1551 = EDGE_LOOP('',(#1552,#1558,#1559,#1565));
#1552 = ORIENTED_EDGE('',*,*,#1553,.T.);
#1553 = EDGE_CURVE('',#1524,#1336,#1554,.T.);
#1554 = LINE('',#1555,#1556);
#1555 = CARTESIAN_POINT('',(482.84271247461,-200.,367.9332757416));
#1556 = VECTOR('',#1557,1.);
#1557 = DIRECTION('',(2.84217094304E-16,1.,0.));
#1558 = ORIENTED_EDGE('',*,*,#1360,.T.);
#1559 = ORIENTED_EDGE('',*,*,#1560,.F.);
#1560 = EDGE_CURVE('',#1532,#1353,#1561,.T.);
#1561 = LINE('',#1562,#1563);
#1562 = CARTESIAN_POINT('',(482.84271247461,-200.,352.9332757416));
#1563 = VECTOR('',#1564,1.);
#1564 = DIRECTION('',(2.84217094304E-16,1.,0.));
#1565 = ORIENTED_EDGE('',*,*,#1531,.F.);
#1566 = PLANE('',#1567);
#1567 = AXIS2_PLACEMENT_3D('',#1568,#1569,#1570);
#1568 = CARTESIAN_POINT('',(482.84271247461,-200.,352.9332757416));
#1569 = DIRECTION('',(-1.,2.84217094304E-16,0.));
#1570 = DIRECTION('',(2.84217094304E-16,1.,0.));
#1571 = ADVANCED_FACE('',(#1572),#1582,.F.);
#1572 = FACE_BOUND('',#1573,.T.);
#1573 = EDGE_LOOP('',(#1574,#1575,#1576,#1577,#1578,#1579,#1580,#1581));
#1574 = ORIENTED_EDGE('',*,*,#1335,.T.);
#1575 = ORIENTED_EDGE('',*,*,#1373,.T.);
#1576 = ORIENTED_EDGE('',*,*,#1403,.T.);
#1577 = ORIENTED_EDGE('',*,*,#1433,.T.);
#1578 = ORIENTED_EDGE('',*,*,#1463,.T.);
#1579 = ORIENTED_EDGE('',*,*,#1493,.T.);
#1580 = ORIENTED_EDGE('',*,*,#1523,.T.);
#1581 = ORIENTED_EDGE('',*,*,#1553,.T.);
#1582 = PLANE('',#1583);
#1583 = AXIS2_PLACEMENT_3D('',#1584,#1585,#1586);
#1584 = CARTESIAN_POINT('',(482.84271247461,200.,367.9332757416));
#1585 = DIRECTION('',(-0.,0.,-1.));
#1586 = DIRECTION('',(-0.923879532511,-0.382683432365,0.));
#1587 = ADVANCED_FACE('',(#1588),#1598,.T.);
#1588 = FACE_BOUND('',#1589,.F.);
#1589 = EDGE_LOOP('',(#1590,#1591,#1592,#1593,#1594,#1595,#1596,#1597));
#1590 = ORIENTED_EDGE('',*,*,#1352,.T.);
#1591 = ORIENTED_EDGE('',*,*,#1388,.T.);
#1592 = ORIENTED_EDGE('',*,*,#1418,.T.);
#1593 = ORIENTED_EDGE('',*,*,#1448,.T.);
#1594 = ORIENTED_EDGE('',*,*,#1478,.T.);
#1595 = ORIENTED_EDGE('',*,*,#1508,.T.);
#1596 = ORIENTED_EDGE('',*,*,#1538,.T.);
#1597 = ORIENTED_EDGE('',*,*,#1560,.T.);
#1598 = PLANE('',#1599);
#1599 = AXIS2_PLACEMENT_3D('',#1600,#1601,#1602);
#1600 = CARTESIAN_POINT('',(482.84271247461,200.,352.9332757416));
#1601 = DIRECTION('',(-0.,0.,-1.));
#1602 = DIRECTION('',(-0.923879532511,-0.382683432365,0.));
#1603 = ( GEOMETRIC_REPRESENTATION_CONTEXT(3) 
GLOBAL_UNCERTAINTY_ASSIGNED_CONTEXT((#1607)) 
GLOBAL_UNIT_ASSIGNED_CONTEXT((#1604,#1605,#1606)) REPRESENTATION_CONTEXT
('Context #1','3D Context with UNIT and UNCERTAINTY') );
#1604 = ( LENGTH_UNIT() NAMED_UNIT(*) SI_UNIT(.MILLI.,.METRE.) );
#1605 = ( NAMED_UNIT(*) PLANE_ANGLE_UNIT() SI_UNIT($,.RADIAN.) );
#1606 = ( NAMED_UNIT(*) SI_UNIT($,.STERADIAN.) SOLID_ANGLE_UNIT() );
#1607 = UNCERTAINTY_MEASURE_WITH_UNIT(LENGTH_MEASURE(1.E-07),#1604,
  'distance_accuracy_value','confusion accuracy');
#1608 = PRODUCT_RELATED_PRODUCT_CATEGORY('part',$,(#7));
ENDSEC;
END-ISO-10303-21;
