# Created by FreeCAD <https://www.freecad.org>
v 312.121338 135.000000 5.884645
v 312.121338 -135.000000 5.884645
v 482.842712 200.000000 367.933289
v 469.045227 200.000000 373.817932
v 469.045227 -200.000000 373.817932
v 482.842712 -200.000000 367.933289
v 325.918823 135.000000 0.000000
v 125.243698 316.162537 5.884645
v 135.000000 325.918823 0.000000
v 316.162537 125.243698 5.884645
v 200.000000 482.842712 367.933289
v 190.243698 473.086395 373.817932
v 473.086395 190.243698 373.817932
v -135.000000 312.121338 5.884645
v 135.000000 312.121338 5.884645
v -200.000000 482.842712 367.933289
v -200.000000 469.045227 373.817932
v 200.000000 469.045227 373.817932
v -135.000000 325.918823 0.000000
v -316.162537 125.243698 5.884645
v -125.243698 316.162537 5.884645
v -473.086395 190.243698 373.817932
v -190.243698 473.086395 373.817932
v -325.918823 135.000000 0.000000
v -312.121338 -135.000000 5.884645
v -325.918823 -135.000000 0.000000
v -312.121338 135.000000 5.884645
v -482.842712 -200.000000 367.933289
v -469.045227 -200.000000 373.817932
v -469.045227 200.000000 373.817932
v -482.842712 200.000000 367.933289
v -125.243698 -316.162537 5.884645
v -135.000000 -325.918823 0.000000
v -316.162537 -125.243698 5.884645
v -190.243698 -473.086395 373.817932
v -473.086395 -190.243698 373.817932
v 135.000000 -312.121338 5.884645
v 135.000000 -325.918823 0.000000
v -135.000000 -312.121338 5.884645
v 200.000000 -482.842712 367.933289
v 200.000000 -469.045227 373.817932
v -200.000000 -469.045227 373.817932
v -200.000000 -482.842712 367.933289
v 316.162537 -125.243698 5.884645
v 325.918823 -135.000000 0.000000
v 125.243698 -316.162537 5.884645
v 473.086395 -190.243698 373.817932
v 190.243698 -473.086395 373.817932
v 311.283569 260.000000 -14.265848
v 315.918823 -260.000000 0.000000
v 315.918823 260.000000 0.000000
v 311.283569 -260.000000 -14.265848
v 786.811829 325.000000 -168.774338
v 791.447083 325.000000 -154.508499
v 786.811829 -325.000000 -168.774338
v 791.447083 -325.000000 -154.508499
v 200.000000 482.842712 352.933289
v 482.842712 200.000000 352.933289
v -200.000000 482.842712 352.933289
v -482.842712 200.000000 352.933289
v -482.842712 -200.000000 352.933289
v -200.000000 -482.842712 352.933289
v 200.000000 -482.842712 352.933289
v 482.842712 -200.000000 352.933289
vn -0.392310 0.000000 -0.919833
vn -0.392310 0.000000 -0.919833
vn -0.062925 0.987053 -0.147538
vn -0.062925 0.987053 -0.147538
vn 0.392310 0.000000 0.919833
vn 0.392310 0.000000 0.919833
vn -0.062925 -0.987053 -0.147538
vn -0.062925 -0.987053 -0.147538
vn 0.919833 0.000000 -0.392310
vn 0.919833 0.000000 -0.392310
vn -0.919833 0.000000 0.392310
vn -0.919833 0.000000 0.392310
vn -0.277405 -0.277405 -0.919833
vn -0.277405 -0.277405 -0.919833
vn -0.742446 0.653457 -0.147538
vn -0.742447 0.653457 -0.147537
vn 0.277405 0.277405 0.919833
vn 0.277405 0.277405 0.919833
vn 0.653457 -0.742447 -0.147537
vn 0.653457 -0.742446 -0.147538
vn 0.650420 0.650420 -0.392310
vn 0.650420 0.650420 -0.392310
vn -0.650420 -0.650420 0.392310
vn -0.650420 -0.650420 0.392310
vn -0.000000 -0.392310 -0.919833
vn -0.000000 -0.392310 -0.919833
vn -0.987053 -0.062925 -0.147538
vn -0.987053 -0.062925 -0.147538
vn -0.000000 0.392310 0.919833
vn -0.000000 0.392310 0.919833
vn 0.987053 -0.062925 -0.147538
vn 0.987053 -0.062925 -0.147538
vn 0.000000 0.919833 -0.392310
vn 0.000000 0.919833 -0.392310
vn 0.000000 -0.919833 0.392310
vn 0.000000 -0.919833 0.392310
vn 0.277405 -0.277405 -0.919833
vn 0.277405 -0.277405 -0.919833
vn -0.653457 -0.742446 -0.147538
vn -0.653457 -0.742447 -0.147537
vn -0.277405 0.277405 0.919833
vn -0.277405 0.277405 0.919833
vn 0.742447 0.653457 -0.147537
vn 0.742446 0.653457 -0.147538
vn -0.650420 0.650420 -0.392310
vn -0.650420 0.650420 -0.392310
vn 0.650420 -0.650420 0.392310
vn 0.650420 -0.650420 0.392310
vn 0.392310 0.000000 -0.919833
vn 0.392310 0.000000 -0.919833
vn 0.062925 -0.987053 -0.147538
vn 0.062925 -0.987053 -0.147538
vn -0.392310 0.000000 0.919833
vn -0.392310 0.000000 0.919833
vn 0.062925 0.987053 -0.147538
vn 0.062925 0.987053 -0.147538
vn -0.919833 0.000000 -0.392310
vn -0.919833 -0.000000 -0.392310
vn 0.919833 0.000000 0.392310
vn 0.919833 0.000000 0.392310
vn 0.277405 0.277405 -0.919833
vn 0.277405 0.277405 -0.919833
vn 0.742447 -0.653456 -0.147537
vn 0.742446 -0.653457 -0.147538
vn -0.277405 -0.277405 0.919833
vn -0.277405 -0.277405 0.919833
vn -0.653458 0.742446 -0.147538
vn -0.653457 0.742447 -0.147537
vn -0.650420 -0.650420 -0.392310
vn -0.650420 -0.650420 -0.392310
vn 0.650420 0.650420 0.392310
vn 0.650420 0.650420 0.392310
vn 0.000000 0.392310 -0.919833
vn 0.000000 0.392310 -0.919833
vn 0.987053 0.062925 -0.147538
vn 0.987053 0.062925 -0.147538
vn 0.000000 -0.392310 0.919833
vn 0.000000 -0.392310 0.919833
vn -0.987053 0.062925 -0.147538
vn -0.987053 0.062925 -0.147538
vn 0.000000 -0.919833 -0.392310
vn 0.000000 -0.919833 -0.392310
vn -0.000000 0.919833 0.392310
vn 0.000000 0.919833 0.392310
vn -0.277405 0.277405 -0.919833
vn -0.277405 0.277405 -0.919833
vn 0.653457 0.742446 -0.147538
vn 0.653457 0.742447 -0.147537
vn 0.277405 -0.277405 0.919833
vn 0.277405 -0.277405 0.919833
vn -0.742447 -0.653457 -0.147537
vn -0.742446 -0.653457 -0.147538
vn 0.650420 -0.650420 -0.392310
vn 0.650420 -0.650420 -0.392310
vn -0.650420 0.650420 0.392310
vn -0.650420 0.650420 0.392310
vn -0.951056 0.000000 0.309017
vn -0.951056 0.000000 0.309017
vn -0.122606 0.991656 0.039837
vn -0.122606 0.991656 0.039837
vn 0.951056 0.000000 -0.309017
vn 0.951056 0.000000 -0.309017
vn -0.122606 -0.991656 0.039837
vn -0.122606 -0.991656 0.039837
vn 0.309017 -0.000000 0.951056
vn 0.309017 -0.000000 0.951056
vn -0.309017 0.000000 -0.951057
vn -0.309017 -0.000000 -0.951057
vn 0.707107 0.707107 0.000000
vn 0.707107 0.707107 -0.000000
vn 0.000000 1.000000 0.000000
vn 0.000000 1.000000 -0.000000
vn -0.707107 0.707107 0.000000
vn -0.707107 0.707107 0.000000
vn -1.000000 -0.000000 0.000000
vn -1.000000 0.000000 0.000000
vn -0.707107 -0.707107 0.000000
vn -0.707107 -0.707107 0.000000
vn 0.000000 -1.000000 0.000000
vn 0.000000 -1.000000 0.000000
vn 0.707107 -0.707107 0.000000
vn 0.707107 -0.707107 0.000000
vn 1.000000 0.000000 0.000000
vn 1.000000 0.000000 0.000000
vn 0.000000 0.000000 1.000000
vn 0.000000 0.000000 1.000000
vn 0.000000 0.000000 1.000000
vn 0.000000 0.000000 1.000000
vn 0.000000 0.000000 1.000000
vn 0.000000 0.000000 1.000000
vn 0.000000 0.000000 -1.000000
vn 0.000000 0.000000 -1.000000
vn 0.000000 0.000000 -1.000000
vn 0.000000 0.000000 -1.000000
vn 0.000000 0.000000 -1.000000
vn 0.000000 0.000000 -1.000000
f 45//1 1//1 7//1
f 2//2 1//2 45//2
f 1//3 3//3 7//3
f 1//4 4//4 3//4
f 3//5 5//5 6//5
f 4//6 5//6 3//6
f 5//7 45//7 6//7
f 5//8 2//8 45//8
f 6//9 45//9 7//9
f 6//10 7//10 3//10
f 2//11 5//11 1//11
f 1//12 5//12 4//12
f 7//13 8//13 9//13
f 10//14 8//14 7//14
f 8//15 11//15 9//15
f 8//16 12//16 11//16
f 11//17 13//17 3//17
f 12//18 13//18 11//18
f 13//19 7//19 3//19
f 13//20 10//20 7//20
f 3//21 7//21 9//21
f 3//22 9//22 11//22
f 10//23 13//23 8//23
f 8//24 13//24 12//24
f 9//25 14//25 19//25
f 15//26 14//26 9//26
f 14//27 16//27 19//27
f 14//28 17//28 16//28
f 16//29 18//29 11//29
f 17//30 18//30 16//30
f 18//31 9//31 11//31
f 18//32 15//32 9//32
f 11//33 9//33 19//33
f 11//34 19//34 16//34
f 15//35 18//35 14//35
f 14//36 18//36 17//36
f 19//37 20//37 24//37
f 21//38 20//38 19//38
f 20//39 31//39 24//39
f 20//40 22//40 31//40
f 31//41 23//41 16//41
f 22//42 23//42 31//42
f 23//43 19//43 16//43
f 23//44 21//44 19//44
f 16//45 19//45 24//45
f 16//46 24//46 31//46
f 21//47 23//47 20//47
f 20//48 23//48 22//48
f 24//49 25//49 26//49
f 27//50 25//50 24//50
f 25//51 28//51 26//51
f 25//52 29//52 28//52
f 28//53 30//53 31//53
f 29//54 30//54 28//54
f 30//55 24//55 31//55
f 30//56 27//56 24//56
f 31//57 24//57 26//57
f 31//58 26//58 28//58
f 27//59 30//59 25//59
f 25//60 30//60 29//60
f 26//61 32//61 33//61
f 34//62 32//62 26//62
f 33//63 35//63 43//63
f 32//64 35//64 33//64
f 43//65 36//65 28//65
f 35//66 36//66 43//66
f 28//67 34//67 26//67
f 36//68 34//68 28//68
f 28//69 26//69 33//69
f 28//70 33//70 43//70
f 34//71 36//71 32//71
f 32//72 36//72 35//72
f 33//73 37//73 38//73
f 39//74 37//74 33//74
f 37//75 40//75 38//75
f 37//76 41//76 40//76
f 40//77 42//77 43//77
f 41//78 42//78 40//78
f 42//79 33//79 43//79
f 42//80 39//80 33//80
f 43//81 33//81 38//81
f 43//82 38//82 40//82
f 39//83 42//83 37//83
f 37//84 42//84 41//84
f 38//85 44//85 45//85
f 46//86 44//86 38//86
f 44//87 6//87 45//87
f 44//88 47//88 6//88
f 6//89 48//89 40//89
f 47//90 48//90 6//90
f 48//91 38//91 40//91
f 48//92 46//92 38//92
f 40//93 38//93 45//93
f 40//94 45//94 6//94
f 46//95 48//95 44//95
f 44//96 48//96 47//96
f 49//97 50//97 51//97
f 49//98 52//98 50//98
f 53//99 51//99 54//99
f 53//100 49//100 51//100
f 55//101 54//101 56//101
f 55//102 53//102 54//102
f 52//103 56//103 50//103
f 52//104 55//104 56//104
f 50//105 54//105 51//105
f 56//106 54//106 50//106
f 53//107 52//107 49//107
f 53//108 55//108 52//108
f 3//109 57//109 11//109
f 58//110 57//110 3//110
f 11//111 59//111 16//111
f 57//112 59//112 11//112
f 16//113 60//113 31//113
f 59//114 60//114 16//114
f 31//115 61//115 28//115
f 60//116 61//116 31//116
f 28//117 62//117 43//117
f 61//118 62//118 28//118
f 43//119 63//119 40//119
f 62//120 63//120 43//120
f 40//121 64//121 6//121
f 63//122 64//122 40//122
f 64//123 3//123 6//123
f 64//124 58//124 3//124
f 3//125 40//125 6//125
f 11//126 16//126 3//126
f 3//127 16//127 40//127
f 40//128 31//128 43//128
f 43//129 31//129 28//129
f 16//130 31//130 40//130
f 63//131 58//131 64//131
f 59//132 57//132 58//132
f 59//133 58//133 63//133
f 60//134 63//134 62//134
f 60//135 62//135 61//135
f 60//136 59//136 63//136
