ISO-10303-21;
HEADER;
FILE_DESCRIPTION(('FreeCAD Model'),'2;1');
FILE_NAME('Open CASCADE Shape Model','2026-10-06T14:31:26',('FreeCAD'),(
    'FreeCAD'),'Open CASCADE STEP processor 7.8','FreeCAD','Unknown');
FILE_SCHEMA(('AUTOMOTIVE_DESIGN { 1 0 10303 214 1 1 1 1 }'));
ENDSEC;
DATA;
#1 = APPLICATION_PROTOCOL_DEFINITION('international standard',
  'automotive_design',2000,#2);
#2 = APPLICATION_CONTEXT(
  'core data for automotive mechanical design processes');
#3 = SHAPE_DEFINITION_REPRESENTATION(#4,#10);
#4 = PRODUCT_DEFINITION_SHAPE('','',#5);
#5 = PRODUCT_DEFINITION('design','',#6,#9);
#6 = PRODUCT_DEFINITION_FORMATION('','',#7);
#7 = PRODUCT('Open CASCADE STEP translator 7.8 1',
  'Open CASCADE STEP translator 7.8 1','',(#8));
#8 = PRODUCT_CONTEXT('',#2,'mechanical');
#9 = PRODUCT_DEFINITION_CONTEXT('part definition',#2,'design');
#10 = ADVANCED_BREP_SHAPE_REPRESENTATION('',(#11,#15),#2285);
#11 = AXIS2_PLACEMENT_3D('',#12,#13,#14);
#12 = CARTESIAN_POINT('',(0.,0.,0.));
#13 = DIRECTION('',(0.,0.,1.));
#14 = DIRECTION('',(1.,0.,-0.));
#15 = MANIFOLD_SOLID_BREP('',#16);
#16 = CLOSED_SHELL('',(#17,#50,#75,#84,#104,#129,#149,#237,#301,#326,
    #344,#383,#407,#432,#464,#481,#650,#683,#709,#794,#819,#893,#927,
    #945,#956,#967,#1000,#1092,#1117,#1157,#1175,#1193,#1208,#1240,#1257
    ,#1274,#1286,#1297,#1320,#1353,#1376,#1409,#1432,#1465,#1488,#1504,
    #1535,#1568,#1599,#1615,#1631,#1655,#1671,#1687,#1718,#1734,#1750,
    #1766,#1790,#1801,#1824,#1835,#1858,#1925,#1941,#1957,#1981,#2005,
    #2016,#2040,#2064,#2075,#2099,#2115,#2131,#2154,#2177,#2188,#2199,
    #2220,#2231,#2252,#2263,#2274));
#17 = ADVANCED_FACE('',(#18),#45,.T.);
#18 = FACE_BOUND('',#19,.T.);
#19 = EDGE_LOOP('',(#20,#29,#37,#44));
#20 = ORIENTED_EDGE('',*,*,#21,.F.);
#21 = EDGE_CURVE('',#22,#22,#24,.T.);
#22 = VERTEX_POINT('',#23);
#23 = CARTESIAN_POINT('',(18.,-4.40872847693E-15,2.5));
#24 = CIRCLE('',#25,18.);
#25 = AXIS2_PLACEMENT_3D('',#26,#27,#28);
#26 = CARTESIAN_POINT('',(0.,0.,2.5));
#27 = DIRECTION('',(0.,0.,1.));
#28 = DIRECTION('',(1.,0.,-0.));
#29 = ORIENTED_EDGE('',*,*,#30,.F.);
#30 = EDGE_CURVE('',#31,#22,#33,.T.);
#31 = VERTEX_POINT('',#32);
#32 = CARTESIAN_POINT('',(18.,-4.40872847693E-15,0.));
#33 = LINE('',#34,#35);
#34 = CARTESIAN_POINT('',(18.,-4.40872847693E-15,0.));
#35 = VECTOR('',#36,1.);
#36 = DIRECTION('',(0.,0.,1.));
#37 = ORIENTED_EDGE('',*,*,#38,.T.);
#38 = EDGE_CURVE('',#31,#31,#39,.T.);
#39 = CIRCLE('',#40,18.);
#40 = AXIS2_PLACEMENT_3D('',#41,#42,#43);
#41 = CARTESIAN_POINT('',(0.,0.,0.));
#42 = DIRECTION('',(0.,0.,1.));
#43 = DIRECTION('',(1.,0.,-0.));
#44 = ORIENTED_EDGE('',*,*,#30,.T.);
#45 = CYLINDRICAL_SURFACE('',#46,18.);
#46 = AXIS2_PLACEMENT_3D('',#47,#48,#49);
#47 = CARTESIAN_POINT('',(0.,0.,0.));
#48 = DIRECTION('',(0.,0.,1.));
#49 = DIRECTION('',(1.,0.,-0.));
#50 = ADVANCED_FACE('',(#51),#70,.T.);
#51 = FACE_BOUND('',#52,.T.);
#52 = EDGE_LOOP('',(#53,#62,#68,#69));
#53 = ORIENTED_EDGE('',*,*,#54,.F.);
#54 = EDGE_CURVE('',#55,#55,#57,.T.);
#55 = VERTEX_POINT('',#56);
#56 = CARTESIAN_POINT('',(10.,-2.449293598295E-15,4.));
#57 = CIRCLE('',#58,10.);
#58 = AXIS2_PLACEMENT_3D('',#59,#60,#61);
#59 = CARTESIAN_POINT('',(0.,0.,4.));
#60 = DIRECTION('',(0.,0.,1.));
#61 = DIRECTION('',(1.,0.,-0.));
#62 = ORIENTED_EDGE('',*,*,#63,.F.);
#63 = EDGE_CURVE('',#22,#55,#64,.T.);
#64 = LINE('',#65,#66);
#65 = CARTESIAN_POINT('',(18.,-4.40872847693E-15,2.5));
#66 = VECTOR('',#67,1.);
#67 = DIRECTION('',(-0.982872186934,2.4073425554E-16,0.18428853505));
#68 = ORIENTED_EDGE('',*,*,#21,.T.);
#69 = ORIENTED_EDGE('',*,*,#63,.T.);
#70 = CONICAL_SURFACE('',#71,18.,1.385448376799);
#71 = AXIS2_PLACEMENT_3D('',#72,#73,#74);
#72 = CARTESIAN_POINT('',(0.,0.,2.5));
#73 = DIRECTION('',(-0.,-0.,-1.));
#74 = DIRECTION('',(1.,0.,-0.));
#75 = ADVANCED_FACE('',(#76),#79,.F.);
#76 = FACE_BOUND('',#77,.T.);
#77 = EDGE_LOOP('',(#78));
#78 = ORIENTED_EDGE('',*,*,#38,.F.);
#79 = PLANE('',#80);
#80 = AXIS2_PLACEMENT_3D('',#81,#82,#83);
#81 = CARTESIAN_POINT('',(0.,0.,0.));
#82 = DIRECTION('',(0.,0.,1.));
#83 = DIRECTION('',(1.,0.,-0.));
#84 = ADVANCED_FACE('',(#85,#88),#99,.T.);
#85 = FACE_BOUND('',#86,.T.);
#86 = EDGE_LOOP('',(#87));
#87 = ORIENTED_EDGE('',*,*,#54,.T.);
#88 = FACE_BOUND('',#89,.T.);
#89 = EDGE_LOOP('',(#90));
#90 = ORIENTED_EDGE('',*,*,#91,.F.);
#91 = EDGE_CURVE('',#92,#92,#94,.T.);
#92 = VERTEX_POINT('',#93);
#93 = CARTESIAN_POINT('',(2.8,-6.858022075225E-16,4.));
#94 = CIRCLE('',#95,2.8);
#95 = AXIS2_PLACEMENT_3D('',#96,#97,#98);
#96 = CARTESIAN_POINT('',(0.,0.,4.));
#97 = DIRECTION('',(0.,0.,1.));
#98 = DIRECTION('',(1.,0.,-0.));
#99 = PLANE('',#100);
#100 = AXIS2_PLACEMENT_3D('',#101,#102,#103);
#101 = CARTESIAN_POINT('',(0.,0.,4.));
#102 = DIRECTION('',(0.,0.,1.));
#103 = DIRECTION('',(1.,0.,-0.));
#104 = ADVANCED_FACE('',(#105),#124,.T.);
#105 = FACE_BOUND('',#106,.T.);
#106 = EDGE_LOOP('',(#107,#116,#122,#123));
#107 = ORIENTED_EDGE('',*,*,#108,.F.);
#108 = EDGE_CURVE('',#109,#109,#111,.T.);
#109 = VERTEX_POINT('',#110);
#110 = CARTESIAN_POINT('',(2.8,-6.858022075225E-16,41.5));
#111 = CIRCLE('',#112,2.8);
#112 = AXIS2_PLACEMENT_3D('',#113,#114,#115);
#113 = CARTESIAN_POINT('',(0.,0.,41.5));
#114 = DIRECTION('',(0.,0.,1.));
#115 = DIRECTION('',(1.,0.,-0.));
#116 = ORIENTED_EDGE('',*,*,#117,.F.);
#117 = EDGE_CURVE('',#92,#109,#118,.T.);
#118 = LINE('',#119,#120);
#119 = CARTESIAN_POINT('',(2.8,-6.858022075225E-16,3.5));
#120 = VECTOR('',#121,1.);
#121 = DIRECTION('',(0.,0.,1.));
#122 = ORIENTED_EDGE('',*,*,#91,.T.);
#123 = ORIENTED_EDGE('',*,*,#117,.T.);
#124 = CYLINDRICAL_SURFACE('',#125,2.8);
#125 = AXIS2_PLACEMENT_3D('',#126,#127,#128);
#126 = CARTESIAN_POINT('',(0.,0.,3.5));
#127 = DIRECTION('',(0.,0.,1.));
#128 = DIRECTION('',(1.,0.,-0.));
#129 = ADVANCED_FACE('',(#130,#141),#144,.F.);
#130 = FACE_BOUND('',#131,.F.);
#131 = EDGE_LOOP('',(#132));
#132 = ORIENTED_EDGE('',*,*,#133,.T.);
#133 = EDGE_CURVE('',#134,#134,#136,.T.);
#134 = VERTEX_POINT('',#135);
#135 = CARTESIAN_POINT('',(4.2,-1.028703311284E-15,41.5));
#136 = CIRCLE('',#137,4.2);
#137 = AXIS2_PLACEMENT_3D('',#138,#139,#140);
#138 = CARTESIAN_POINT('',(0.,0.,41.5));
#139 = DIRECTION('',(0.,0.,1.));
#140 = DIRECTION('',(1.,0.,-0.));
#141 = FACE_BOUND('',#142,.F.);
#142 = EDGE_LOOP('',(#143));
#143 = ORIENTED_EDGE('',*,*,#108,.F.);
#144 = PLANE('',#145);
#145 = AXIS2_PLACEMENT_3D('',#146,#147,#148);
#146 = CARTESIAN_POINT('',(0.,0.,41.5));
#147 = DIRECTION('',(0.,0.,1.));
#148 = DIRECTION('',(1.,0.,-0.));
#149 = ADVANCED_FACE('',(#150),#232,.T.);
#150 = FACE_BOUND('',#151,.T.);
#151 = EDGE_LOOP('',(#152,#163,#169,#170,#171,#180,#207));
#152 = ORIENTED_EDGE('',*,*,#153,.F.);
#153 = EDGE_CURVE('',#154,#156,#158,.T.);
#154 = VERTEX_POINT('',#155);
#155 = CARTESIAN_POINT('',(4.2,-1.028703311284E-15,44.5));
#156 = VERTEX_POINT('',#157);
#157 = CARTESIAN_POINT('',(-0.99498743667,-4.080441152838,
    44.500000000086));
#158 = CIRCLE('',#159,4.2);
#159 = AXIS2_PLACEMENT_3D('',#160,#161,#162);
#160 = CARTESIAN_POINT('',(0.,0.,44.5));
#161 = DIRECTION('',(0.,0.,1.));
#162 = DIRECTION('',(1.,0.,-0.));
#163 = ORIENTED_EDGE('',*,*,#164,.F.);
#164 = EDGE_CURVE('',#134,#154,#165,.T.);
#165 = LINE('',#166,#167);
#166 = CARTESIAN_POINT('',(4.2,-1.028703311284E-15,41.5));
#167 = VECTOR('',#168,1.);
#168 = DIRECTION('',(0.,0.,1.));
#169 = ORIENTED_EDGE('',*,*,#133,.T.);
#170 = ORIENTED_EDGE('',*,*,#164,.T.);
#171 = ORIENTED_EDGE('',*,*,#172,.F.);
#172 = EDGE_CURVE('',#173,#154,#175,.T.);
#173 = VERTEX_POINT('',#174);
#174 = CARTESIAN_POINT('',(0.994987436798,-4.080441152776,
    44.500000000061));
#175 = CIRCLE('',#176,4.2);
#176 = AXIS2_PLACEMENT_3D('',#177,#178,#179);
#177 = CARTESIAN_POINT('',(0.,0.,44.5));
#178 = DIRECTION('',(0.,0.,1.));
#179 = DIRECTION('',(1.,0.,-0.));
#180 = ORIENTED_EDGE('',*,*,#181,.F.);
#181 = EDGE_CURVE('',#182,#173,#184,.T.);
#182 = VERTEX_POINT('',#183);
#183 = CARTESIAN_POINT('',(-4.40872847693E-16,-4.2,44.2));
#184 = B_SPLINE_CURVE_WITH_KNOTS('',6,(#185,#186,#187,#188,#189,#190,
    #191,#192,#193,#194,#195,#196,#197,#198,#199,#200,#201,#202,#203,
    #204,#205,#206),.UNSPECIFIED.,.F.,.F.,(7,5,5,5,7),(0.,0.331209585667
    ,0.477596513218,0.941726804584,1.),.UNSPECIFIED.);
#185 = CARTESIAN_POINT('',(-6.062001655779E-16,-4.2,44.2));
#186 = CARTESIAN_POINT('',(0.147484087796,-4.2,44.2));
#187 = CARTESIAN_POINT('',(0.293817166462,-4.193785226368,
    44.214501077446));
#188 = CARTESIAN_POINT('',(0.436593460555,-4.181537857407,
    44.243078592523));
#189 = CARTESIAN_POINT('',(0.573492401234,-4.164043224115,
    44.284613714168));
#190 = CARTESIAN_POINT('',(0.70243762715,-4.142630749011,44.337299632398
    ));
#191 = CARTESIAN_POINT('',(0.874518333697,-4.108297744484,
    44.425601024692));
#192 = CARTESIAN_POINT('',(0.925560676212,-4.097271165603,
    44.454426277227));
#193 = CARTESIAN_POINT('',(0.974874826895,-4.085838908399,
    44.484879867636));
#194 = CARTESIAN_POINT('',(1.022441257896,-4.074096090384,44.51683656062
    ));
#195 = CARTESIAN_POINT('',(1.068246937422,-4.06213417953,44.550177327846
    ));
#196 = CARTESIAN_POINT('',(1.251910228588,-4.011693713145,
    44.694527452745));
#197 = CARTESIAN_POINT('',(1.373895370545,-3.971979972992,
    44.817142844492));
#198 = CARTESIAN_POINT('',(1.478489419163,-3.933510558475,
    44.949497230419));
#199 = CARTESIAN_POINT('',(1.566157634628,-3.89837869726,45.089375783446
    ));
#200 = CARTESIAN_POINT('',(1.637277044042,-3.868189203459,
    45.235177548803));
#201 = CARTESIAN_POINT('',(1.698776998017,-3.841121306358,
    45.404549979871));
#202 = CARTESIAN_POINT('',(1.705376059708,-3.838199331902,
    45.423513123158));
#203 = CARTESIAN_POINT('',(1.711714045807,-3.835377170103,
    45.442542991049));
#204 = CARTESIAN_POINT('',(1.717790999294,-3.832657104654,
    45.461636353992));
#205 = CARTESIAN_POINT('',(1.723606931094,-3.830041292416,
    45.480789973071));
#206 = CARTESIAN_POINT('',(1.729161820073,-3.827531763421,45.5000006));
#207 = ORIENTED_EDGE('',*,*,#208,.F.);
#208 = EDGE_CURVE('',#156,#182,#209,.T.);
#209 = B_SPLINE_CURVE_WITH_KNOTS('',6,(#210,#211,#212,#213,#214,#215,
    #216,#217,#218,#219,#220,#221,#222,#223,#224,#225,#226,#227,#228,
    #229,#230,#231),.UNSPECIFIED.,.F.,.F.,(7,5,5,5,7),(0.,
    5.73844739778E-02,0.519273022623,0.668848795563,1.),.UNSPECIFIED.);
#210 = CARTESIAN_POINT('',(-1.729161820073,-3.827531763421,45.5000006));
#211 = CARTESIAN_POINT('',(-1.723691564509,-3.830003057627,
    45.481082663164));
#212 = CARTESIAN_POINT('',(-1.717968160144,-3.832577420997,
    45.462220010672));
#213 = CARTESIAN_POINT('',(-1.711991626917,-3.835252915052,
    45.443415744304));
#214 = CARTESIAN_POINT('',(-1.705761954786,-3.838027481907,
    45.424672957149));
#215 = CARTESIAN_POINT('',(-1.699279103733,-3.840898944281,
    45.405994733605));
#216 = CARTESIAN_POINT('',(-1.638324027342,-3.867738879591,
    45.237587259355));
#217 = CARTESIAN_POINT('',(-1.567783508009,-3.897704124514,
    45.092409965243));
#218 = CARTESIAN_POINT('',(-1.480854521266,-3.932581978449,
    44.953080887589));
#219 = CARTESIAN_POINT('',(-1.377168853452,-3.97079433384,
    44.821175054557));
#220 = CARTESIAN_POINT('',(-1.256270383932,-4.010285298938,
    44.698866211796));
#221 = CARTESIAN_POINT('',(-1.073103124412,-4.060863252216,
    44.553722753889));
#222 = CARTESIAN_POINT('',(-1.02645139979,-4.073104746527,
    44.519535386619));
#223 = CARTESIAN_POINT('',(-0.977960958168,-4.085123428865,
    44.486785531372));
#224 = CARTESIAN_POINT('',(-0.927645103688,-4.096821986337,
    44.455599600339));
#225 = CARTESIAN_POINT('',(-0.875524159829,-4.10809908022,
    44.426110857688));
#226 = CARTESIAN_POINT('',(-0.702298936253,-4.142653950135,
    44.337242431523));
#227 = CARTESIAN_POINT('',(-0.57337874154,-4.164057392137,
    44.284580349583));
#228 = CARTESIAN_POINT('',(-0.436513949648,-4.181543835089,
    44.243064652963));
#229 = CARTESIAN_POINT('',(-0.293773212504,-4.193786492168,
    44.214498120385));
#230 = CARTESIAN_POINT('',(-0.147469051892,-4.2,44.2));
#231 = CARTESIAN_POINT('',(-6.661338147751E-16,-4.2,44.2));
#232 = CYLINDRICAL_SURFACE('',#233,4.2);
#233 = AXIS2_PLACEMENT_3D('',#234,#235,#236);
#234 = CARTESIAN_POINT('',(0.,0.,41.5));
#235 = DIRECTION('',(0.,0.,1.));
#236 = DIRECTION('',(1.,0.,-0.));
#237 = ADVANCED_FACE('',(#238),#296,.F.);
#238 = FACE_BOUND('',#239,.F.);
#239 = EDGE_LOOP('',(#240,#250,#258,#266,#272,#273,#274,#282,#290));
#240 = ORIENTED_EDGE('',*,*,#241,.F.);
#241 = EDGE_CURVE('',#242,#244,#246,.T.);
#242 = VERTEX_POINT('',#243);
#243 = CARTESIAN_POINT('',(-6.,8.,44.5));
#244 = VERTEX_POINT('',#245);
#245 = CARTESIAN_POINT('',(6.,8.,44.5));
#246 = LINE('',#247,#248);
#247 = CARTESIAN_POINT('',(-6.,8.,44.5));
#248 = VECTOR('',#249,1.);
#249 = DIRECTION('',(1.,0.,-0.));
#250 = ORIENTED_EDGE('',*,*,#251,.F.);
#251 = EDGE_CURVE('',#252,#242,#254,.T.);
#252 = VERTEX_POINT('',#253);
#253 = CARTESIAN_POINT('',(-6.,-8.,44.5));
#254 = LINE('',#255,#256);
#255 = CARTESIAN_POINT('',(-6.,-8.,44.5));
#256 = VECTOR('',#257,1.);
#257 = DIRECTION('',(-0.,1.,0.));
#258 = ORIENTED_EDGE('',*,*,#259,.T.);
#259 = EDGE_CURVE('',#252,#260,#262,.T.);
#260 = VERTEX_POINT('',#261);
#261 = CARTESIAN_POINT('',(-0.994987437107,-8.,44.5));
#262 = LINE('',#263,#264);
#263 = CARTESIAN_POINT('',(-6.,-8.,44.5));
#264 = VECTOR('',#265,1.);
#265 = DIRECTION('',(1.,0.,-0.));
#266 = ORIENTED_EDGE('',*,*,#267,.F.);
#267 = EDGE_CURVE('',#156,#260,#268,.T.);
#268 = LINE('',#269,#270);
#269 = CARTESIAN_POINT('',(-0.994987437107,0.,44.5));
#270 = VECTOR('',#271,1.);
#271 = DIRECTION('',(0.,-1.,0.));
#272 = ORIENTED_EDGE('',*,*,#153,.F.);
#273 = ORIENTED_EDGE('',*,*,#172,.F.);
#274 = ORIENTED_EDGE('',*,*,#275,.T.);
#275 = EDGE_CURVE('',#173,#276,#278,.T.);
#276 = VERTEX_POINT('',#277);
#277 = CARTESIAN_POINT('',(0.994987437107,-8.,44.5));
#278 = LINE('',#279,#280);
#279 = CARTESIAN_POINT('',(0.994987437107,0.,44.5));
#280 = VECTOR('',#281,1.);
#281 = DIRECTION('',(0.,-1.,0.));
#282 = ORIENTED_EDGE('',*,*,#283,.T.);
#283 = EDGE_CURVE('',#276,#284,#286,.T.);
#284 = VERTEX_POINT('',#285);
#285 = CARTESIAN_POINT('',(6.,-8.,44.5));
#286 = LINE('',#287,#288);
#287 = CARTESIAN_POINT('',(-6.,-8.,44.5));
#288 = VECTOR('',#289,1.);
#289 = DIRECTION('',(1.,0.,-0.));
#290 = ORIENTED_EDGE('',*,*,#291,.T.);
#291 = EDGE_CURVE('',#284,#244,#292,.T.);
#292 = LINE('',#293,#294);
#293 = CARTESIAN_POINT('',(6.,-8.,44.5));
#294 = VECTOR('',#295,1.);
#295 = DIRECTION('',(-0.,1.,0.));
#296 = PLANE('',#297);
#297 = AXIS2_PLACEMENT_3D('',#298,#299,#300);
#298 = CARTESIAN_POINT('',(-6.,-8.,44.5));
#299 = DIRECTION('',(0.,0.,1.));
#300 = DIRECTION('',(1.,0.,-0.));
#301 = ADVANCED_FACE('',(#302),#321,.T.);
#302 = FACE_BOUND('',#303,.T.);
#303 = EDGE_LOOP('',(#304,#312,#319,#320));
#304 = ORIENTED_EDGE('',*,*,#305,.T.);
#305 = EDGE_CURVE('',#182,#306,#308,.T.);
#306 = VERTEX_POINT('',#307);
#307 = CARTESIAN_POINT('',(-4.40872847693E-16,-8.,44.2));
#308 = LINE('',#309,#310);
#309 = CARTESIAN_POINT('',(-4.40872847693E-16,0.,44.2));
#310 = VECTOR('',#311,1.);
#311 = DIRECTION('',(0.,-1.,0.));
#312 = ORIENTED_EDGE('',*,*,#313,.F.);
#313 = EDGE_CURVE('',#260,#306,#314,.T.);
#314 = CIRCLE('',#315,1.8);
#315 = AXIS2_PLACEMENT_3D('',#316,#317,#318);
#316 = CARTESIAN_POINT('',(0.,-8.,46.));
#317 = DIRECTION('',(0.,-1.,0.));
#318 = DIRECTION('',(0.,-0.,-1.));
#319 = ORIENTED_EDGE('',*,*,#267,.F.);
#320 = ORIENTED_EDGE('',*,*,#208,.T.);
#321 = CYLINDRICAL_SURFACE('',#322,1.8);
#322 = AXIS2_PLACEMENT_3D('',#323,#324,#325);
#323 = CARTESIAN_POINT('',(0.,0.,46.));
#324 = DIRECTION('',(0.,-1.,0.));
#325 = DIRECTION('',(0.,-0.,-1.));
#326 = ADVANCED_FACE('',(#327),#339,.T.);
#327 = FACE_BOUND('',#328,.T.);
#328 = EDGE_LOOP('',(#329,#336,#337,#338));
#329 = ORIENTED_EDGE('',*,*,#330,.F.);
#330 = EDGE_CURVE('',#306,#276,#331,.T.);
#331 = CIRCLE('',#332,1.8);
#332 = AXIS2_PLACEMENT_3D('',#333,#334,#335);
#333 = CARTESIAN_POINT('',(0.,-8.,46.));
#334 = DIRECTION('',(0.,-1.,0.));
#335 = DIRECTION('',(0.,-0.,-1.));
#336 = ORIENTED_EDGE('',*,*,#305,.F.);
#337 = ORIENTED_EDGE('',*,*,#181,.T.);
#338 = ORIENTED_EDGE('',*,*,#275,.T.);
#339 = CYLINDRICAL_SURFACE('',#340,1.8);
#340 = AXIS2_PLACEMENT_3D('',#341,#342,#343);
#341 = CARTESIAN_POINT('',(0.,0.,46.));
#342 = DIRECTION('',(0.,-1.,0.));
#343 = DIRECTION('',(0.,-0.,-1.));
#344 = ADVANCED_FACE('',(#345),#378,.T.);
#345 = FACE_BOUND('',#346,.T.);
#346 = EDGE_LOOP('',(#347,#348,#356,#364,#372));
#347 = ORIENTED_EDGE('',*,*,#241,.F.);
#348 = ORIENTED_EDGE('',*,*,#349,.T.);
#349 = EDGE_CURVE('',#242,#350,#352,.T.);
#350 = VERTEX_POINT('',#351);
#351 = CARTESIAN_POINT('',(-6.,8.,47.5));
#352 = LINE('',#353,#354);
#353 = CARTESIAN_POINT('',(-6.,8.,44.5));
#354 = VECTOR('',#355,1.);
#355 = DIRECTION('',(0.,0.,1.));
#356 = ORIENTED_EDGE('',*,*,#357,.T.);
#357 = EDGE_CURVE('',#350,#358,#360,.T.);
#358 = VERTEX_POINT('',#359);
#359 = CARTESIAN_POINT('',(0.,8.,47.5));
#360 = LINE('',#361,#362);
#361 = CARTESIAN_POINT('',(-6.,8.,47.5));
#362 = VECTOR('',#363,1.);
#363 = DIRECTION('',(1.,0.,-0.));
#364 = ORIENTED_EDGE('',*,*,#365,.T.);
#365 = EDGE_CURVE('',#358,#366,#368,.T.);
#366 = VERTEX_POINT('',#367);
#367 = CARTESIAN_POINT('',(6.,8.,47.5));
#368 = LINE('',#369,#370);
#369 = CARTESIAN_POINT('',(-6.,8.,47.5));
#370 = VECTOR('',#371,1.);
#371 = DIRECTION('',(1.,0.,-0.));
#372 = ORIENTED_EDGE('',*,*,#373,.F.);
#373 = EDGE_CURVE('',#244,#366,#374,.T.);
#374 = LINE('',#375,#376);
#375 = CARTESIAN_POINT('',(6.,8.,44.5));
#376 = VECTOR('',#377,1.);
#377 = DIRECTION('',(0.,0.,1.));
#378 = PLANE('',#379);
#379 = AXIS2_PLACEMENT_3D('',#380,#381,#382);
#380 = CARTESIAN_POINT('',(-6.,8.,44.5));
#381 = DIRECTION('',(-0.,1.,0.));
#382 = DIRECTION('',(0.,0.,1.));
#383 = ADVANCED_FACE('',(#384),#402,.T.);
#384 = FACE_BOUND('',#385,.T.);
#385 = EDGE_LOOP('',(#386,#394,#395,#396));
#386 = ORIENTED_EDGE('',*,*,#387,.F.);
#387 = EDGE_CURVE('',#284,#388,#390,.T.);
#388 = VERTEX_POINT('',#389);
#389 = CARTESIAN_POINT('',(6.,-8.,47.5));
#390 = LINE('',#391,#392);
#391 = CARTESIAN_POINT('',(6.,-8.,44.5));
#392 = VECTOR('',#393,1.);
#393 = DIRECTION('',(0.,0.,1.));
#394 = ORIENTED_EDGE('',*,*,#291,.T.);
#395 = ORIENTED_EDGE('',*,*,#373,.T.);
#396 = ORIENTED_EDGE('',*,*,#397,.F.);
#397 = EDGE_CURVE('',#388,#366,#398,.T.);
#398 = LINE('',#399,#400);
#399 = CARTESIAN_POINT('',(6.,-8.,47.5));
#400 = VECTOR('',#401,1.);
#401 = DIRECTION('',(-0.,1.,0.));
#402 = PLANE('',#403);
#403 = AXIS2_PLACEMENT_3D('',#404,#405,#406);
#404 = CARTESIAN_POINT('',(6.,-8.,44.5));
#405 = DIRECTION('',(1.,0.,-0.));
#406 = DIRECTION('',(0.,0.,1.));
#407 = ADVANCED_FACE('',(#408),#427,.F.);
#408 = FACE_BOUND('',#409,.F.);
#409 = EDGE_LOOP('',(#410,#411,#420,#426));
#410 = ORIENTED_EDGE('',*,*,#283,.F.);
#411 = ORIENTED_EDGE('',*,*,#412,.T.);
#412 = EDGE_CURVE('',#276,#413,#415,.T.);
#413 = VERTEX_POINT('',#414);
#414 = CARTESIAN_POINT('',(0.994987437107,-8.,47.5));
#415 = CIRCLE('',#416,1.8);
#416 = AXIS2_PLACEMENT_3D('',#417,#418,#419);
#417 = CARTESIAN_POINT('',(0.,-8.,46.));
#418 = DIRECTION('',(0.,-1.,0.));
#419 = DIRECTION('',(0.,-0.,-1.));
#420 = ORIENTED_EDGE('',*,*,#421,.T.);
#421 = EDGE_CURVE('',#413,#388,#422,.T.);
#422 = LINE('',#423,#424);
#423 = CARTESIAN_POINT('',(-6.,-8.,47.5));
#424 = VECTOR('',#425,1.);
#425 = DIRECTION('',(1.,0.,-0.));
#426 = ORIENTED_EDGE('',*,*,#387,.F.);
#427 = PLANE('',#428);
#428 = AXIS2_PLACEMENT_3D('',#429,#430,#431);
#429 = CARTESIAN_POINT('',(-6.,-8.,44.5));
#430 = DIRECTION('',(-0.,1.,0.));
#431 = DIRECTION('',(0.,0.,1.));
#432 = ADVANCED_FACE('',(#433),#459,.F.);
#433 = FACE_BOUND('',#434,.F.);
#434 = EDGE_LOOP('',(#435,#436,#444,#452));
#435 = ORIENTED_EDGE('',*,*,#259,.F.);
#436 = ORIENTED_EDGE('',*,*,#437,.T.);
#437 = EDGE_CURVE('',#252,#438,#440,.T.);
#438 = VERTEX_POINT('',#439);
#439 = CARTESIAN_POINT('',(-6.,-8.,47.5));
#440 = LINE('',#441,#442);
#441 = CARTESIAN_POINT('',(-6.,-8.,44.5));
#442 = VECTOR('',#443,1.);
#443 = DIRECTION('',(0.,0.,1.));
#444 = ORIENTED_EDGE('',*,*,#445,.T.);
#445 = EDGE_CURVE('',#438,#446,#448,.T.);
#446 = VERTEX_POINT('',#447);
#447 = CARTESIAN_POINT('',(-0.994987437107,-8.,47.5));
#448 = LINE('',#449,#450);
#449 = CARTESIAN_POINT('',(-6.,-8.,47.5));
#450 = VECTOR('',#451,1.);
#451 = DIRECTION('',(1.,0.,-0.));
#452 = ORIENTED_EDGE('',*,*,#453,.T.);
#453 = EDGE_CURVE('',#446,#260,#454,.T.);
#454 = CIRCLE('',#455,1.8);
#455 = AXIS2_PLACEMENT_3D('',#456,#457,#458);
#456 = CARTESIAN_POINT('',(0.,-8.,46.));
#457 = DIRECTION('',(0.,-1.,0.));
#458 = DIRECTION('',(0.,-0.,-1.));
#459 = PLANE('',#460);
#460 = AXIS2_PLACEMENT_3D('',#461,#462,#463);
#461 = CARTESIAN_POINT('',(-6.,-8.,44.5));
#462 = DIRECTION('',(-0.,1.,0.));
#463 = DIRECTION('',(0.,0.,1.));
#464 = ADVANCED_FACE('',(#465),#476,.F.);
#465 = FACE_BOUND('',#466,.F.);
#466 = EDGE_LOOP('',(#467,#468,#469,#470));
#467 = ORIENTED_EDGE('',*,*,#437,.F.);
#468 = ORIENTED_EDGE('',*,*,#251,.T.);
#469 = ORIENTED_EDGE('',*,*,#349,.T.);
#470 = ORIENTED_EDGE('',*,*,#471,.F.);
#471 = EDGE_CURVE('',#438,#350,#472,.T.);
#472 = LINE('',#473,#474);
#473 = CARTESIAN_POINT('',(-6.,-8.,47.5));
#474 = VECTOR('',#475,1.);
#475 = DIRECTION('',(-0.,1.,0.));
#476 = PLANE('',#477);
#477 = AXIS2_PLACEMENT_3D('',#478,#479,#480);
#478 = CARTESIAN_POINT('',(-6.,-8.,44.5));
#479 = DIRECTION('',(1.,0.,-0.));
#480 = DIRECTION('',(0.,0.,1.));
#481 = ADVANCED_FACE('',(#482),#645,.T.);
#482 = FACE_BOUND('',#483,.T.);
#483 = EDGE_LOOP('',(#484,#514,#521,#522,#523,#532,#541,#548,#549,#550,
    #551,#560,#585));
#484 = ORIENTED_EDGE('',*,*,#485,.F.);
#485 = EDGE_CURVE('',#486,#488,#490,.T.);
#486 = VERTEX_POINT('',#487);
#487 = CARTESIAN_POINT('',(-0.978749813114,-8.,47.51064516129));
#488 = VERTEX_POINT('',#489);
#489 = CARTESIAN_POINT('',(-1.427658370008,-10.,47.522652461728));
#490 = B_SPLINE_CURVE_WITH_KNOTS('',8,(#491,#492,#493,#494,#495,#496,
    #497,#498,#499,#500,#501,#502,#503,#504,#505,#506,#507,#508,#509,
    #510,#511,#512,#513),.UNSPECIFIED.,.F.,.F.,(9,7,7,9),(0.,
    0.621203462361,0.911285816126,1.),.UNSPECIFIED.);
#491 = CARTESIAN_POINT('',(-0.978749813114,-8.,47.51064516129));
#492 = CARTESIAN_POINT('',(-0.978749813114,-8.158732265366,
    47.51064516129));
#493 = CARTESIAN_POINT('',(-0.988328047782,-8.31741269531,
    47.510853534881));
#494 = CARTESIAN_POINT('',(-1.007473113722,-8.475510725478,
    47.511270064238));
#495 = CARTESIAN_POINT('',(-1.03519063255,-8.632742232354,
    47.511884339007));
#496 = CARTESIAN_POINT('',(-1.069592368635,-8.78903231859,
    47.512679023414));
#497 = CARTESIAN_POINT('',(-1.109006943053,-8.944390004802,
    47.513633145016));
#498 = CARTESIAN_POINT('',(-1.151933787523,-9.098922579225,
    47.514723595084));
#499 = CARTESIAN_POINT('',(-1.218243847596,-9.324701914086,
    47.516488267488));
#500 = CARTESIAN_POINT('',(-1.239850923799,-9.396446609344,
    47.517074609745));
#501 = CARTESIAN_POINT('',(-1.261830889237,-9.468086363295,
    47.517683146331));
#502 = CARTESIAN_POINT('',(-1.284067895636,-9.539640761579,
    47.518311376831));
#503 = CARTESIAN_POINT('',(-1.306455609005,-9.611128272777,
    47.518956721179));
#504 = CARTESIAN_POINT('',(-1.328896338357,-9.682566446067,
    47.51961652659));
#505 = CARTESIAN_POINT('',(-1.351300164436,-9.753972108877,
    47.520288074499));
#506 = CARTESIAN_POINT('',(-1.380399024037,-9.847194182809,
    47.521176704794));
#507 = CARTESIAN_POINT('',(-1.387202726832,-9.869025193948,
    47.521385659719));
#508 = CARTESIAN_POINT('',(-1.39399279191,-9.890855028004,47.52159537244
    ));
#509 = CARTESIAN_POINT('',(-1.400766883985,-9.912684100829,
    47.521805762535));
#510 = CARTESIAN_POINT('',(-1.407522717408,-9.93451281408,
    47.522016748991));
#511 = CARTESIAN_POINT('',(-1.414258056167,-9.956341555216,
    47.522228250208));
#512 = CARTESIAN_POINT('',(-1.420970713885,-9.9781706975,47.522440183992
    ));
#513 = CARTESIAN_POINT('',(-1.427658553825,-10.0000006,47.522652467562)
  );
#514 = ORIENTED_EDGE('',*,*,#515,.T.);
#515 = EDGE_CURVE('',#486,#446,#516,.T.);
#516 = CIRCLE('',#517,1.8);
#517 = AXIS2_PLACEMENT_3D('',#518,#519,#520);
#518 = CARTESIAN_POINT('',(0.,-8.,46.));
#519 = DIRECTION('',(0.,-1.,0.));
#520 = DIRECTION('',(0.,-0.,-1.));
#521 = ORIENTED_EDGE('',*,*,#453,.T.);
#522 = ORIENTED_EDGE('',*,*,#313,.T.);
#523 = ORIENTED_EDGE('',*,*,#524,.F.);
#524 = EDGE_CURVE('',#525,#306,#527,.T.);
#525 = VERTEX_POINT('',#526);
#526 = CARTESIAN_POINT('',(-4.40872847693E-16,-15.8,52.));
#527 = CIRCLE('',#528,7.8);
#528 = AXIS2_PLACEMENT_3D('',#529,#530,#531);
#529 = CARTESIAN_POINT('',(-4.40872847693E-16,-8.,52.));
#530 = DIRECTION('',(1.,0.,0.));
#531 = DIRECTION('',(-0.,0.,1.));
#532 = ORIENTED_EDGE('',*,*,#533,.F.);
#533 = EDGE_CURVE('',#534,#525,#536,.T.);
#534 = VERTEX_POINT('',#535);
#535 = CARTESIAN_POINT('',(1.8,-14.,52.));
#536 = CIRCLE('',#537,1.8);
#537 = AXIS2_PLACEMENT_3D('',#538,#539,#540);
#538 = CARTESIAN_POINT('',(0.,-14.,52.));
#539 = DIRECTION('',(0.,0.,1.));
#540 = DIRECTION('',(0.,-1.,0.));
#541 = ORIENTED_EDGE('',*,*,#542,.F.);
#542 = EDGE_CURVE('',#525,#534,#543,.T.);
#543 = CIRCLE('',#544,1.8);
#544 = AXIS2_PLACEMENT_3D('',#545,#546,#547);
#545 = CARTESIAN_POINT('',(0.,-14.,52.));
#546 = DIRECTION('',(0.,0.,1.));
#547 = DIRECTION('',(0.,-1.,0.));
#548 = ORIENTED_EDGE('',*,*,#524,.T.);
#549 = ORIENTED_EDGE('',*,*,#330,.T.);
#550 = ORIENTED_EDGE('',*,*,#412,.T.);
#551 = ORIENTED_EDGE('',*,*,#552,.T.);
#552 = EDGE_CURVE('',#413,#553,#555,.T.);
#553 = VERTEX_POINT('',#554);
#554 = CARTESIAN_POINT('',(0.978749813114,-8.,47.51064516129));
#555 = CIRCLE('',#556,1.8);
#556 = AXIS2_PLACEMENT_3D('',#557,#558,#559);
#557 = CARTESIAN_POINT('',(0.,-8.,46.));
#558 = DIRECTION('',(0.,-1.,0.));
#559 = DIRECTION('',(0.,-0.,-1.));
#560 = ORIENTED_EDGE('',*,*,#561,.F.);
#561 = EDGE_CURVE('',#562,#553,#564,.T.);
#562 = VERTEX_POINT('',#563);
#563 = CARTESIAN_POINT('',(1.427658370008,-10.,47.522652461728));
#564 = B_SPLINE_CURVE_WITH_KNOTS('',7,(#565,#566,#567,#568,#569,#570,
    #571,#572,#573,#574,#575,#576,#577,#578,#579,#580,#581,#582,#583,
    #584),.UNSPECIFIED.,.F.,.F.,(8,6,6,8),(0.,8.673825267709E-02,
    0.54990011976,1.),.UNSPECIFIED.);
#565 = CARTESIAN_POINT('',(1.427658553825,-10.0000006,47.522652467562));
#566 = CARTESIAN_POINT('',(1.420184471877,-9.975604310365,
    47.522415227315));
#567 = CARTESIAN_POINT('',(1.412678747827,-9.951208989885,
    47.522178433034));
#568 = CARTESIAN_POINT('',(1.405144578837,-9.926814101432,
    47.521942208566));
#569 = CARTESIAN_POINT('',(1.397585252603,-9.902419081883,
    47.521706676684));
#570 = CARTESIAN_POINT('',(1.390004147356,-9.878023342123,47.52147195908
    ));
#571 = CARTESIAN_POINT('',(1.382404731862,-9.853626267042,
    47.521238176368));
#572 = CARTESIAN_POINT('',(1.334132707598,-9.698942019544,
    47.519762733793));
#573 = CARTESIAN_POINT('',(1.293060095657,-9.56861858483,47.518550257303
    ));
#574 = CARTESIAN_POINT('',(1.252106521304,-9.438130854142,
    47.517385923035));
#575 = CARTESIAN_POINT('',(1.211898301093,-9.307359837929,47.51628702165
    ));
#576 = CARTESIAN_POINT('',(1.17317523583,-9.176189183555,47.515270058765
    ));
#577 = CARTESIAN_POINT('',(1.136846573582,-9.044493279987,
    47.514350449504));
#578 = CARTESIAN_POINT('',(1.071898084481,-8.783544858317,
    47.512756699933));
#579 = CARTESIAN_POINT('',(1.043085133957,-8.654312151914,
    47.512076268798));
#580 = CARTESIAN_POINT('',(1.018404761487,-8.52441432644,47.51151419259)
  );
#581 = CARTESIAN_POINT('',(0.998853264352,-8.393878324775,
    47.511082486782));
#582 = CARTESIAN_POINT('',(0.985449359727,-8.262802233738,
    47.510790918295));
#583 = CARTESIAN_POINT('',(0.978749813114,-8.131395469262,47.51064516129
    ));
#584 = CARTESIAN_POINT('',(0.978749813114,-8.,47.51064516129));
#585 = ORIENTED_EDGE('',*,*,#586,.T.);
#586 = EDGE_CURVE('',#562,#488,#587,.T.);
#587 = B_SPLINE_CURVE_WITH_KNOTS('',6,(#588,#589,#590,#591,#592,#593,
    #594,#595,#596,#597,#598,#599,#600,#601,#602,#603,#604,#605,#606,
    #607,#608,#609,#610,#611,#612,#613,#614,#615,#616,#617,#618,#619,
    #620,#621,#622,#623,#624,#625,#626,#627,#628,#629,#630,#631,#632,
    #633,#634,#635,#636,#637,#638,#639,#640,#641,#642,#643,#644),
  .UNSPECIFIED.,.F.,.F.,(7,5,5,5,5,5,5,5,5,5,5,7),(0.,5.344273404975E-02
    ,0.241750073985,0.315808553701,0.382033553004,0.420498079428,
    0.499175421225,0.617949271428,0.684169923014,0.758224624046,
    0.946534612658,1.),.UNSPECIFIED.);
#588 = CARTESIAN_POINT('',(1.759009710812,-10.,46.75));
#589 = CARTESIAN_POINT('',(1.749963829663,-10.,46.794580037673));
#590 = CARTESIAN_POINT('',(1.739737780749,-10.,46.838923671997));
#591 = CARTESIAN_POINT('',(1.728341795005,-10.,46.882991311228));
#592 = CARTESIAN_POINT('',(1.715787147298,-10.,46.926743750512));
#593 = CARTESIAN_POINT('',(1.702086156426,-10.,46.970142171891));
#594 = CARTESIAN_POINT('',(1.634984169135,-10.,47.164681190059));
#595 = CARTESIAN_POINT('',(1.568657527821,-10.,47.311319174487));
#596 = CARTESIAN_POINT('',(1.488844877617,-10.,47.451428090595));
#597 = CARTESIAN_POINT('',(1.396263682109,-10.,47.583342325392));
#598 = CARTESIAN_POINT('',(1.291789472571,-10.,47.705357167624));
#599 = CARTESIAN_POINT('',(1.131114915906,-10.,47.859147623883));
#600 = CARTESIAN_POINT('',(1.084086855082,-10.,47.900755364119));
#601 = CARTESIAN_POINT('',(1.035451527093,-10.,47.940452673918));
#602 = CARTESIAN_POINT('',(0.985283051391,-10.,47.97812954156));
#603 = CARTESIAN_POINT('',(0.933664316131,-10.,48.013675667069));
#604 = CARTESIAN_POINT('',(0.833316199418,-10.,48.076766760063));
#605 = CARTESIAN_POINT('',(0.7848587606,-10.,48.104760323323));
#606 = CARTESIAN_POINT('',(0.735383491237,-10.,48.130885761412));
#607 = CARTESIAN_POINT('',(0.684964516885,-10.,48.155066730233));
#608 = CARTESIAN_POINT('',(0.633683796741,-10.,48.177230762425));
#609 = CARTESIAN_POINT('',(0.551399682252,-10.,48.208975233854));
#610 = CARTESIAN_POINT('',(0.52090712065,-10.,48.219936020238));
#611 = CARTESIAN_POINT('',(0.49017222694,-10.,48.230181144174));
#612 = CARTESIAN_POINT('',(0.459213674647,-10.,48.239698578903));
#613 = CARTESIAN_POINT('',(0.428051018369,-10.,48.248477317395));
#614 = CARTESIAN_POINT('',(0.332587292028,-10.,48.272932464173));
#615 = CARTESIAN_POINT('',(0.267699286751,-10.,48.286225865141));
#616 = CARTESIAN_POINT('',(0.202219390682,-10.,48.296301875707));
#617 = CARTESIAN_POINT('',(0.136334889391,-10.,48.303099131031));
#618 = CARTESIAN_POINT('',(7.024112071165E-02,-10.,48.306584589409));
#619 = CARTESIAN_POINT('',(-9.564598704868E-02,-10.,48.307018583347));
#620 = CARTESIAN_POINT('',(-0.195463461152,-10.,48.299730204878));
#621 = CARTESIAN_POINT('',(-0.2945985098,-10.,48.284887170973));
#622 = CARTESIAN_POINT('',(-0.392391961591,-10.,48.262656810744));
#623 = CARTESIAN_POINT('',(-0.48823943191,-10.,48.233339169928));
#624 = CARTESIAN_POINT('',(-0.633639884159,-10.,48.177249219398));
#625 = CARTESIAN_POINT('',(-0.684916670927,-10.,48.155088626768));
#626 = CARTESIAN_POINT('',(-0.735331915452,-10.,48.130911412487));
#627 = CARTESIAN_POINT('',(-0.78480367639,-10.,48.104790022355));
#628 = CARTESIAN_POINT('',(-0.833257843499,-10.,48.076800778484));
#629 = CARTESIAN_POINT('',(-0.933600334199,-10.,48.013718877527));
#630 = CARTESIAN_POINT('',(-0.985216738205,-10.,47.978177621722));
#631 = CARTESIAN_POINT('',(-1.035383169769,-10.,47.940505845653));
#632 = CARTESIAN_POINT('',(-1.084016752839,-10.,47.900813824751));
#633 = CARTESIAN_POINT('',(-1.131043378465,-10.,47.85921154711));
#634 = CARTESIAN_POINT('',(-1.291721487124,-10.,47.705433795248));
#635 = CARTESIAN_POINT('',(-1.396201015585,-10.,47.583425504756));
#636 = CARTESIAN_POINT('',(-1.488788126414,-10.,47.451517259007));
#637 = CARTESIAN_POINT('',(-1.568607261237,-10.,47.31141375028));
#638 = CARTESIAN_POINT('',(-1.634940932322,-10.,47.164780553429));
#639 = CARTESIAN_POINT('',(-1.702058684292,-10.,46.970229184696));
#640 = CARTESIAN_POINT('',(-1.71576700865,-10.,46.926813928714));
#641 = CARTESIAN_POINT('',(-1.728328085127,-10.,46.883044324127));
#642 = CARTESIAN_POINT('',(-1.739729579289,-10.,46.838959235341));
#643 = CARTESIAN_POINT('',(-1.749960202278,-10.,46.794597914203));
#644 = CARTESIAN_POINT('',(-1.759009710812,-10.,46.75));
#645 = TOROIDAL_SURFACE('',#646,6.,1.8);
#646 = AXIS2_PLACEMENT_3D('',#647,#648,#649);
#647 = CARTESIAN_POINT('',(0.,-8.,52.));
#648 = DIRECTION('',(1.,0.,0.));
#649 = DIRECTION('',(-0.,0.,1.));
#650 = ADVANCED_FACE('',(#651),#678,.T.);
#651 = FACE_BOUND('',#652,.T.);
#652 = EDGE_LOOP('',(#653,#654,#655,#656,#664,#672));
#653 = ORIENTED_EDGE('',*,*,#357,.F.);
#654 = ORIENTED_EDGE('',*,*,#471,.F.);
#655 = ORIENTED_EDGE('',*,*,#445,.T.);
#656 = ORIENTED_EDGE('',*,*,#657,.F.);
#657 = EDGE_CURVE('',#658,#446,#660,.T.);
#658 = VERTEX_POINT('',#659);
#659 = CARTESIAN_POINT('',(-0.994987437107,0.,47.5));
#660 = LINE('',#661,#662);
#661 = CARTESIAN_POINT('',(-0.994987437107,0.,47.5));
#662 = VECTOR('',#663,1.);
#663 = DIRECTION('',(0.,-1.,0.));
#664 = ORIENTED_EDGE('',*,*,#665,.T.);
#665 = EDGE_CURVE('',#658,#666,#668,.T.);
#666 = VERTEX_POINT('',#667);
#667 = CARTESIAN_POINT('',(-6.467553207873E-13,0.,47.5));
#668 = LINE('',#669,#670);
#669 = CARTESIAN_POINT('',(-3.,0.,47.5));
#670 = VECTOR('',#671,1.);
#671 = DIRECTION('',(1.,0.,-0.));
#672 = ORIENTED_EDGE('',*,*,#673,.T.);
#673 = EDGE_CURVE('',#666,#358,#674,.T.);
#674 = LINE('',#675,#676);
#675 = CARTESIAN_POINT('',(0.,-10.,47.5));
#676 = VECTOR('',#677,1.);
#677 = DIRECTION('',(0.,1.,0.));
#678 = PLANE('',#679);
#679 = AXIS2_PLACEMENT_3D('',#680,#681,#682);
#680 = CARTESIAN_POINT('',(-6.,-8.,47.5));
#681 = DIRECTION('',(0.,0.,1.));
#682 = DIRECTION('',(1.,0.,-0.));
#683 = ADVANCED_FACE('',(#684),#704,.T.);
#684 = FACE_BOUND('',#685,.T.);
#685 = EDGE_LOOP('',(#686,#687,#688,#696,#702,#703));
#686 = ORIENTED_EDGE('',*,*,#365,.F.);
#687 = ORIENTED_EDGE('',*,*,#673,.F.);
#688 = ORIENTED_EDGE('',*,*,#689,.T.);
#689 = EDGE_CURVE('',#666,#690,#692,.T.);
#690 = VERTEX_POINT('',#691);
#691 = CARTESIAN_POINT('',(0.994987437107,0.,47.5));
#692 = LINE('',#693,#694);
#693 = CARTESIAN_POINT('',(-3.,0.,47.5));
#694 = VECTOR('',#695,1.);
#695 = DIRECTION('',(1.,0.,-0.));
#696 = ORIENTED_EDGE('',*,*,#697,.T.);
#697 = EDGE_CURVE('',#690,#413,#698,.T.);
#698 = LINE('',#699,#700);
#699 = CARTESIAN_POINT('',(0.994987437107,0.,47.5));
#700 = VECTOR('',#701,1.);
#701 = DIRECTION('',(0.,-1.,0.));
#702 = ORIENTED_EDGE('',*,*,#421,.T.);
#703 = ORIENTED_EDGE('',*,*,#397,.T.);
#704 = PLANE('',#705);
#705 = AXIS2_PLACEMENT_3D('',#706,#707,#708);
#706 = CARTESIAN_POINT('',(-6.,-8.,47.5));
#707 = DIRECTION('',(0.,0.,1.));
#708 = DIRECTION('',(1.,0.,-0.));
#709 = ADVANCED_FACE('',(#710),#789,.T.);
#710 = FACE_BOUND('',#711,.T.);
#711 = EDGE_LOOP('',(#712,#713,#721,#730,#739,#747,#755,#764,#772,#780,
    #787,#788));
#712 = ORIENTED_EDGE('',*,*,#542,.T.);
#713 = ORIENTED_EDGE('',*,*,#714,.T.);
#714 = EDGE_CURVE('',#534,#715,#717,.T.);
#715 = VERTEX_POINT('',#716);
#716 = CARTESIAN_POINT('',(1.8,-14.,90.));
#717 = LINE('',#718,#719);
#718 = CARTESIAN_POINT('',(1.8,-14.,52.));
#719 = VECTOR('',#720,1.);
#720 = DIRECTION('',(0.,0.,1.));
#721 = ORIENTED_EDGE('',*,*,#722,.F.);
#722 = EDGE_CURVE('',#723,#715,#725,.T.);
#723 = VERTEX_POINT('',#724);
#724 = CARTESIAN_POINT('',(-1.8,-14.,90.));
#725 = CIRCLE('',#726,1.8);
#726 = AXIS2_PLACEMENT_3D('',#727,#728,#729);
#727 = CARTESIAN_POINT('',(0.,-14.,90.));
#728 = DIRECTION('',(0.,0.,1.));
#729 = DIRECTION('',(1.,0.,-0.));
#730 = ORIENTED_EDGE('',*,*,#731,.F.);
#731 = EDGE_CURVE('',#732,#723,#734,.T.);
#732 = VERTEX_POINT('',#733);
#733 = CARTESIAN_POINT('',(-1.782554346998,-13.75,89.75));
#734 = ELLIPSE('',#735,2.545584412272,1.8);
#735 = AXIS2_PLACEMENT_3D('',#736,#737,#738);
#736 = CARTESIAN_POINT('',(0.,-14.,90.));
#737 = DIRECTION('',(0.,0.707106781187,0.707106781187));
#738 = DIRECTION('',(0.,-0.707106781187,0.707106781187));
#739 = ORIENTED_EDGE('',*,*,#740,.F.);
#740 = EDGE_CURVE('',#741,#732,#743,.T.);
#741 = VERTEX_POINT('',#742);
#742 = CARTESIAN_POINT('',(-1.782554346998,-13.75,82.5));
#743 = LINE('',#744,#745);
#744 = CARTESIAN_POINT('',(-1.782554346998,-13.75,52.));
#745 = VECTOR('',#746,1.);
#746 = DIRECTION('',(0.,0.,1.));
#747 = ORIENTED_EDGE('',*,*,#748,.F.);
#748 = EDGE_CURVE('',#749,#741,#751,.T.);
#749 = VERTEX_POINT('',#750);
#750 = CARTESIAN_POINT('',(-1.782554346998,-13.75,80.));
#751 = LINE('',#752,#753);
#752 = CARTESIAN_POINT('',(-1.782554346998,-13.75,52.));
#753 = VECTOR('',#754,1.);
#754 = DIRECTION('',(0.,0.,1.));
#755 = ORIENTED_EDGE('',*,*,#756,.F.);
#756 = EDGE_CURVE('',#757,#749,#759,.T.);
#757 = VERTEX_POINT('',#758);
#758 = CARTESIAN_POINT('',(1.782554346998,-13.75,80.));
#759 = CIRCLE('',#760,1.8);
#760 = AXIS2_PLACEMENT_3D('',#761,#762,#763);
#761 = CARTESIAN_POINT('',(0.,-14.,80.));
#762 = DIRECTION('',(0.,0.,1.));
#763 = DIRECTION('',(1.,0.,-0.));
#764 = ORIENTED_EDGE('',*,*,#765,.T.);
#765 = EDGE_CURVE('',#757,#766,#768,.T.);
#766 = VERTEX_POINT('',#767);
#767 = CARTESIAN_POINT('',(1.782554346998,-13.75,82.5));
#768 = LINE('',#769,#770);
#769 = CARTESIAN_POINT('',(1.782554346998,-13.75,52.));
#770 = VECTOR('',#771,1.);
#771 = DIRECTION('',(0.,0.,1.));
#772 = ORIENTED_EDGE('',*,*,#773,.T.);
#773 = EDGE_CURVE('',#766,#774,#776,.T.);
#774 = VERTEX_POINT('',#775);
#775 = CARTESIAN_POINT('',(1.782554346998,-13.75,89.75));
#776 = LINE('',#777,#778);
#777 = CARTESIAN_POINT('',(1.782554346998,-13.75,52.));
#778 = VECTOR('',#779,1.);
#779 = DIRECTION('',(0.,0.,1.));
#780 = ORIENTED_EDGE('',*,*,#781,.F.);
#781 = EDGE_CURVE('',#715,#774,#782,.T.);
#782 = ELLIPSE('',#783,2.545584412272,1.8);
#783 = AXIS2_PLACEMENT_3D('',#784,#785,#786);
#784 = CARTESIAN_POINT('',(0.,-14.,90.));
#785 = DIRECTION('',(0.,0.707106781187,0.707106781187));
#786 = DIRECTION('',(0.,-0.707106781187,0.707106781187));
#787 = ORIENTED_EDGE('',*,*,#714,.F.);
#788 = ORIENTED_EDGE('',*,*,#533,.T.);
#789 = CYLINDRICAL_SURFACE('',#790,1.8);
#790 = AXIS2_PLACEMENT_3D('',#791,#792,#793);
#791 = CARTESIAN_POINT('',(0.,-14.,52.));
#792 = DIRECTION('',(0.,0.,1.));
#793 = DIRECTION('',(1.,0.,-0.));
#794 = ADVANCED_FACE('',(#795),#814,.T.);
#795 = FACE_BOUND('',#796,.T.);
#796 = EDGE_LOOP('',(#797,#798,#799,#807));
#797 = ORIENTED_EDGE('',*,*,#657,.T.);
#798 = ORIENTED_EDGE('',*,*,#515,.F.);
#799 = ORIENTED_EDGE('',*,*,#800,.T.);
#800 = EDGE_CURVE('',#486,#801,#803,.T.);
#801 = VERTEX_POINT('',#802);
#802 = CARTESIAN_POINT('',(-0.978749813114,0.,47.51064516129));
#803 = LINE('',#804,#805);
#804 = CARTESIAN_POINT('',(-0.978749813114,-10.,47.51064516129));
#805 = VECTOR('',#806,1.);
#806 = DIRECTION('',(0.,1.,0.));
#807 = ORIENTED_EDGE('',*,*,#808,.T.);
#808 = EDGE_CURVE('',#801,#658,#809,.T.);
#809 = CIRCLE('',#810,1.8);
#810 = AXIS2_PLACEMENT_3D('',#811,#812,#813);
#811 = CARTESIAN_POINT('',(0.,0.,46.));
#812 = DIRECTION('',(0.,-1.,0.));
#813 = DIRECTION('',(0.,-0.,-1.));
#814 = CYLINDRICAL_SURFACE('',#815,1.8);
#815 = AXIS2_PLACEMENT_3D('',#816,#817,#818);
#816 = CARTESIAN_POINT('',(0.,0.,46.));
#817 = DIRECTION('',(0.,-1.,0.));
#818 = DIRECTION('',(0.,-0.,-1.));
#819 = ADVANCED_FACE('',(#820),#888,.T.);
#820 = FACE_BOUND('',#821,.T.);
#821 = EDGE_LOOP('',(#822,#833,#841,#848,#849,#857,#864,#871,#872,#873,
    #882));
#822 = ORIENTED_EDGE('',*,*,#823,.F.);
#823 = EDGE_CURVE('',#824,#826,#828,.T.);
#824 = VERTEX_POINT('',#825);
#825 = CARTESIAN_POINT('',(19.999999999999,10.,52.188711258506));
#826 = VERTEX_POINT('',#827);
#827 = CARTESIAN_POINT('',(-19.99999999999,10.,52.188711258506));
#828 = CIRCLE('',#829,45.);
#829 = AXIS2_PLACEMENT_3D('',#830,#831,#832);
#830 = CARTESIAN_POINT('',(0.,10.,92.5));
#831 = DIRECTION('',(0.,1.,0.));
#832 = DIRECTION('',(0.,-0.,1.));
#833 = ORIENTED_EDGE('',*,*,#834,.F.);
#834 = EDGE_CURVE('',#835,#824,#837,.T.);
#835 = VERTEX_POINT('',#836);
#836 = CARTESIAN_POINT('',(19.999999999999,-10.,52.188711258506));
#837 = LINE('',#838,#839);
#838 = CARTESIAN_POINT('',(20.,-10.,52.188711258507));
#839 = VECTOR('',#840,1.);
#840 = DIRECTION('',(0.,1.,0.));
#841 = ORIENTED_EDGE('',*,*,#842,.T.);
#842 = EDGE_CURVE('',#835,#562,#843,.T.);
#843 = CIRCLE('',#844,45.);
#844 = AXIS2_PLACEMENT_3D('',#845,#846,#847);
#845 = CARTESIAN_POINT('',(0.,-10.,92.5));
#846 = DIRECTION('',(0.,1.,0.));
#847 = DIRECTION('',(0.,-0.,1.));
#848 = ORIENTED_EDGE('',*,*,#561,.T.);
#849 = ORIENTED_EDGE('',*,*,#850,.T.);
#850 = EDGE_CURVE('',#553,#851,#853,.T.);
#851 = VERTEX_POINT('',#852);
#852 = CARTESIAN_POINT('',(0.978749813114,0.,47.51064516129));
#853 = LINE('',#854,#855);
#854 = CARTESIAN_POINT('',(0.978749813114,-10.,47.51064516129));
#855 = VECTOR('',#856,1.);
#856 = DIRECTION('',(0.,1.,0.));
#857 = ORIENTED_EDGE('',*,*,#858,.T.);
#858 = EDGE_CURVE('',#851,#666,#859,.T.);
#859 = CIRCLE('',#860,45.);
#860 = AXIS2_PLACEMENT_3D('',#861,#862,#863);
#861 = CARTESIAN_POINT('',(0.,0.,92.5));
#862 = DIRECTION('',(0.,1.,0.));
#863 = DIRECTION('',(0.,-0.,1.));
#864 = ORIENTED_EDGE('',*,*,#865,.T.);
#865 = EDGE_CURVE('',#666,#801,#866,.T.);
#866 = CIRCLE('',#867,45.);
#867 = AXIS2_PLACEMENT_3D('',#868,#869,#870);
#868 = CARTESIAN_POINT('',(0.,0.,92.5));
#869 = DIRECTION('',(0.,1.,0.));
#870 = DIRECTION('',(0.,-0.,1.));
#871 = ORIENTED_EDGE('',*,*,#800,.F.);
#872 = ORIENTED_EDGE('',*,*,#485,.T.);
#873 = ORIENTED_EDGE('',*,*,#874,.T.);
#874 = EDGE_CURVE('',#488,#875,#877,.T.);
#875 = VERTEX_POINT('',#876);
#876 = CARTESIAN_POINT('',(-19.99999999999,-10.,52.188711258506));
#877 = CIRCLE('',#878,45.);
#878 = AXIS2_PLACEMENT_3D('',#879,#880,#881);
#879 = CARTESIAN_POINT('',(0.,-10.,92.5));
#880 = DIRECTION('',(0.,1.,0.));
#881 = DIRECTION('',(0.,-0.,1.));
#882 = ORIENTED_EDGE('',*,*,#883,.T.);
#883 = EDGE_CURVE('',#875,#826,#884,.T.);
#884 = LINE('',#885,#886);
#885 = CARTESIAN_POINT('',(-20.,-10.,52.188711258507));
#886 = VECTOR('',#887,1.);
#887 = DIRECTION('',(0.,1.,0.));
#888 = CYLINDRICAL_SURFACE('',#889,45.);
#889 = AXIS2_PLACEMENT_3D('',#890,#891,#892);
#890 = CARTESIAN_POINT('',(0.,-10.,92.5));
#891 = DIRECTION('',(0.,1.,0.));
#892 = DIRECTION('',(0.,-0.,1.));
#893 = ADVANCED_FACE('',(#894),#922,.F.);
#894 = FACE_BOUND('',#895,.F.);
#895 = EDGE_LOOP('',(#896,#904,#905,#906,#907,#915));
#896 = ORIENTED_EDGE('',*,*,#897,.F.);
#897 = EDGE_CURVE('',#835,#898,#900,.T.);
#898 = VERTEX_POINT('',#899);
#899 = CARTESIAN_POINT('',(19.999999999999,-10.,54.999999999999));
#900 = LINE('',#901,#902);
#901 = CARTESIAN_POINT('',(20.,-10.,40.));
#902 = VECTOR('',#903,1.);
#903 = DIRECTION('',(0.,0.,1.));
#904 = ORIENTED_EDGE('',*,*,#842,.T.);
#905 = ORIENTED_EDGE('',*,*,#586,.T.);
#906 = ORIENTED_EDGE('',*,*,#874,.T.);
#907 = ORIENTED_EDGE('',*,*,#908,.T.);
#908 = EDGE_CURVE('',#875,#909,#911,.T.);
#909 = VERTEX_POINT('',#910);
#910 = CARTESIAN_POINT('',(-19.99999999999,-10.,54.999999999999));
#911 = LINE('',#912,#913);
#912 = CARTESIAN_POINT('',(-20.,-10.,40.));
#913 = VECTOR('',#914,1.);
#914 = DIRECTION('',(0.,0.,1.));
#915 = ORIENTED_EDGE('',*,*,#916,.F.);
#916 = EDGE_CURVE('',#898,#909,#917,.T.);
#917 = CIRCLE('',#918,42.5);
#918 = AXIS2_PLACEMENT_3D('',#919,#920,#921);
#919 = CARTESIAN_POINT('',(0.,-10.,92.5));
#920 = DIRECTION('',(0.,1.,0.));
#921 = DIRECTION('',(0.,-0.,1.));
#922 = PLANE('',#923);
#923 = AXIS2_PLACEMENT_3D('',#924,#925,#926);
#924 = CARTESIAN_POINT('',(0.,-10.,92.5));
#925 = DIRECTION('',(0.,1.,0.));
#926 = DIRECTION('',(0.,-0.,1.));
#927 = ADVANCED_FACE('',(#928),#940,.T.);
#928 = FACE_BOUND('',#929,.T.);
#929 = EDGE_LOOP('',(#930,#931,#932,#939));
#930 = ORIENTED_EDGE('',*,*,#552,.F.);
#931 = ORIENTED_EDGE('',*,*,#697,.F.);
#932 = ORIENTED_EDGE('',*,*,#933,.T.);
#933 = EDGE_CURVE('',#690,#851,#934,.T.);
#934 = CIRCLE('',#935,1.8);
#935 = AXIS2_PLACEMENT_3D('',#936,#937,#938);
#936 = CARTESIAN_POINT('',(0.,0.,46.));
#937 = DIRECTION('',(0.,-1.,0.));
#938 = DIRECTION('',(0.,-0.,-1.));
#939 = ORIENTED_EDGE('',*,*,#850,.F.);
#940 = CYLINDRICAL_SURFACE('',#941,1.8);
#941 = AXIS2_PLACEMENT_3D('',#942,#943,#944);
#942 = CARTESIAN_POINT('',(0.,0.,46.));
#943 = DIRECTION('',(0.,-1.,0.));
#944 = DIRECTION('',(0.,-0.,-1.));
#945 = ADVANCED_FACE('',(#946),#951,.F.);
#946 = FACE_BOUND('',#947,.F.);
#947 = EDGE_LOOP('',(#948,#949,#950));
#948 = ORIENTED_EDGE('',*,*,#808,.T.);
#949 = ORIENTED_EDGE('',*,*,#665,.T.);
#950 = ORIENTED_EDGE('',*,*,#865,.T.);
#951 = PLANE('',#952);
#952 = AXIS2_PLACEMENT_3D('',#953,#954,#955);
#953 = CARTESIAN_POINT('',(0.,0.,46.));
#954 = DIRECTION('',(0.,-1.,0.));
#955 = DIRECTION('',(0.,-0.,-1.));
#956 = ADVANCED_FACE('',(#957),#962,.F.);
#957 = FACE_BOUND('',#958,.F.);
#958 = EDGE_LOOP('',(#959,#960,#961));
#959 = ORIENTED_EDGE('',*,*,#689,.T.);
#960 = ORIENTED_EDGE('',*,*,#933,.T.);
#961 = ORIENTED_EDGE('',*,*,#858,.T.);
#962 = PLANE('',#963);
#963 = AXIS2_PLACEMENT_3D('',#964,#965,#966);
#964 = CARTESIAN_POINT('',(0.,0.,46.));
#965 = DIRECTION('',(0.,-1.,0.));
#966 = DIRECTION('',(0.,-0.,-1.));
#967 = ADVANCED_FACE('',(#968),#995,.T.);
#968 = FACE_BOUND('',#969,.T.);
#969 = EDGE_LOOP('',(#970,#980,#987,#988));
#970 = ORIENTED_EDGE('',*,*,#971,.F.);
#971 = EDGE_CURVE('',#972,#974,#976,.T.);
#972 = VERTEX_POINT('',#973);
#973 = CARTESIAN_POINT('',(-4.40872847693E-16,-14.,91.8));
#974 = VERTEX_POINT('',#975);
#975 = CARTESIAN_POINT('',(-4.40872847693E-16,-13.75,91.8));
#976 = LINE('',#977,#978);
#977 = CARTESIAN_POINT('',(-4.40872847693E-16,-14.,91.8));
#978 = VECTOR('',#979,1.);
#979 = DIRECTION('',(0.,1.,0.));
#980 = ORIENTED_EDGE('',*,*,#981,.T.);
#981 = EDGE_CURVE('',#972,#715,#982,.T.);
#982 = CIRCLE('',#983,1.8);
#983 = AXIS2_PLACEMENT_3D('',#984,#985,#986);
#984 = CARTESIAN_POINT('',(0.,-14.,90.));
#985 = DIRECTION('',(0.,1.,0.));
#986 = DIRECTION('',(0.,-0.,1.));
#987 = ORIENTED_EDGE('',*,*,#781,.T.);
#988 = ORIENTED_EDGE('',*,*,#989,.F.);
#989 = EDGE_CURVE('',#974,#774,#990,.T.);
#990 = CIRCLE('',#991,1.8);
#991 = AXIS2_PLACEMENT_3D('',#992,#993,#994);
#992 = CARTESIAN_POINT('',(0.,-13.75,90.));
#993 = DIRECTION('',(0.,1.,0.));
#994 = DIRECTION('',(0.,-0.,1.));
#995 = CYLINDRICAL_SURFACE('',#996,1.8);
#996 = AXIS2_PLACEMENT_3D('',#997,#998,#999);
#997 = CARTESIAN_POINT('',(0.,-14.,90.));
#998 = DIRECTION('',(0.,1.,0.));
#999 = DIRECTION('',(0.,-0.,1.));
#1000 = ADVANCED_FACE('',(#1001),#1087,.F.);
#1001 = FACE_BOUND('',#1002,.F.);
#1002 = EDGE_LOOP('',(#1003,#1011,#1020,#1028,#1037,#1045,#1054,#1062,
    #1071,#1077,#1078,#1079,#1086));
#1003 = ORIENTED_EDGE('',*,*,#1004,.F.);
#1004 = EDGE_CURVE('',#1005,#741,#1007,.T.);
#1005 = VERTEX_POINT('',#1006);
#1006 = CARTESIAN_POINT('',(-15.,-13.75,82.5));
#1007 = LINE('',#1008,#1009);
#1008 = CARTESIAN_POINT('',(-17.5,-13.75,82.5));
#1009 = VECTOR('',#1010,1.);
#1010 = DIRECTION('',(1.,0.,-0.));
#1011 = ORIENTED_EDGE('',*,*,#1012,.F.);
#1012 = EDGE_CURVE('',#1013,#1005,#1015,.T.);
#1013 = VERTEX_POINT('',#1014);
#1014 = CARTESIAN_POINT('',(-17.5,-13.75,85.));
#1015 = CIRCLE('',#1016,2.5);
#1016 = AXIS2_PLACEMENT_3D('',#1017,#1018,#1019);
#1017 = CARTESIAN_POINT('',(-17.5,-13.75,82.5));
#1018 = DIRECTION('',(0.,1.,0.));
#1019 = DIRECTION('',(0.,-0.,1.));
#1020 = ORIENTED_EDGE('',*,*,#1021,.T.);
#1021 = EDGE_CURVE('',#1013,#1022,#1024,.T.);
#1022 = VERTEX_POINT('',#1023);
#1023 = CARTESIAN_POINT('',(-17.5,-13.75,95.));
#1024 = LINE('',#1025,#1026);
#1025 = CARTESIAN_POINT('',(-17.5,-13.75,82.5));
#1026 = VECTOR('',#1027,1.);
#1027 = DIRECTION('',(0.,0.,1.));
#1028 = ORIENTED_EDGE('',*,*,#1029,.F.);
#1029 = EDGE_CURVE('',#1030,#1022,#1032,.T.);
#1030 = VERTEX_POINT('',#1031);
#1031 = CARTESIAN_POINT('',(-15.,-13.75,97.5));
#1032 = CIRCLE('',#1033,2.5);
#1033 = AXIS2_PLACEMENT_3D('',#1034,#1035,#1036);
#1034 = CARTESIAN_POINT('',(-17.5,-13.75,97.5));
#1035 = DIRECTION('',(0.,1.,0.));
#1036 = DIRECTION('',(0.,-0.,1.));
#1037 = ORIENTED_EDGE('',*,*,#1038,.T.);
#1038 = EDGE_CURVE('',#1030,#1039,#1041,.T.);
#1039 = VERTEX_POINT('',#1040);
#1040 = CARTESIAN_POINT('',(15.,-13.75,97.5));
#1041 = LINE('',#1042,#1043);
#1042 = CARTESIAN_POINT('',(-17.5,-13.75,97.5));
#1043 = VECTOR('',#1044,1.);
#1044 = DIRECTION('',(1.,0.,-0.));
#1045 = ORIENTED_EDGE('',*,*,#1046,.F.);
#1046 = EDGE_CURVE('',#1047,#1039,#1049,.T.);
#1047 = VERTEX_POINT('',#1048);
#1048 = CARTESIAN_POINT('',(17.5,-13.75,95.));
#1049 = CIRCLE('',#1050,2.5);
#1050 = AXIS2_PLACEMENT_3D('',#1051,#1052,#1053);
#1051 = CARTESIAN_POINT('',(17.5,-13.75,97.5));
#1052 = DIRECTION('',(0.,1.,0.));
#1053 = DIRECTION('',(0.,-0.,1.));
#1054 = ORIENTED_EDGE('',*,*,#1055,.F.);
#1055 = EDGE_CURVE('',#1056,#1047,#1058,.T.);
#1056 = VERTEX_POINT('',#1057);
#1057 = CARTESIAN_POINT('',(17.5,-13.75,85.));
#1058 = LINE('',#1059,#1060);
#1059 = CARTESIAN_POINT('',(17.5,-13.75,82.5));
#1060 = VECTOR('',#1061,1.);
#1061 = DIRECTION('',(0.,0.,1.));
#1062 = ORIENTED_EDGE('',*,*,#1063,.F.);
#1063 = EDGE_CURVE('',#1064,#1056,#1066,.T.);
#1064 = VERTEX_POINT('',#1065);
#1065 = CARTESIAN_POINT('',(15.,-13.75,82.5));
#1066 = CIRCLE('',#1067,2.5);
#1067 = AXIS2_PLACEMENT_3D('',#1068,#1069,#1070);
#1068 = CARTESIAN_POINT('',(17.5,-13.75,82.5));
#1069 = DIRECTION('',(0.,1.,0.));
#1070 = DIRECTION('',(0.,-0.,1.));
#1071 = ORIENTED_EDGE('',*,*,#1072,.F.);
#1072 = EDGE_CURVE('',#766,#1064,#1073,.T.);
#1073 = LINE('',#1074,#1075);
#1074 = CARTESIAN_POINT('',(-17.5,-13.75,82.5));
#1075 = VECTOR('',#1076,1.);
#1076 = DIRECTION('',(1.,0.,-0.));
#1077 = ORIENTED_EDGE('',*,*,#773,.T.);
#1078 = ORIENTED_EDGE('',*,*,#989,.F.);
#1079 = ORIENTED_EDGE('',*,*,#1080,.F.);
#1080 = EDGE_CURVE('',#732,#974,#1081,.T.);
#1081 = CIRCLE('',#1082,1.8);
#1082 = AXIS2_PLACEMENT_3D('',#1083,#1084,#1085);
#1083 = CARTESIAN_POINT('',(0.,-13.75,90.));
#1084 = DIRECTION('',(0.,1.,0.));
#1085 = DIRECTION('',(0.,-0.,1.));
#1086 = ORIENTED_EDGE('',*,*,#740,.F.);
#1087 = PLANE('',#1088);
#1088 = AXIS2_PLACEMENT_3D('',#1089,#1090,#1091);
#1089 = CARTESIAN_POINT('',(-17.5,-13.75,82.5));
#1090 = DIRECTION('',(-0.,1.,0.));
#1091 = DIRECTION('',(0.,0.,1.));
#1092 = ADVANCED_FACE('',(#1093),#1112,.F.);
#1093 = FACE_BOUND('',#1094,.F.);
#1094 = EDGE_LOOP('',(#1095,#1103,#1104,#1105));
#1095 = ORIENTED_EDGE('',*,*,#1096,.F.);
#1096 = EDGE_CURVE('',#757,#1097,#1099,.T.);
#1097 = VERTEX_POINT('',#1098);
#1098 = CARTESIAN_POINT('',(17.5,-13.75,80.));
#1099 = LINE('',#1100,#1101);
#1100 = CARTESIAN_POINT('',(-17.5,-13.75,80.));
#1101 = VECTOR('',#1102,1.);
#1102 = DIRECTION('',(1.,0.,-0.));
#1103 = ORIENTED_EDGE('',*,*,#765,.T.);
#1104 = ORIENTED_EDGE('',*,*,#1072,.T.);
#1105 = ORIENTED_EDGE('',*,*,#1106,.F.);
#1106 = EDGE_CURVE('',#1097,#1064,#1107,.T.);
#1107 = CIRCLE('',#1108,2.5);
#1108 = AXIS2_PLACEMENT_3D('',#1109,#1110,#1111);
#1109 = CARTESIAN_POINT('',(17.5,-13.75,82.5));
#1110 = DIRECTION('',(0.,1.,0.));
#1111 = DIRECTION('',(0.,-0.,1.));
#1112 = PLANE('',#1113);
#1113 = AXIS2_PLACEMENT_3D('',#1114,#1115,#1116);
#1114 = CARTESIAN_POINT('',(-17.5,-13.75,80.));
#1115 = DIRECTION('',(-0.,1.,0.));
#1116 = DIRECTION('',(0.,0.,1.));
#1117 = ADVANCED_FACE('',(#1118),#1152,.F.);
#1118 = FACE_BOUND('',#1119,.F.);
#1119 = EDGE_LOOP('',(#1120,#1130,#1136,#1137,#1138,#1146));
#1120 = ORIENTED_EDGE('',*,*,#1121,.F.);
#1121 = EDGE_CURVE('',#1122,#1124,#1126,.T.);
#1122 = VERTEX_POINT('',#1123);
#1123 = CARTESIAN_POINT('',(-17.5,-13.75,80.));
#1124 = VERTEX_POINT('',#1125);
#1125 = CARTESIAN_POINT('',(-17.5,-11.25,80.));
#1126 = LINE('',#1127,#1128);
#1127 = CARTESIAN_POINT('',(-17.5,-13.75,80.));
#1128 = VECTOR('',#1129,1.);
#1129 = DIRECTION('',(-0.,1.,0.));
#1130 = ORIENTED_EDGE('',*,*,#1131,.T.);
#1131 = EDGE_CURVE('',#1122,#749,#1132,.T.);
#1132 = LINE('',#1133,#1134);
#1133 = CARTESIAN_POINT('',(-17.5,-13.75,80.));
#1134 = VECTOR('',#1135,1.);
#1135 = DIRECTION('',(1.,0.,-0.));
#1136 = ORIENTED_EDGE('',*,*,#756,.F.);
#1137 = ORIENTED_EDGE('',*,*,#1096,.T.);
#1138 = ORIENTED_EDGE('',*,*,#1139,.T.);
#1139 = EDGE_CURVE('',#1097,#1140,#1142,.T.);
#1140 = VERTEX_POINT('',#1141);
#1141 = CARTESIAN_POINT('',(17.5,-11.25,80.));
#1142 = LINE('',#1143,#1144);
#1143 = CARTESIAN_POINT('',(17.5,-13.75,80.));
#1144 = VECTOR('',#1145,1.);
#1145 = DIRECTION('',(-0.,1.,0.));
#1146 = ORIENTED_EDGE('',*,*,#1147,.F.);
#1147 = EDGE_CURVE('',#1124,#1140,#1148,.T.);
#1148 = LINE('',#1149,#1150);
#1149 = CARTESIAN_POINT('',(-17.5,-11.25,80.));
#1150 = VECTOR('',#1151,1.);
#1151 = DIRECTION('',(1.,0.,-0.));
#1152 = PLANE('',#1153);
#1153 = AXIS2_PLACEMENT_3D('',#1154,#1155,#1156);
#1154 = CARTESIAN_POINT('',(-17.5,-13.75,80.));
#1155 = DIRECTION('',(0.,0.,1.));
#1156 = DIRECTION('',(1.,0.,-0.));
#1157 = ADVANCED_FACE('',(#1158),#1170,.F.);
#1158 = FACE_BOUND('',#1159,.F.);
#1159 = EDGE_LOOP('',(#1160,#1161,#1168,#1169));
#1160 = ORIENTED_EDGE('',*,*,#1131,.F.);
#1161 = ORIENTED_EDGE('',*,*,#1162,.F.);
#1162 = EDGE_CURVE('',#1005,#1122,#1163,.T.);
#1163 = CIRCLE('',#1164,2.5);
#1164 = AXIS2_PLACEMENT_3D('',#1165,#1166,#1167);
#1165 = CARTESIAN_POINT('',(-17.5,-13.75,82.5));
#1166 = DIRECTION('',(0.,1.,0.));
#1167 = DIRECTION('',(0.,-0.,1.));
#1168 = ORIENTED_EDGE('',*,*,#1004,.T.);
#1169 = ORIENTED_EDGE('',*,*,#748,.F.);
#1170 = PLANE('',#1171);
#1171 = AXIS2_PLACEMENT_3D('',#1172,#1173,#1174);
#1172 = CARTESIAN_POINT('',(-17.5,-13.75,80.));
#1173 = DIRECTION('',(-0.,1.,0.));
#1174 = DIRECTION('',(0.,0.,1.));
#1175 = ADVANCED_FACE('',(#1176),#1188,.T.);
#1176 = FACE_BOUND('',#1177,.T.);
#1177 = EDGE_LOOP('',(#1178,#1185,#1186,#1187));
#1178 = ORIENTED_EDGE('',*,*,#1179,.T.);
#1179 = EDGE_CURVE('',#723,#972,#1180,.T.);
#1180 = CIRCLE('',#1181,1.8);
#1181 = AXIS2_PLACEMENT_3D('',#1182,#1183,#1184);
#1182 = CARTESIAN_POINT('',(0.,-14.,90.));
#1183 = DIRECTION('',(0.,1.,0.));
#1184 = DIRECTION('',(0.,-0.,1.));
#1185 = ORIENTED_EDGE('',*,*,#971,.T.);
#1186 = ORIENTED_EDGE('',*,*,#1080,.F.);
#1187 = ORIENTED_EDGE('',*,*,#731,.T.);
#1188 = CYLINDRICAL_SURFACE('',#1189,1.8);
#1189 = AXIS2_PLACEMENT_3D('',#1190,#1191,#1192);
#1190 = CARTESIAN_POINT('',(0.,-14.,90.));
#1191 = DIRECTION('',(0.,1.,0.));
#1192 = DIRECTION('',(0.,-0.,1.));
#1193 = ADVANCED_FACE('',(#1194),#1203,.T.);
#1194 = FACE_BOUND('',#1195,.T.);
#1195 = EDGE_LOOP('',(#1196,#1197));
#1196 = ORIENTED_EDGE('',*,*,#722,.T.);
#1197 = ORIENTED_EDGE('',*,*,#1198,.T.);
#1198 = EDGE_CURVE('',#715,#723,#1199,.T.);
#1199 = LINE('',#1200,#1201);
#1200 = CARTESIAN_POINT('',(0.,-14.,90.));
#1201 = VECTOR('',#1202,1.);
#1202 = DIRECTION('',(-1.,0.,0.));
#1203 = PLANE('',#1204);
#1204 = AXIS2_PLACEMENT_3D('',#1205,#1206,#1207);
#1205 = CARTESIAN_POINT('',(0.,-14.,90.));
#1206 = DIRECTION('',(0.,0.,1.));
#1207 = DIRECTION('',(1.,0.,-0.));
#1208 = ADVANCED_FACE('',(#1209),#1235,.T.);
#1209 = FACE_BOUND('',#1210,.T.);
#1210 = EDGE_LOOP('',(#1211,#1219,#1220,#1228));
#1211 = ORIENTED_EDGE('',*,*,#1212,.F.);
#1212 = EDGE_CURVE('',#824,#1213,#1215,.T.);
#1213 = VERTEX_POINT('',#1214);
#1214 = CARTESIAN_POINT('',(19.999999999999,10.,54.999999999999));
#1215 = LINE('',#1216,#1217);
#1216 = CARTESIAN_POINT('',(20.,10.,40.));
#1217 = VECTOR('',#1218,1.);
#1218 = DIRECTION('',(0.,0.,1.));
#1219 = ORIENTED_EDGE('',*,*,#823,.T.);
#1220 = ORIENTED_EDGE('',*,*,#1221,.T.);
#1221 = EDGE_CURVE('',#826,#1222,#1224,.T.);
#1222 = VERTEX_POINT('',#1223);
#1223 = CARTESIAN_POINT('',(-19.99999999999,10.,54.999999999999));
#1224 = LINE('',#1225,#1226);
#1225 = CARTESIAN_POINT('',(-20.,10.,40.));
#1226 = VECTOR('',#1227,1.);
#1227 = DIRECTION('',(0.,0.,1.));
#1228 = ORIENTED_EDGE('',*,*,#1229,.F.);
#1229 = EDGE_CURVE('',#1213,#1222,#1230,.T.);
#1230 = CIRCLE('',#1231,42.5);
#1231 = AXIS2_PLACEMENT_3D('',#1232,#1233,#1234);
#1232 = CARTESIAN_POINT('',(0.,10.,92.5));
#1233 = DIRECTION('',(0.,1.,0.));
#1234 = DIRECTION('',(0.,-0.,1.));
#1235 = PLANE('',#1236);
#1236 = AXIS2_PLACEMENT_3D('',#1237,#1238,#1239);
#1237 = CARTESIAN_POINT('',(0.,10.,92.5));
#1238 = DIRECTION('',(0.,1.,0.));
#1239 = DIRECTION('',(0.,-0.,1.));
#1240 = ADVANCED_FACE('',(#1241),#1252,.F.);
#1241 = FACE_BOUND('',#1242,.F.);
#1242 = EDGE_LOOP('',(#1243,#1244,#1245,#1246));
#1243 = ORIENTED_EDGE('',*,*,#908,.F.);
#1244 = ORIENTED_EDGE('',*,*,#883,.T.);
#1245 = ORIENTED_EDGE('',*,*,#1221,.T.);
#1246 = ORIENTED_EDGE('',*,*,#1247,.F.);
#1247 = EDGE_CURVE('',#909,#1222,#1248,.T.);
#1248 = LINE('',#1249,#1250);
#1249 = CARTESIAN_POINT('',(-20.,-11.,55.));
#1250 = VECTOR('',#1251,1.);
#1251 = DIRECTION('',(0.,1.,0.));
#1252 = PLANE('',#1253);
#1253 = AXIS2_PLACEMENT_3D('',#1254,#1255,#1256);
#1254 = CARTESIAN_POINT('',(-20.,-10.,40.));
#1255 = DIRECTION('',(1.,0.,-0.));
#1256 = DIRECTION('',(0.,0.,1.));
#1257 = ADVANCED_FACE('',(#1258),#1269,.T.);
#1258 = FACE_BOUND('',#1259,.T.);
#1259 = EDGE_LOOP('',(#1260,#1261,#1262,#1263));
#1260 = ORIENTED_EDGE('',*,*,#897,.F.);
#1261 = ORIENTED_EDGE('',*,*,#834,.T.);
#1262 = ORIENTED_EDGE('',*,*,#1212,.T.);
#1263 = ORIENTED_EDGE('',*,*,#1264,.F.);
#1264 = EDGE_CURVE('',#898,#1213,#1265,.T.);
#1265 = LINE('',#1266,#1267);
#1266 = CARTESIAN_POINT('',(20.,-11.,55.));
#1267 = VECTOR('',#1268,1.);
#1268 = DIRECTION('',(0.,1.,0.));
#1269 = PLANE('',#1270);
#1270 = AXIS2_PLACEMENT_3D('',#1271,#1272,#1273);
#1271 = CARTESIAN_POINT('',(20.,-10.,40.));
#1272 = DIRECTION('',(1.,0.,-0.));
#1273 = DIRECTION('',(0.,0.,1.));
#1274 = ADVANCED_FACE('',(#1275),#1281,.F.);
#1275 = FACE_BOUND('',#1276,.F.);
#1276 = EDGE_LOOP('',(#1277,#1278,#1279,#1280));
#1277 = ORIENTED_EDGE('',*,*,#1229,.F.);
#1278 = ORIENTED_EDGE('',*,*,#1264,.F.);
#1279 = ORIENTED_EDGE('',*,*,#916,.T.);
#1280 = ORIENTED_EDGE('',*,*,#1247,.T.);
#1281 = CYLINDRICAL_SURFACE('',#1282,42.5);
#1282 = AXIS2_PLACEMENT_3D('',#1283,#1284,#1285);
#1283 = CARTESIAN_POINT('',(0.,-11.,92.5));
#1284 = DIRECTION('',(0.,1.,0.));
#1285 = DIRECTION('',(0.,-0.,1.));
#1286 = ADVANCED_FACE('',(#1287),#1292,.F.);
#1287 = FACE_BOUND('',#1288,.F.);
#1288 = EDGE_LOOP('',(#1289,#1290,#1291));
#1289 = ORIENTED_EDGE('',*,*,#1179,.T.);
#1290 = ORIENTED_EDGE('',*,*,#981,.T.);
#1291 = ORIENTED_EDGE('',*,*,#1198,.T.);
#1292 = PLANE('',#1293);
#1293 = AXIS2_PLACEMENT_3D('',#1294,#1295,#1296);
#1294 = CARTESIAN_POINT('',(0.,-14.,90.));
#1295 = DIRECTION('',(0.,1.,0.));
#1296 = DIRECTION('',(0.,-0.,1.));
#1297 = ADVANCED_FACE('',(#1298),#1315,.F.);
#1298 = FACE_BOUND('',#1299,.F.);
#1299 = EDGE_LOOP('',(#1300,#1308,#1309));
#1300 = ORIENTED_EDGE('',*,*,#1301,.F.);
#1301 = EDGE_CURVE('',#1064,#1302,#1304,.T.);
#1302 = VERTEX_POINT('',#1303);
#1303 = CARTESIAN_POINT('',(17.5,-13.75,82.5));
#1304 = LINE('',#1305,#1306);
#1305 = CARTESIAN_POINT('',(-17.5,-13.75,82.5));
#1306 = VECTOR('',#1307,1.);
#1307 = DIRECTION('',(1.,0.,-0.));
#1308 = ORIENTED_EDGE('',*,*,#1063,.T.);
#1309 = ORIENTED_EDGE('',*,*,#1310,.F.);
#1310 = EDGE_CURVE('',#1302,#1056,#1311,.T.);
#1311 = LINE('',#1312,#1313);
#1312 = CARTESIAN_POINT('',(17.5,-13.75,82.5));
#1313 = VECTOR('',#1314,1.);
#1314 = DIRECTION('',(0.,0.,1.));
#1315 = PLANE('',#1316);
#1316 = AXIS2_PLACEMENT_3D('',#1317,#1318,#1319);
#1317 = CARTESIAN_POINT('',(-17.5,-13.75,82.5));
#1318 = DIRECTION('',(-0.,1.,0.));
#1319 = DIRECTION('',(0.,0.,1.));
#1320 = ADVANCED_FACE('',(#1321),#1348,.F.);
#1321 = FACE_BOUND('',#1322,.F.);
#1322 = EDGE_LOOP('',(#1323,#1332,#1333,#1342));
#1323 = ORIENTED_EDGE('',*,*,#1324,.F.);
#1324 = EDGE_CURVE('',#1056,#1325,#1327,.T.);
#1325 = VERTEX_POINT('',#1326);
#1326 = CARTESIAN_POINT('',(20.,-13.75,82.5));
#1327 = CIRCLE('',#1328,2.5);
#1328 = AXIS2_PLACEMENT_3D('',#1329,#1330,#1331);
#1329 = CARTESIAN_POINT('',(17.5,-13.75,82.5));
#1330 = DIRECTION('',(0.,1.,0.));
#1331 = DIRECTION('',(0.,-0.,1.));
#1332 = ORIENTED_EDGE('',*,*,#1055,.T.);
#1333 = ORIENTED_EDGE('',*,*,#1334,.F.);
#1334 = EDGE_CURVE('',#1335,#1047,#1337,.T.);
#1335 = VERTEX_POINT('',#1336);
#1336 = CARTESIAN_POINT('',(20.,-13.75,97.5));
#1337 = CIRCLE('',#1338,2.5);
#1338 = AXIS2_PLACEMENT_3D('',#1339,#1340,#1341);
#1339 = CARTESIAN_POINT('',(17.5,-13.75,97.5));
#1340 = DIRECTION('',(0.,1.,0.));
#1341 = DIRECTION('',(0.,-0.,1.));
#1342 = ORIENTED_EDGE('',*,*,#1343,.F.);
#1343 = EDGE_CURVE('',#1325,#1335,#1344,.T.);
#1344 = LINE('',#1345,#1346);
#1345 = CARTESIAN_POINT('',(20.,-13.75,82.5));
#1346 = VECTOR('',#1347,1.);
#1347 = DIRECTION('',(0.,0.,1.));
#1348 = PLANE('',#1349);
#1349 = AXIS2_PLACEMENT_3D('',#1350,#1351,#1352);
#1350 = CARTESIAN_POINT('',(-20.,-13.75,82.5));
#1351 = DIRECTION('',(-0.,1.,0.));
#1352 = DIRECTION('',(0.,0.,1.));
#1353 = ADVANCED_FACE('',(#1354),#1371,.F.);
#1354 = FACE_BOUND('',#1355,.F.);
#1355 = EDGE_LOOP('',(#1356,#1364,#1365));
#1356 = ORIENTED_EDGE('',*,*,#1357,.F.);
#1357 = EDGE_CURVE('',#1047,#1358,#1360,.T.);
#1358 = VERTEX_POINT('',#1359);
#1359 = CARTESIAN_POINT('',(17.5,-13.75,97.5));
#1360 = LINE('',#1361,#1362);
#1361 = CARTESIAN_POINT('',(17.5,-13.75,82.5));
#1362 = VECTOR('',#1363,1.);
#1363 = DIRECTION('',(0.,0.,1.));
#1364 = ORIENTED_EDGE('',*,*,#1046,.T.);
#1365 = ORIENTED_EDGE('',*,*,#1366,.T.);
#1366 = EDGE_CURVE('',#1039,#1358,#1367,.T.);
#1367 = LINE('',#1368,#1369);
#1368 = CARTESIAN_POINT('',(-17.5,-13.75,97.5));
#1369 = VECTOR('',#1370,1.);
#1370 = DIRECTION('',(1.,0.,-0.));
#1371 = PLANE('',#1372);
#1372 = AXIS2_PLACEMENT_3D('',#1373,#1374,#1375);
#1373 = CARTESIAN_POINT('',(-17.5,-13.75,82.5));
#1374 = DIRECTION('',(-0.,1.,0.));
#1375 = DIRECTION('',(0.,0.,1.));
#1376 = ADVANCED_FACE('',(#1377),#1404,.F.);
#1377 = FACE_BOUND('',#1378,.F.);
#1378 = EDGE_LOOP('',(#1379,#1380,#1389,#1397));
#1379 = ORIENTED_EDGE('',*,*,#1038,.F.);
#1380 = ORIENTED_EDGE('',*,*,#1381,.F.);
#1381 = EDGE_CURVE('',#1382,#1030,#1384,.T.);
#1382 = VERTEX_POINT('',#1383);
#1383 = CARTESIAN_POINT('',(-17.5,-13.75,100.));
#1384 = CIRCLE('',#1385,2.5);
#1385 = AXIS2_PLACEMENT_3D('',#1386,#1387,#1388);
#1386 = CARTESIAN_POINT('',(-17.5,-13.75,97.5));
#1387 = DIRECTION('',(0.,1.,0.));
#1388 = DIRECTION('',(0.,-0.,1.));
#1389 = ORIENTED_EDGE('',*,*,#1390,.T.);
#1390 = EDGE_CURVE('',#1382,#1391,#1393,.T.);
#1391 = VERTEX_POINT('',#1392);
#1392 = CARTESIAN_POINT('',(17.5,-13.75,100.));
#1393 = LINE('',#1394,#1395);
#1394 = CARTESIAN_POINT('',(-17.5,-13.75,100.));
#1395 = VECTOR('',#1396,1.);
#1396 = DIRECTION('',(1.,0.,-0.));
#1397 = ORIENTED_EDGE('',*,*,#1398,.F.);
#1398 = EDGE_CURVE('',#1039,#1391,#1399,.T.);
#1399 = CIRCLE('',#1400,2.5);
#1400 = AXIS2_PLACEMENT_3D('',#1401,#1402,#1403);
#1401 = CARTESIAN_POINT('',(17.5,-13.75,97.5));
#1402 = DIRECTION('',(0.,1.,0.));
#1403 = DIRECTION('',(0.,-0.,1.));
#1404 = PLANE('',#1405);
#1405 = AXIS2_PLACEMENT_3D('',#1406,#1407,#1408);
#1406 = CARTESIAN_POINT('',(-17.5,-13.75,80.));
#1407 = DIRECTION('',(-0.,1.,0.));
#1408 = DIRECTION('',(0.,0.,1.));
#1409 = ADVANCED_FACE('',(#1410),#1427,.F.);
#1410 = FACE_BOUND('',#1411,.F.);
#1411 = EDGE_LOOP('',(#1412,#1413,#1421));
#1412 = ORIENTED_EDGE('',*,*,#1029,.T.);
#1413 = ORIENTED_EDGE('',*,*,#1414,.T.);
#1414 = EDGE_CURVE('',#1022,#1415,#1417,.T.);
#1415 = VERTEX_POINT('',#1416);
#1416 = CARTESIAN_POINT('',(-17.5,-13.75,97.5));
#1417 = LINE('',#1418,#1419);
#1418 = CARTESIAN_POINT('',(-17.5,-13.75,82.5));
#1419 = VECTOR('',#1420,1.);
#1420 = DIRECTION('',(0.,0.,1.));
#1421 = ORIENTED_EDGE('',*,*,#1422,.T.);
#1422 = EDGE_CURVE('',#1415,#1030,#1423,.T.);
#1423 = LINE('',#1424,#1425);
#1424 = CARTESIAN_POINT('',(-17.5,-13.75,97.5));
#1425 = VECTOR('',#1426,1.);
#1426 = DIRECTION('',(1.,0.,-0.));
#1427 = PLANE('',#1428);
#1428 = AXIS2_PLACEMENT_3D('',#1429,#1430,#1431);
#1429 = CARTESIAN_POINT('',(-17.5,-13.75,82.5));
#1430 = DIRECTION('',(-0.,1.,0.));
#1431 = DIRECTION('',(0.,0.,1.));
#1432 = ADVANCED_FACE('',(#1433),#1460,.F.);
#1433 = FACE_BOUND('',#1434,.F.);
#1434 = EDGE_LOOP('',(#1435,#1444,#1452,#1459));
#1435 = ORIENTED_EDGE('',*,*,#1436,.F.);
#1436 = EDGE_CURVE('',#1437,#1013,#1439,.T.);
#1437 = VERTEX_POINT('',#1438);
#1438 = CARTESIAN_POINT('',(-20.,-13.75,82.5));
#1439 = CIRCLE('',#1440,2.5);
#1440 = AXIS2_PLACEMENT_3D('',#1441,#1442,#1443);
#1441 = CARTESIAN_POINT('',(-17.5,-13.75,82.5));
#1442 = DIRECTION('',(0.,1.,0.));
#1443 = DIRECTION('',(0.,-0.,1.));
#1444 = ORIENTED_EDGE('',*,*,#1445,.T.);
#1445 = EDGE_CURVE('',#1437,#1446,#1448,.T.);
#1446 = VERTEX_POINT('',#1447);
#1447 = CARTESIAN_POINT('',(-20.,-13.75,97.5));
#1448 = LINE('',#1449,#1450);
#1449 = CARTESIAN_POINT('',(-20.,-13.75,82.5));
#1450 = VECTOR('',#1451,1.);
#1451 = DIRECTION('',(0.,0.,1.));
#1452 = ORIENTED_EDGE('',*,*,#1453,.F.);
#1453 = EDGE_CURVE('',#1022,#1446,#1454,.T.);
#1454 = CIRCLE('',#1455,2.5);
#1455 = AXIS2_PLACEMENT_3D('',#1456,#1457,#1458);
#1456 = CARTESIAN_POINT('',(-17.5,-13.75,97.5));
#1457 = DIRECTION('',(0.,1.,0.));
#1458 = DIRECTION('',(0.,-0.,1.));
#1459 = ORIENTED_EDGE('',*,*,#1021,.F.);
#1460 = PLANE('',#1461);
#1461 = AXIS2_PLACEMENT_3D('',#1462,#1463,#1464);
#1462 = CARTESIAN_POINT('',(-20.,-13.75,82.5));
#1463 = DIRECTION('',(-0.,1.,0.));
#1464 = DIRECTION('',(0.,0.,1.));
#1465 = ADVANCED_FACE('',(#1466),#1483,.F.);
#1466 = FACE_BOUND('',#1467,.F.);
#1467 = EDGE_LOOP('',(#1468,#1476,#1482));
#1468 = ORIENTED_EDGE('',*,*,#1469,.F.);
#1469 = EDGE_CURVE('',#1470,#1005,#1472,.T.);
#1470 = VERTEX_POINT('',#1471);
#1471 = CARTESIAN_POINT('',(-17.5,-13.75,82.5));
#1472 = LINE('',#1473,#1474);
#1473 = CARTESIAN_POINT('',(-17.5,-13.75,82.5));
#1474 = VECTOR('',#1475,1.);
#1475 = DIRECTION('',(1.,0.,-0.));
#1476 = ORIENTED_EDGE('',*,*,#1477,.T.);
#1477 = EDGE_CURVE('',#1470,#1013,#1478,.T.);
#1478 = LINE('',#1479,#1480);
#1479 = CARTESIAN_POINT('',(-17.5,-13.75,82.5));
#1480 = VECTOR('',#1481,1.);
#1481 = DIRECTION('',(0.,0.,1.));
#1482 = ORIENTED_EDGE('',*,*,#1012,.T.);
#1483 = PLANE('',#1484);
#1484 = AXIS2_PLACEMENT_3D('',#1485,#1486,#1487);
#1485 = CARTESIAN_POINT('',(-17.5,-13.75,82.5));
#1486 = DIRECTION('',(-0.,1.,0.));
#1487 = DIRECTION('',(0.,0.,1.));
#1488 = ADVANCED_FACE('',(#1489),#1499,.F.);
#1489 = FACE_BOUND('',#1490,.F.);
#1490 = EDGE_LOOP('',(#1491,#1497,#1498));
#1491 = ORIENTED_EDGE('',*,*,#1492,.F.);
#1492 = EDGE_CURVE('',#1097,#1302,#1493,.T.);
#1493 = LINE('',#1494,#1495);
#1494 = CARTESIAN_POINT('',(17.5,-13.75,80.));
#1495 = VECTOR('',#1496,1.);
#1496 = DIRECTION('',(0.,0.,1.));
#1497 = ORIENTED_EDGE('',*,*,#1106,.T.);
#1498 = ORIENTED_EDGE('',*,*,#1301,.T.);
#1499 = PLANE('',#1500);
#1500 = AXIS2_PLACEMENT_3D('',#1501,#1502,#1503);
#1501 = CARTESIAN_POINT('',(-17.5,-13.75,80.));
#1502 = DIRECTION('',(-0.,1.,0.));
#1503 = DIRECTION('',(0.,0.,1.));
#1504 = ADVANCED_FACE('',(#1505),#1530,.T.);
#1505 = FACE_BOUND('',#1506,.T.);
#1506 = EDGE_LOOP('',(#1507,#1516,#1517,#1524));
#1507 = ORIENTED_EDGE('',*,*,#1508,.F.);
#1508 = EDGE_CURVE('',#1124,#1509,#1511,.T.);
#1509 = VERTEX_POINT('',#1510);
#1510 = CARTESIAN_POINT('',(-20.,-11.25,82.5));
#1511 = CIRCLE('',#1512,2.5);
#1512 = AXIS2_PLACEMENT_3D('',#1513,#1514,#1515);
#1513 = CARTESIAN_POINT('',(-17.5,-11.25,82.5));
#1514 = DIRECTION('',(0.,1.,0.));
#1515 = DIRECTION('',(0.,-0.,1.));
#1516 = ORIENTED_EDGE('',*,*,#1121,.F.);
#1517 = ORIENTED_EDGE('',*,*,#1518,.T.);
#1518 = EDGE_CURVE('',#1122,#1437,#1519,.T.);
#1519 = CIRCLE('',#1520,2.5);
#1520 = AXIS2_PLACEMENT_3D('',#1521,#1522,#1523);
#1521 = CARTESIAN_POINT('',(-17.5,-13.75,82.5));
#1522 = DIRECTION('',(0.,1.,0.));
#1523 = DIRECTION('',(0.,-0.,1.));
#1524 = ORIENTED_EDGE('',*,*,#1525,.T.);
#1525 = EDGE_CURVE('',#1437,#1509,#1526,.T.);
#1526 = LINE('',#1527,#1528);
#1527 = CARTESIAN_POINT('',(-20.,-13.75,82.5));
#1528 = VECTOR('',#1529,1.);
#1529 = DIRECTION('',(-0.,1.,0.));
#1530 = CYLINDRICAL_SURFACE('',#1531,2.5);
#1531 = AXIS2_PLACEMENT_3D('',#1532,#1533,#1534);
#1532 = CARTESIAN_POINT('',(-17.5,-13.75,82.5));
#1533 = DIRECTION('',(0.,1.,0.));
#1534 = DIRECTION('',(0.,-0.,1.));
#1535 = ADVANCED_FACE('',(#1536),#1563,.T.);
#1536 = FACE_BOUND('',#1537,.T.);
#1537 = EDGE_LOOP('',(#1538,#1539,#1548,#1556));
#1538 = ORIENTED_EDGE('',*,*,#1147,.F.);
#1539 = ORIENTED_EDGE('',*,*,#1540,.F.);
#1540 = EDGE_CURVE('',#1541,#1124,#1543,.T.);
#1541 = VERTEX_POINT('',#1542);
#1542 = CARTESIAN_POINT('',(-15.,-11.25,82.5));
#1543 = CIRCLE('',#1544,2.5);
#1544 = AXIS2_PLACEMENT_3D('',#1545,#1546,#1547);
#1545 = CARTESIAN_POINT('',(-17.5,-11.25,82.5));
#1546 = DIRECTION('',(0.,1.,0.));
#1547 = DIRECTION('',(0.,-0.,1.));
#1548 = ORIENTED_EDGE('',*,*,#1549,.T.);
#1549 = EDGE_CURVE('',#1541,#1550,#1552,.T.);
#1550 = VERTEX_POINT('',#1551);
#1551 = CARTESIAN_POINT('',(15.,-11.25,82.5));
#1552 = LINE('',#1553,#1554);
#1553 = CARTESIAN_POINT('',(-17.5,-11.25,82.5));
#1554 = VECTOR('',#1555,1.);
#1555 = DIRECTION('',(1.,0.,-0.));
#1556 = ORIENTED_EDGE('',*,*,#1557,.F.);
#1557 = EDGE_CURVE('',#1140,#1550,#1558,.T.);
#1558 = CIRCLE('',#1559,2.5);
#1559 = AXIS2_PLACEMENT_3D('',#1560,#1561,#1562);
#1560 = CARTESIAN_POINT('',(17.5,-11.25,82.5));
#1561 = DIRECTION('',(0.,1.,0.));
#1562 = DIRECTION('',(0.,-0.,1.));
#1563 = PLANE('',#1564);
#1564 = AXIS2_PLACEMENT_3D('',#1565,#1566,#1567);
#1565 = CARTESIAN_POINT('',(-17.5,-11.25,80.));
#1566 = DIRECTION('',(-0.,1.,0.));
#1567 = DIRECTION('',(0.,0.,1.));
#1568 = ADVANCED_FACE('',(#1569),#1594,.T.);
#1569 = FACE_BOUND('',#1570,.T.);
#1570 = EDGE_LOOP('',(#1571,#1580,#1586,#1593));
#1571 = ORIENTED_EDGE('',*,*,#1572,.F.);
#1572 = EDGE_CURVE('',#1573,#1140,#1575,.T.);
#1573 = VERTEX_POINT('',#1574);
#1574 = CARTESIAN_POINT('',(20.,-11.25,82.5));
#1575 = CIRCLE('',#1576,2.5);
#1576 = AXIS2_PLACEMENT_3D('',#1577,#1578,#1579);
#1577 = CARTESIAN_POINT('',(17.5,-11.25,82.5));
#1578 = DIRECTION('',(0.,1.,0.));
#1579 = DIRECTION('',(0.,-0.,1.));
#1580 = ORIENTED_EDGE('',*,*,#1581,.F.);
#1581 = EDGE_CURVE('',#1325,#1573,#1582,.T.);
#1582 = LINE('',#1583,#1584);
#1583 = CARTESIAN_POINT('',(20.,-13.75,82.5));
#1584 = VECTOR('',#1585,1.);
#1585 = DIRECTION('',(-0.,1.,0.));
#1586 = ORIENTED_EDGE('',*,*,#1587,.T.);
#1587 = EDGE_CURVE('',#1325,#1097,#1588,.T.);
#1588 = CIRCLE('',#1589,2.5);
#1589 = AXIS2_PLACEMENT_3D('',#1590,#1591,#1592);
#1590 = CARTESIAN_POINT('',(17.5,-13.75,82.5));
#1591 = DIRECTION('',(0.,1.,0.));
#1592 = DIRECTION('',(0.,-0.,1.));
#1593 = ORIENTED_EDGE('',*,*,#1139,.T.);
#1594 = CYLINDRICAL_SURFACE('',#1595,2.5);
#1595 = AXIS2_PLACEMENT_3D('',#1596,#1597,#1598);
#1596 = CARTESIAN_POINT('',(17.5,-13.75,82.5));
#1597 = DIRECTION('',(0.,1.,0.));
#1598 = DIRECTION('',(0.,-0.,1.));
#1599 = ADVANCED_FACE('',(#1600),#1610,.F.);
#1600 = FACE_BOUND('',#1601,.F.);
#1601 = EDGE_LOOP('',(#1602,#1603,#1609));
#1602 = ORIENTED_EDGE('',*,*,#1162,.T.);
#1603 = ORIENTED_EDGE('',*,*,#1604,.T.);
#1604 = EDGE_CURVE('',#1122,#1470,#1605,.T.);
#1605 = LINE('',#1606,#1607);
#1606 = CARTESIAN_POINT('',(-17.5,-13.75,80.));
#1607 = VECTOR('',#1608,1.);
#1608 = DIRECTION('',(0.,0.,1.));
#1609 = ORIENTED_EDGE('',*,*,#1469,.T.);
#1610 = PLANE('',#1611);
#1611 = AXIS2_PLACEMENT_3D('',#1612,#1613,#1614);
#1612 = CARTESIAN_POINT('',(-17.5,-13.75,80.));
#1613 = DIRECTION('',(-0.,1.,0.));
#1614 = DIRECTION('',(0.,0.,1.));
#1615 = ADVANCED_FACE('',(#1616),#1626,.F.);
#1616 = FACE_BOUND('',#1617,.F.);
#1617 = EDGE_LOOP('',(#1618,#1624,#1625));
#1618 = ORIENTED_EDGE('',*,*,#1619,.F.);
#1619 = EDGE_CURVE('',#1302,#1325,#1620,.T.);
#1620 = LINE('',#1621,#1622);
#1621 = CARTESIAN_POINT('',(-20.,-13.75,82.5));
#1622 = VECTOR('',#1623,1.);
#1623 = DIRECTION('',(1.,0.,-0.));
#1624 = ORIENTED_EDGE('',*,*,#1310,.T.);
#1625 = ORIENTED_EDGE('',*,*,#1324,.T.);
#1626 = PLANE('',#1627);
#1627 = AXIS2_PLACEMENT_3D('',#1628,#1629,#1630);
#1628 = CARTESIAN_POINT('',(-20.,-13.75,82.5));
#1629 = DIRECTION('',(-0.,1.,0.));
#1630 = DIRECTION('',(0.,0.,1.));
#1631 = ADVANCED_FACE('',(#1632),#1650,.T.);
#1632 = FACE_BOUND('',#1633,.T.);
#1633 = EDGE_LOOP('',(#1634,#1635,#1636,#1644));
#1634 = ORIENTED_EDGE('',*,*,#1343,.F.);
#1635 = ORIENTED_EDGE('',*,*,#1581,.T.);
#1636 = ORIENTED_EDGE('',*,*,#1637,.T.);
#1637 = EDGE_CURVE('',#1573,#1638,#1640,.T.);
#1638 = VERTEX_POINT('',#1639);
#1639 = CARTESIAN_POINT('',(20.,-11.25,97.5));
#1640 = LINE('',#1641,#1642);
#1641 = CARTESIAN_POINT('',(20.,-11.25,82.5));
#1642 = VECTOR('',#1643,1.);
#1643 = DIRECTION('',(0.,0.,1.));
#1644 = ORIENTED_EDGE('',*,*,#1645,.F.);
#1645 = EDGE_CURVE('',#1335,#1638,#1646,.T.);
#1646 = LINE('',#1647,#1648);
#1647 = CARTESIAN_POINT('',(20.,-13.75,97.5));
#1648 = VECTOR('',#1649,1.);
#1649 = DIRECTION('',(-0.,1.,0.));
#1650 = PLANE('',#1651);
#1651 = AXIS2_PLACEMENT_3D('',#1652,#1653,#1654);
#1652 = CARTESIAN_POINT('',(20.,-13.75,82.5));
#1653 = DIRECTION('',(1.,0.,-0.));
#1654 = DIRECTION('',(0.,0.,1.));
#1655 = ADVANCED_FACE('',(#1656),#1666,.F.);
#1656 = FACE_BOUND('',#1657,.F.);
#1657 = EDGE_LOOP('',(#1658,#1659,#1660));
#1658 = ORIENTED_EDGE('',*,*,#1334,.T.);
#1659 = ORIENTED_EDGE('',*,*,#1357,.T.);
#1660 = ORIENTED_EDGE('',*,*,#1661,.T.);
#1661 = EDGE_CURVE('',#1358,#1335,#1662,.T.);
#1662 = LINE('',#1663,#1664);
#1663 = CARTESIAN_POINT('',(-20.,-13.75,97.5));
#1664 = VECTOR('',#1665,1.);
#1665 = DIRECTION('',(1.,0.,-0.));
#1666 = PLANE('',#1667);
#1667 = AXIS2_PLACEMENT_3D('',#1668,#1669,#1670);
#1668 = CARTESIAN_POINT('',(-20.,-13.75,82.5));
#1669 = DIRECTION('',(-0.,1.,0.));
#1670 = DIRECTION('',(0.,0.,1.));
#1671 = ADVANCED_FACE('',(#1672),#1682,.F.);
#1672 = FACE_BOUND('',#1673,.F.);
#1673 = EDGE_LOOP('',(#1674,#1680,#1681));
#1674 = ORIENTED_EDGE('',*,*,#1675,.F.);
#1675 = EDGE_CURVE('',#1358,#1391,#1676,.T.);
#1676 = LINE('',#1677,#1678);
#1677 = CARTESIAN_POINT('',(17.5,-13.75,80.));
#1678 = VECTOR('',#1679,1.);
#1679 = DIRECTION('',(0.,0.,1.));
#1680 = ORIENTED_EDGE('',*,*,#1366,.F.);
#1681 = ORIENTED_EDGE('',*,*,#1398,.T.);
#1682 = PLANE('',#1683);
#1683 = AXIS2_PLACEMENT_3D('',#1684,#1685,#1686);
#1684 = CARTESIAN_POINT('',(-17.5,-13.75,80.));
#1685 = DIRECTION('',(-0.,1.,0.));
#1686 = DIRECTION('',(0.,0.,1.));
#1687 = ADVANCED_FACE('',(#1688),#1713,.T.);
#1688 = FACE_BOUND('',#1689,.T.);
#1689 = EDGE_LOOP('',(#1690,#1698,#1699,#1707));
#1690 = ORIENTED_EDGE('',*,*,#1691,.F.);
#1691 = EDGE_CURVE('',#1382,#1692,#1694,.T.);
#1692 = VERTEX_POINT('',#1693);
#1693 = CARTESIAN_POINT('',(-17.5,-11.25,100.));
#1694 = LINE('',#1695,#1696);
#1695 = CARTESIAN_POINT('',(-17.5,-13.75,100.));
#1696 = VECTOR('',#1697,1.);
#1697 = DIRECTION('',(-0.,1.,0.));
#1698 = ORIENTED_EDGE('',*,*,#1390,.T.);
#1699 = ORIENTED_EDGE('',*,*,#1700,.T.);
#1700 = EDGE_CURVE('',#1391,#1701,#1703,.T.);
#1701 = VERTEX_POINT('',#1702);
#1702 = CARTESIAN_POINT('',(17.5,-11.25,100.));
#1703 = LINE('',#1704,#1705);
#1704 = CARTESIAN_POINT('',(17.5,-13.75,100.));
#1705 = VECTOR('',#1706,1.);
#1706 = DIRECTION('',(-0.,1.,0.));
#1707 = ORIENTED_EDGE('',*,*,#1708,.F.);
#1708 = EDGE_CURVE('',#1692,#1701,#1709,.T.);
#1709 = LINE('',#1710,#1711);
#1710 = CARTESIAN_POINT('',(-17.5,-11.25,100.));
#1711 = VECTOR('',#1712,1.);
#1712 = DIRECTION('',(1.,0.,-0.));
#1713 = PLANE('',#1714);
#1714 = AXIS2_PLACEMENT_3D('',#1715,#1716,#1717);
#1715 = CARTESIAN_POINT('',(-17.5,-13.75,100.));
#1716 = DIRECTION('',(0.,0.,1.));
#1717 = DIRECTION('',(1.,0.,-0.));
#1718 = ADVANCED_FACE('',(#1719),#1729,.F.);
#1719 = FACE_BOUND('',#1720,.F.);
#1720 = EDGE_LOOP('',(#1721,#1722,#1728));
#1721 = ORIENTED_EDGE('',*,*,#1422,.F.);
#1722 = ORIENTED_EDGE('',*,*,#1723,.T.);
#1723 = EDGE_CURVE('',#1415,#1382,#1724,.T.);
#1724 = LINE('',#1725,#1726);
#1725 = CARTESIAN_POINT('',(-17.5,-13.75,80.));
#1726 = VECTOR('',#1727,1.);
#1727 = DIRECTION('',(0.,0.,1.));
#1728 = ORIENTED_EDGE('',*,*,#1381,.T.);
#1729 = PLANE('',#1730);
#1730 = AXIS2_PLACEMENT_3D('',#1731,#1732,#1733);
#1731 = CARTESIAN_POINT('',(-17.5,-13.75,80.));
#1732 = DIRECTION('',(-0.,1.,0.));
#1733 = DIRECTION('',(0.,0.,1.));
#1734 = ADVANCED_FACE('',(#1735),#1745,.F.);
#1735 = FACE_BOUND('',#1736,.F.);
#1736 = EDGE_LOOP('',(#1737,#1738,#1744));
#1737 = ORIENTED_EDGE('',*,*,#1453,.T.);
#1738 = ORIENTED_EDGE('',*,*,#1739,.T.);
#1739 = EDGE_CURVE('',#1446,#1415,#1740,.T.);
#1740 = LINE('',#1741,#1742);
#1741 = CARTESIAN_POINT('',(-20.,-13.75,97.5));
#1742 = VECTOR('',#1743,1.);
#1743 = DIRECTION('',(1.,0.,-0.));
#1744 = ORIENTED_EDGE('',*,*,#1414,.F.);
#1745 = PLANE('',#1746);
#1746 = AXIS2_PLACEMENT_3D('',#1747,#1748,#1749);
#1747 = CARTESIAN_POINT('',(-20.,-13.75,82.5));
#1748 = DIRECTION('',(-0.,1.,0.));
#1749 = DIRECTION('',(0.,0.,1.));
#1750 = ADVANCED_FACE('',(#1751),#1761,.F.);
#1751 = FACE_BOUND('',#1752,.F.);
#1752 = EDGE_LOOP('',(#1753,#1759,#1760));
#1753 = ORIENTED_EDGE('',*,*,#1754,.F.);
#1754 = EDGE_CURVE('',#1437,#1470,#1755,.T.);
#1755 = LINE('',#1756,#1757);
#1756 = CARTESIAN_POINT('',(-20.,-13.75,82.5));
#1757 = VECTOR('',#1758,1.);
#1758 = DIRECTION('',(1.,0.,-0.));
#1759 = ORIENTED_EDGE('',*,*,#1436,.T.);
#1760 = ORIENTED_EDGE('',*,*,#1477,.F.);
#1761 = PLANE('',#1762);
#1762 = AXIS2_PLACEMENT_3D('',#1763,#1764,#1765);
#1763 = CARTESIAN_POINT('',(-20.,-13.75,82.5));
#1764 = DIRECTION('',(-0.,1.,0.));
#1765 = DIRECTION('',(0.,0.,1.));
#1766 = ADVANCED_FACE('',(#1767),#1785,.F.);
#1767 = FACE_BOUND('',#1768,.F.);
#1768 = EDGE_LOOP('',(#1769,#1770,#1771,#1779));
#1769 = ORIENTED_EDGE('',*,*,#1445,.F.);
#1770 = ORIENTED_EDGE('',*,*,#1525,.T.);
#1771 = ORIENTED_EDGE('',*,*,#1772,.T.);
#1772 = EDGE_CURVE('',#1509,#1773,#1775,.T.);
#1773 = VERTEX_POINT('',#1774);
#1774 = CARTESIAN_POINT('',(-20.,-11.25,97.5));
#1775 = LINE('',#1776,#1777);
#1776 = CARTESIAN_POINT('',(-20.,-11.25,82.5));
#1777 = VECTOR('',#1778,1.);
#1778 = DIRECTION('',(0.,0.,1.));
#1779 = ORIENTED_EDGE('',*,*,#1780,.F.);
#1780 = EDGE_CURVE('',#1446,#1773,#1781,.T.);
#1781 = LINE('',#1782,#1783);
#1782 = CARTESIAN_POINT('',(-20.,-13.75,97.5));
#1783 = VECTOR('',#1784,1.);
#1784 = DIRECTION('',(-0.,1.,0.));
#1785 = PLANE('',#1786);
#1786 = AXIS2_PLACEMENT_3D('',#1787,#1788,#1789);
#1787 = CARTESIAN_POINT('',(-20.,-13.75,82.5));
#1788 = DIRECTION('',(1.,0.,-0.));
#1789 = DIRECTION('',(0.,0.,1.));
#1790 = ADVANCED_FACE('',(#1791),#1796,.F.);
#1791 = FACE_BOUND('',#1792,.F.);
#1792 = EDGE_LOOP('',(#1793,#1794,#1795));
#1793 = ORIENTED_EDGE('',*,*,#1619,.T.);
#1794 = ORIENTED_EDGE('',*,*,#1587,.T.);
#1795 = ORIENTED_EDGE('',*,*,#1492,.T.);
#1796 = PLANE('',#1797);
#1797 = AXIS2_PLACEMENT_3D('',#1798,#1799,#1800);
#1798 = CARTESIAN_POINT('',(17.5,-13.75,82.5));
#1799 = DIRECTION('',(0.,1.,0.));
#1800 = DIRECTION('',(0.,-0.,1.));
#1801 = ADVANCED_FACE('',(#1802),#1819,.T.);
#1802 = FACE_BOUND('',#1803,.T.);
#1803 = EDGE_LOOP('',(#1804,#1812,#1813));
#1804 = ORIENTED_EDGE('',*,*,#1805,.F.);
#1805 = EDGE_CURVE('',#1124,#1806,#1808,.T.);
#1806 = VERTEX_POINT('',#1807);
#1807 = CARTESIAN_POINT('',(-17.5,-11.25,82.5));
#1808 = LINE('',#1809,#1810);
#1809 = CARTESIAN_POINT('',(-17.5,-11.25,80.));
#1810 = VECTOR('',#1811,1.);
#1811 = DIRECTION('',(0.,0.,1.));
#1812 = ORIENTED_EDGE('',*,*,#1508,.T.);
#1813 = ORIENTED_EDGE('',*,*,#1814,.T.);
#1814 = EDGE_CURVE('',#1509,#1806,#1815,.T.);
#1815 = LINE('',#1816,#1817);
#1816 = CARTESIAN_POINT('',(-20.,-11.25,82.5));
#1817 = VECTOR('',#1818,1.);
#1818 = DIRECTION('',(1.,0.,-0.));
#1819 = PLANE('',#1820);
#1820 = AXIS2_PLACEMENT_3D('',#1821,#1822,#1823);
#1821 = CARTESIAN_POINT('',(-17.5,-11.25,82.5));
#1822 = DIRECTION('',(0.,1.,0.));
#1823 = DIRECTION('',(0.,-0.,1.));
#1824 = ADVANCED_FACE('',(#1825),#1830,.F.);
#1825 = FACE_BOUND('',#1826,.F.);
#1826 = EDGE_LOOP('',(#1827,#1828,#1829));
#1827 = ORIENTED_EDGE('',*,*,#1604,.F.);
#1828 = ORIENTED_EDGE('',*,*,#1518,.T.);
#1829 = ORIENTED_EDGE('',*,*,#1754,.T.);
#1830 = PLANE('',#1831);
#1831 = AXIS2_PLACEMENT_3D('',#1832,#1833,#1834);
#1832 = CARTESIAN_POINT('',(-17.5,-13.75,82.5));
#1833 = DIRECTION('',(0.,1.,0.));
#1834 = DIRECTION('',(0.,-0.,1.));
#1835 = ADVANCED_FACE('',(#1836),#1853,.T.);
#1836 = FACE_BOUND('',#1837,.T.);
#1837 = EDGE_LOOP('',(#1838,#1846,#1847));
#1838 = ORIENTED_EDGE('',*,*,#1839,.F.);
#1839 = EDGE_CURVE('',#1140,#1840,#1842,.T.);
#1840 = VERTEX_POINT('',#1841);
#1841 = CARTESIAN_POINT('',(17.5,-11.25,82.5));
#1842 = LINE('',#1843,#1844);
#1843 = CARTESIAN_POINT('',(17.5,-11.25,80.));
#1844 = VECTOR('',#1845,1.);
#1845 = DIRECTION('',(0.,0.,1.));
#1846 = ORIENTED_EDGE('',*,*,#1557,.T.);
#1847 = ORIENTED_EDGE('',*,*,#1848,.T.);
#1848 = EDGE_CURVE('',#1550,#1840,#1849,.T.);
#1849 = LINE('',#1850,#1851);
#1850 = CARTESIAN_POINT('',(-17.5,-11.25,82.5));
#1851 = VECTOR('',#1852,1.);
#1852 = DIRECTION('',(1.,0.,-0.));
#1853 = PLANE('',#1854);
#1854 = AXIS2_PLACEMENT_3D('',#1855,#1856,#1857);
#1855 = CARTESIAN_POINT('',(-17.5,-11.25,80.));
#1856 = DIRECTION('',(-0.,1.,0.));
#1857 = DIRECTION('',(0.,0.,1.));
#1858 = ADVANCED_FACE('',(#1859),#1920,.T.);
#1859 = FACE_BOUND('',#1860,.T.);
#1860 = EDGE_LOOP('',(#1861,#1862,#1871,#1879,#1888,#1896,#1905,#1913));
#1861 = ORIENTED_EDGE('',*,*,#1549,.F.);
#1862 = ORIENTED_EDGE('',*,*,#1863,.F.);
#1863 = EDGE_CURVE('',#1864,#1541,#1866,.T.);
#1864 = VERTEX_POINT('',#1865);
#1865 = CARTESIAN_POINT('',(-17.5,-11.25,85.));
#1866 = CIRCLE('',#1867,2.5);
#1867 = AXIS2_PLACEMENT_3D('',#1868,#1869,#1870);
#1868 = CARTESIAN_POINT('',(-17.5,-11.25,82.5));
#1869 = DIRECTION('',(0.,1.,0.));
#1870 = DIRECTION('',(0.,-0.,1.));
#1871 = ORIENTED_EDGE('',*,*,#1872,.T.);
#1872 = EDGE_CURVE('',#1864,#1873,#1875,.T.);
#1873 = VERTEX_POINT('',#1874);
#1874 = CARTESIAN_POINT('',(-17.5,-11.25,95.));
#1875 = LINE('',#1876,#1877);
#1876 = CARTESIAN_POINT('',(-17.5,-11.25,82.5));
#1877 = VECTOR('',#1878,1.);
#1878 = DIRECTION('',(0.,0.,1.));
#1879 = ORIENTED_EDGE('',*,*,#1880,.F.);
#1880 = EDGE_CURVE('',#1881,#1873,#1883,.T.);
#1881 = VERTEX_POINT('',#1882);
#1882 = CARTESIAN_POINT('',(-15.,-11.25,97.5));
#1883 = CIRCLE('',#1884,2.5);
#1884 = AXIS2_PLACEMENT_3D('',#1885,#1886,#1887);
#1885 = CARTESIAN_POINT('',(-17.5,-11.25,97.5));
#1886 = DIRECTION('',(0.,1.,0.));
#1887 = DIRECTION('',(0.,-0.,1.));
#1888 = ORIENTED_EDGE('',*,*,#1889,.T.);
#1889 = EDGE_CURVE('',#1881,#1890,#1892,.T.);
#1890 = VERTEX_POINT('',#1891);
#1891 = CARTESIAN_POINT('',(15.,-11.25,97.5));
#1892 = LINE('',#1893,#1894);
#1893 = CARTESIAN_POINT('',(-17.5,-11.25,97.5));
#1894 = VECTOR('',#1895,1.);
#1895 = DIRECTION('',(1.,0.,-0.));
#1896 = ORIENTED_EDGE('',*,*,#1897,.F.);
#1897 = EDGE_CURVE('',#1898,#1890,#1900,.T.);
#1898 = VERTEX_POINT('',#1899);
#1899 = CARTESIAN_POINT('',(17.5,-11.25,95.));
#1900 = CIRCLE('',#1901,2.5);
#1901 = AXIS2_PLACEMENT_3D('',#1902,#1903,#1904);
#1902 = CARTESIAN_POINT('',(17.5,-11.25,97.5));
#1903 = DIRECTION('',(0.,1.,0.));
#1904 = DIRECTION('',(0.,-0.,1.));
#1905 = ORIENTED_EDGE('',*,*,#1906,.F.);
#1906 = EDGE_CURVE('',#1907,#1898,#1909,.T.);
#1907 = VERTEX_POINT('',#1908);
#1908 = CARTESIAN_POINT('',(17.5,-11.25,85.));
#1909 = LINE('',#1910,#1911);
#1910 = CARTESIAN_POINT('',(17.5,-11.25,82.5));
#1911 = VECTOR('',#1912,1.);
#1912 = DIRECTION('',(0.,0.,1.));
#1913 = ORIENTED_EDGE('',*,*,#1914,.F.);
#1914 = EDGE_CURVE('',#1550,#1907,#1915,.T.);
#1915 = CIRCLE('',#1916,2.5);
#1916 = AXIS2_PLACEMENT_3D('',#1917,#1918,#1919);
#1917 = CARTESIAN_POINT('',(17.5,-11.25,82.5));
#1918 = DIRECTION('',(0.,1.,0.));
#1919 = DIRECTION('',(0.,-0.,1.));
#1920 = PLANE('',#1921);
#1921 = AXIS2_PLACEMENT_3D('',#1922,#1923,#1924);
#1922 = CARTESIAN_POINT('',(-17.5,-11.25,82.5));
#1923 = DIRECTION('',(-0.,1.,0.));
#1924 = DIRECTION('',(0.,0.,1.));
#1925 = ADVANCED_FACE('',(#1926),#1936,.T.);
#1926 = FACE_BOUND('',#1927,.T.);
#1927 = EDGE_LOOP('',(#1928,#1929,#1930));
#1928 = ORIENTED_EDGE('',*,*,#1540,.T.);
#1929 = ORIENTED_EDGE('',*,*,#1805,.T.);
#1930 = ORIENTED_EDGE('',*,*,#1931,.T.);
#1931 = EDGE_CURVE('',#1806,#1541,#1932,.T.);
#1932 = LINE('',#1933,#1934);
#1933 = CARTESIAN_POINT('',(-17.5,-11.25,82.5));
#1934 = VECTOR('',#1935,1.);
#1935 = DIRECTION('',(1.,0.,-0.));
#1936 = PLANE('',#1937);
#1937 = AXIS2_PLACEMENT_3D('',#1938,#1939,#1940);
#1938 = CARTESIAN_POINT('',(-17.5,-11.25,80.));
#1939 = DIRECTION('',(-0.,1.,0.));
#1940 = DIRECTION('',(0.,0.,1.));
#1941 = ADVANCED_FACE('',(#1942),#1952,.T.);
#1942 = FACE_BOUND('',#1943,.T.);
#1943 = EDGE_LOOP('',(#1944,#1950,#1951));
#1944 = ORIENTED_EDGE('',*,*,#1945,.T.);
#1945 = EDGE_CURVE('',#1840,#1573,#1946,.T.);
#1946 = LINE('',#1947,#1948);
#1947 = CARTESIAN_POINT('',(-20.,-11.25,82.5));
#1948 = VECTOR('',#1949,1.);
#1949 = DIRECTION('',(1.,0.,-0.));
#1950 = ORIENTED_EDGE('',*,*,#1572,.T.);
#1951 = ORIENTED_EDGE('',*,*,#1839,.T.);
#1952 = PLANE('',#1953);
#1953 = AXIS2_PLACEMENT_3D('',#1954,#1955,#1956);
#1954 = CARTESIAN_POINT('',(17.5,-11.25,82.5));
#1955 = DIRECTION('',(0.,1.,0.));
#1956 = DIRECTION('',(0.,-0.,1.));
#1957 = ADVANCED_FACE('',(#1958),#1976,.T.);
#1958 = FACE_BOUND('',#1959,.T.);
#1959 = EDGE_LOOP('',(#1960,#1967,#1968,#1975));
#1960 = ORIENTED_EDGE('',*,*,#1961,.F.);
#1961 = EDGE_CURVE('',#1701,#1638,#1962,.T.);
#1962 = CIRCLE('',#1963,2.5);
#1963 = AXIS2_PLACEMENT_3D('',#1964,#1965,#1966);
#1964 = CARTESIAN_POINT('',(17.5,-11.25,97.5));
#1965 = DIRECTION('',(0.,1.,0.));
#1966 = DIRECTION('',(0.,-0.,1.));
#1967 = ORIENTED_EDGE('',*,*,#1700,.F.);
#1968 = ORIENTED_EDGE('',*,*,#1969,.T.);
#1969 = EDGE_CURVE('',#1391,#1335,#1970,.T.);
#1970 = CIRCLE('',#1971,2.5);
#1971 = AXIS2_PLACEMENT_3D('',#1972,#1973,#1974);
#1972 = CARTESIAN_POINT('',(17.5,-13.75,97.5));
#1973 = DIRECTION('',(0.,1.,0.));
#1974 = DIRECTION('',(0.,-0.,1.));
#1975 = ORIENTED_EDGE('',*,*,#1645,.T.);
#1976 = CYLINDRICAL_SURFACE('',#1977,2.5);
#1977 = AXIS2_PLACEMENT_3D('',#1978,#1979,#1980);
#1978 = CARTESIAN_POINT('',(17.5,-13.75,97.5));
#1979 = DIRECTION('',(0.,1.,0.));
#1980 = DIRECTION('',(0.,-0.,1.));
#1981 = ADVANCED_FACE('',(#1982),#2000,.T.);
#1982 = FACE_BOUND('',#1983,.T.);
#1983 = EDGE_LOOP('',(#1984,#1991,#1992,#1999));
#1984 = ORIENTED_EDGE('',*,*,#1985,.F.);
#1985 = EDGE_CURVE('',#1907,#1573,#1986,.T.);
#1986 = CIRCLE('',#1987,2.5);
#1987 = AXIS2_PLACEMENT_3D('',#1988,#1989,#1990);
#1988 = CARTESIAN_POINT('',(17.5,-11.25,82.5));
#1989 = DIRECTION('',(0.,1.,0.));
#1990 = DIRECTION('',(0.,-0.,1.));
#1991 = ORIENTED_EDGE('',*,*,#1906,.T.);
#1992 = ORIENTED_EDGE('',*,*,#1993,.F.);
#1993 = EDGE_CURVE('',#1638,#1898,#1994,.T.);
#1994 = CIRCLE('',#1995,2.5);
#1995 = AXIS2_PLACEMENT_3D('',#1996,#1997,#1998);
#1996 = CARTESIAN_POINT('',(17.5,-11.25,97.5));
#1997 = DIRECTION('',(0.,1.,0.));
#1998 = DIRECTION('',(0.,-0.,1.));
#1999 = ORIENTED_EDGE('',*,*,#1637,.F.);
#2000 = PLANE('',#2001);
#2001 = AXIS2_PLACEMENT_3D('',#2002,#2003,#2004);
#2002 = CARTESIAN_POINT('',(-20.,-11.25,82.5));
#2003 = DIRECTION('',(-0.,1.,0.));
#2004 = DIRECTION('',(0.,0.,1.));
#2005 = ADVANCED_FACE('',(#2006),#2011,.F.);
#2006 = FACE_BOUND('',#2007,.F.);
#2007 = EDGE_LOOP('',(#2008,#2009,#2010));
#2008 = ORIENTED_EDGE('',*,*,#1675,.T.);
#2009 = ORIENTED_EDGE('',*,*,#1969,.T.);
#2010 = ORIENTED_EDGE('',*,*,#1661,.F.);
#2011 = PLANE('',#2012);
#2012 = AXIS2_PLACEMENT_3D('',#2013,#2014,#2015);
#2013 = CARTESIAN_POINT('',(17.5,-13.75,97.5));
#2014 = DIRECTION('',(0.,1.,0.));
#2015 = DIRECTION('',(0.,-0.,1.));
#2016 = ADVANCED_FACE('',(#2017),#2035,.T.);
#2017 = FACE_BOUND('',#2018,.T.);
#2018 = EDGE_LOOP('',(#2019,#2026,#2027,#2034));
#2019 = ORIENTED_EDGE('',*,*,#2020,.F.);
#2020 = EDGE_CURVE('',#1773,#1692,#2021,.T.);
#2021 = CIRCLE('',#2022,2.5);
#2022 = AXIS2_PLACEMENT_3D('',#2023,#2024,#2025);
#2023 = CARTESIAN_POINT('',(-17.5,-11.25,97.5));
#2024 = DIRECTION('',(0.,1.,0.));
#2025 = DIRECTION('',(0.,-0.,1.));
#2026 = ORIENTED_EDGE('',*,*,#1780,.F.);
#2027 = ORIENTED_EDGE('',*,*,#2028,.T.);
#2028 = EDGE_CURVE('',#1446,#1382,#2029,.T.);
#2029 = CIRCLE('',#2030,2.5);
#2030 = AXIS2_PLACEMENT_3D('',#2031,#2032,#2033);
#2031 = CARTESIAN_POINT('',(-17.5,-13.75,97.5));
#2032 = DIRECTION('',(0.,1.,0.));
#2033 = DIRECTION('',(0.,-0.,1.));
#2034 = ORIENTED_EDGE('',*,*,#1691,.T.);
#2035 = CYLINDRICAL_SURFACE('',#2036,2.5);
#2036 = AXIS2_PLACEMENT_3D('',#2037,#2038,#2039);
#2037 = CARTESIAN_POINT('',(-17.5,-13.75,97.5));
#2038 = DIRECTION('',(0.,1.,0.));
#2039 = DIRECTION('',(0.,-0.,1.));
#2040 = ADVANCED_FACE('',(#2041),#2059,.T.);
#2041 = FACE_BOUND('',#2042,.T.);
#2042 = EDGE_LOOP('',(#2043,#2044,#2051,#2052));
#2043 = ORIENTED_EDGE('',*,*,#1889,.F.);
#2044 = ORIENTED_EDGE('',*,*,#2045,.F.);
#2045 = EDGE_CURVE('',#1692,#1881,#2046,.T.);
#2046 = CIRCLE('',#2047,2.5);
#2047 = AXIS2_PLACEMENT_3D('',#2048,#2049,#2050);
#2048 = CARTESIAN_POINT('',(-17.5,-11.25,97.5));
#2049 = DIRECTION('',(0.,1.,0.));
#2050 = DIRECTION('',(0.,-0.,1.));
#2051 = ORIENTED_EDGE('',*,*,#1708,.T.);
#2052 = ORIENTED_EDGE('',*,*,#2053,.F.);
#2053 = EDGE_CURVE('',#1890,#1701,#2054,.T.);
#2054 = CIRCLE('',#2055,2.5);
#2055 = AXIS2_PLACEMENT_3D('',#2056,#2057,#2058);
#2056 = CARTESIAN_POINT('',(17.5,-11.25,97.5));
#2057 = DIRECTION('',(0.,1.,0.));
#2058 = DIRECTION('',(0.,-0.,1.));
#2059 = PLANE('',#2060);
#2060 = AXIS2_PLACEMENT_3D('',#2061,#2062,#2063);
#2061 = CARTESIAN_POINT('',(-17.5,-11.25,80.));
#2062 = DIRECTION('',(-0.,1.,0.));
#2063 = DIRECTION('',(0.,0.,1.));
#2064 = ADVANCED_FACE('',(#2065),#2070,.F.);
#2065 = FACE_BOUND('',#2066,.F.);
#2066 = EDGE_LOOP('',(#2067,#2068,#2069));
#2067 = ORIENTED_EDGE('',*,*,#1739,.F.);
#2068 = ORIENTED_EDGE('',*,*,#2028,.T.);
#2069 = ORIENTED_EDGE('',*,*,#1723,.F.);
#2070 = PLANE('',#2071);
#2071 = AXIS2_PLACEMENT_3D('',#2072,#2073,#2074);
#2072 = CARTESIAN_POINT('',(-17.5,-13.75,97.5));
#2073 = DIRECTION('',(0.,1.,0.));
#2074 = DIRECTION('',(0.,-0.,1.));
#2075 = ADVANCED_FACE('',(#2076),#2094,.T.);
#2076 = FACE_BOUND('',#2077,.T.);
#2077 = EDGE_LOOP('',(#2078,#2085,#2086,#2093));
#2078 = ORIENTED_EDGE('',*,*,#2079,.F.);
#2079 = EDGE_CURVE('',#1509,#1864,#2080,.T.);
#2080 = CIRCLE('',#2081,2.5);
#2081 = AXIS2_PLACEMENT_3D('',#2082,#2083,#2084);
#2082 = CARTESIAN_POINT('',(-17.5,-11.25,82.5));
#2083 = DIRECTION('',(0.,1.,0.));
#2084 = DIRECTION('',(0.,-0.,1.));
#2085 = ORIENTED_EDGE('',*,*,#1772,.T.);
#2086 = ORIENTED_EDGE('',*,*,#2087,.F.);
#2087 = EDGE_CURVE('',#1873,#1773,#2088,.T.);
#2088 = CIRCLE('',#2089,2.5);
#2089 = AXIS2_PLACEMENT_3D('',#2090,#2091,#2092);
#2090 = CARTESIAN_POINT('',(-17.5,-11.25,97.5));
#2091 = DIRECTION('',(0.,1.,0.));
#2092 = DIRECTION('',(0.,-0.,1.));
#2093 = ORIENTED_EDGE('',*,*,#1872,.F.);
#2094 = PLANE('',#2095);
#2095 = AXIS2_PLACEMENT_3D('',#2096,#2097,#2098);
#2096 = CARTESIAN_POINT('',(-20.,-11.25,82.5));
#2097 = DIRECTION('',(-0.,1.,0.));
#2098 = DIRECTION('',(0.,0.,1.));
#2099 = ADVANCED_FACE('',(#2100),#2110,.T.);
#2100 = FACE_BOUND('',#2101,.T.);
#2101 = EDGE_LOOP('',(#2102,#2103,#2104));
#2102 = ORIENTED_EDGE('',*,*,#1814,.F.);
#2103 = ORIENTED_EDGE('',*,*,#2079,.T.);
#2104 = ORIENTED_EDGE('',*,*,#2105,.F.);
#2105 = EDGE_CURVE('',#1806,#1864,#2106,.T.);
#2106 = LINE('',#2107,#2108);
#2107 = CARTESIAN_POINT('',(-17.5,-11.25,82.5));
#2108 = VECTOR('',#2109,1.);
#2109 = DIRECTION('',(0.,0.,1.));
#2110 = PLANE('',#2111);
#2111 = AXIS2_PLACEMENT_3D('',#2112,#2113,#2114);
#2112 = CARTESIAN_POINT('',(-20.,-11.25,82.5));
#2113 = DIRECTION('',(-0.,1.,0.));
#2114 = DIRECTION('',(0.,0.,1.));
#2115 = ADVANCED_FACE('',(#2116),#2126,.T.);
#2116 = FACE_BOUND('',#2117,.T.);
#2117 = EDGE_LOOP('',(#2118,#2119,#2120));
#2118 = ORIENTED_EDGE('',*,*,#1848,.F.);
#2119 = ORIENTED_EDGE('',*,*,#1914,.T.);
#2120 = ORIENTED_EDGE('',*,*,#2121,.F.);
#2121 = EDGE_CURVE('',#1840,#1907,#2122,.T.);
#2122 = LINE('',#2123,#2124);
#2123 = CARTESIAN_POINT('',(17.5,-11.25,82.5));
#2124 = VECTOR('',#2125,1.);
#2125 = DIRECTION('',(0.,0.,1.));
#2126 = PLANE('',#2127);
#2127 = AXIS2_PLACEMENT_3D('',#2128,#2129,#2130);
#2128 = CARTESIAN_POINT('',(-17.5,-11.25,82.5));
#2129 = DIRECTION('',(-0.,1.,0.));
#2130 = DIRECTION('',(0.,0.,1.));
#2131 = ADVANCED_FACE('',(#2132),#2149,.T.);
#2132 = FACE_BOUND('',#2133,.T.);
#2133 = EDGE_LOOP('',(#2134,#2142,#2143));
#2134 = ORIENTED_EDGE('',*,*,#2135,.F.);
#2135 = EDGE_CURVE('',#1898,#2136,#2138,.T.);
#2136 = VERTEX_POINT('',#2137);
#2137 = CARTESIAN_POINT('',(17.5,-11.25,97.5));
#2138 = LINE('',#2139,#2140);
#2139 = CARTESIAN_POINT('',(17.5,-11.25,82.5));
#2140 = VECTOR('',#2141,1.);
#2141 = DIRECTION('',(0.,0.,1.));
#2142 = ORIENTED_EDGE('',*,*,#1897,.T.);
#2143 = ORIENTED_EDGE('',*,*,#2144,.T.);
#2144 = EDGE_CURVE('',#1890,#2136,#2145,.T.);
#2145 = LINE('',#2146,#2147);
#2146 = CARTESIAN_POINT('',(-17.5,-11.25,97.5));
#2147 = VECTOR('',#2148,1.);
#2148 = DIRECTION('',(1.,0.,-0.));
#2149 = PLANE('',#2150);
#2150 = AXIS2_PLACEMENT_3D('',#2151,#2152,#2153);
#2151 = CARTESIAN_POINT('',(-17.5,-11.25,82.5));
#2152 = DIRECTION('',(-0.,1.,0.));
#2153 = DIRECTION('',(0.,0.,1.));
#2154 = ADVANCED_FACE('',(#2155),#2172,.T.);
#2155 = FACE_BOUND('',#2156,.T.);
#2156 = EDGE_LOOP('',(#2157,#2158,#2166));
#2157 = ORIENTED_EDGE('',*,*,#1880,.T.);
#2158 = ORIENTED_EDGE('',*,*,#2159,.T.);
#2159 = EDGE_CURVE('',#1873,#2160,#2162,.T.);
#2160 = VERTEX_POINT('',#2161);
#2161 = CARTESIAN_POINT('',(-17.5,-11.25,97.5));
#2162 = LINE('',#2163,#2164);
#2163 = CARTESIAN_POINT('',(-17.5,-11.25,82.5));
#2164 = VECTOR('',#2165,1.);
#2165 = DIRECTION('',(0.,0.,1.));
#2166 = ORIENTED_EDGE('',*,*,#2167,.T.);
#2167 = EDGE_CURVE('',#2160,#1881,#2168,.T.);
#2168 = LINE('',#2169,#2170);
#2169 = CARTESIAN_POINT('',(-17.5,-11.25,97.5));
#2170 = VECTOR('',#2171,1.);
#2171 = DIRECTION('',(1.,0.,-0.));
#2172 = PLANE('',#2173);
#2173 = AXIS2_PLACEMENT_3D('',#2174,#2175,#2176);
#2174 = CARTESIAN_POINT('',(-17.5,-11.25,82.5));
#2175 = DIRECTION('',(-0.,1.,0.));
#2176 = DIRECTION('',(0.,0.,1.));
#2177 = ADVANCED_FACE('',(#2178),#2183,.T.);
#2178 = FACE_BOUND('',#2179,.T.);
#2179 = EDGE_LOOP('',(#2180,#2181,#2182));
#2180 = ORIENTED_EDGE('',*,*,#1931,.F.);
#2181 = ORIENTED_EDGE('',*,*,#2105,.T.);
#2182 = ORIENTED_EDGE('',*,*,#1863,.T.);
#2183 = PLANE('',#2184);
#2184 = AXIS2_PLACEMENT_3D('',#2185,#2186,#2187);
#2185 = CARTESIAN_POINT('',(-17.5,-11.25,82.5));
#2186 = DIRECTION('',(-0.,1.,0.));
#2187 = DIRECTION('',(0.,0.,1.));
#2188 = ADVANCED_FACE('',(#2189),#2194,.T.);
#2189 = FACE_BOUND('',#2190,.T.);
#2190 = EDGE_LOOP('',(#2191,#2192,#2193));
#2191 = ORIENTED_EDGE('',*,*,#1945,.F.);
#2192 = ORIENTED_EDGE('',*,*,#2121,.T.);
#2193 = ORIENTED_EDGE('',*,*,#1985,.T.);
#2194 = PLANE('',#2195);
#2195 = AXIS2_PLACEMENT_3D('',#2196,#2197,#2198);
#2196 = CARTESIAN_POINT('',(-20.,-11.25,82.5));
#2197 = DIRECTION('',(-0.,1.,0.));
#2198 = DIRECTION('',(0.,0.,1.));
#2199 = ADVANCED_FACE('',(#2200),#2215,.T.);
#2200 = FACE_BOUND('',#2201,.T.);
#2201 = EDGE_LOOP('',(#2202,#2208,#2209));
#2202 = ORIENTED_EDGE('',*,*,#2203,.T.);
#2203 = EDGE_CURVE('',#2136,#1701,#2204,.T.);
#2204 = LINE('',#2205,#2206);
#2205 = CARTESIAN_POINT('',(17.5,-11.25,80.));
#2206 = VECTOR('',#2207,1.);
#2207 = DIRECTION('',(0.,0.,1.));
#2208 = ORIENTED_EDGE('',*,*,#1961,.T.);
#2209 = ORIENTED_EDGE('',*,*,#2210,.F.);
#2210 = EDGE_CURVE('',#2136,#1638,#2211,.T.);
#2211 = LINE('',#2212,#2213);
#2212 = CARTESIAN_POINT('',(-20.,-11.25,97.5));
#2213 = VECTOR('',#2214,1.);
#2214 = DIRECTION('',(1.,0.,-0.));
#2215 = PLANE('',#2216);
#2216 = AXIS2_PLACEMENT_3D('',#2217,#2218,#2219);
#2217 = CARTESIAN_POINT('',(17.5,-11.25,97.5));
#2218 = DIRECTION('',(0.,1.,0.));
#2219 = DIRECTION('',(0.,-0.,1.));
#2220 = ADVANCED_FACE('',(#2221),#2226,.T.);
#2221 = FACE_BOUND('',#2222,.T.);
#2222 = EDGE_LOOP('',(#2223,#2224,#2225));
#2223 = ORIENTED_EDGE('',*,*,#1993,.T.);
#2224 = ORIENTED_EDGE('',*,*,#2135,.T.);
#2225 = ORIENTED_EDGE('',*,*,#2210,.T.);
#2226 = PLANE('',#2227);
#2227 = AXIS2_PLACEMENT_3D('',#2228,#2229,#2230);
#2228 = CARTESIAN_POINT('',(-20.,-11.25,82.5));
#2229 = DIRECTION('',(-0.,1.,0.));
#2230 = DIRECTION('',(0.,0.,1.));
#2231 = ADVANCED_FACE('',(#2232),#2247,.T.);
#2232 = FACE_BOUND('',#2233,.T.);
#2233 = EDGE_LOOP('',(#2234,#2240,#2241));
#2234 = ORIENTED_EDGE('',*,*,#2235,.F.);
#2235 = EDGE_CURVE('',#1773,#2160,#2236,.T.);
#2236 = LINE('',#2237,#2238);
#2237 = CARTESIAN_POINT('',(-20.,-11.25,97.5));
#2238 = VECTOR('',#2239,1.);
#2239 = DIRECTION('',(1.,0.,-0.));
#2240 = ORIENTED_EDGE('',*,*,#2020,.T.);
#2241 = ORIENTED_EDGE('',*,*,#2242,.F.);
#2242 = EDGE_CURVE('',#2160,#1692,#2243,.T.);
#2243 = LINE('',#2244,#2245);
#2244 = CARTESIAN_POINT('',(-17.5,-11.25,80.));
#2245 = VECTOR('',#2246,1.);
#2246 = DIRECTION('',(0.,0.,1.));
#2247 = PLANE('',#2248);
#2248 = AXIS2_PLACEMENT_3D('',#2249,#2250,#2251);
#2249 = CARTESIAN_POINT('',(-17.5,-11.25,97.5));
#2250 = DIRECTION('',(0.,1.,0.));
#2251 = DIRECTION('',(0.,-0.,1.));
#2252 = ADVANCED_FACE('',(#2253),#2258,.T.);
#2253 = FACE_BOUND('',#2254,.T.);
#2254 = EDGE_LOOP('',(#2255,#2256,#2257));
#2255 = ORIENTED_EDGE('',*,*,#2203,.F.);
#2256 = ORIENTED_EDGE('',*,*,#2144,.F.);
#2257 = ORIENTED_EDGE('',*,*,#2053,.T.);
#2258 = PLANE('',#2259);
#2259 = AXIS2_PLACEMENT_3D('',#2260,#2261,#2262);
#2260 = CARTESIAN_POINT('',(-17.5,-11.25,80.));
#2261 = DIRECTION('',(-0.,1.,0.));
#2262 = DIRECTION('',(0.,0.,1.));
#2263 = ADVANCED_FACE('',(#2264),#2269,.T.);
#2264 = FACE_BOUND('',#2265,.T.);
#2265 = EDGE_LOOP('',(#2266,#2267,#2268));
#2266 = ORIENTED_EDGE('',*,*,#2167,.F.);
#2267 = ORIENTED_EDGE('',*,*,#2242,.T.);
#2268 = ORIENTED_EDGE('',*,*,#2045,.T.);
#2269 = PLANE('',#2270);
#2270 = AXIS2_PLACEMENT_3D('',#2271,#2272,#2273);
#2271 = CARTESIAN_POINT('',(-17.5,-11.25,80.));
#2272 = DIRECTION('',(-0.,1.,0.));
#2273 = DIRECTION('',(0.,0.,1.));
#2274 = ADVANCED_FACE('',(#2275),#2280,.T.);
#2275 = FACE_BOUND('',#2276,.T.);
#2276 = EDGE_LOOP('',(#2277,#2278,#2279));
#2277 = ORIENTED_EDGE('',*,*,#2087,.T.);
#2278 = ORIENTED_EDGE('',*,*,#2235,.T.);
#2279 = ORIENTED_EDGE('',*,*,#2159,.F.);
#2280 = PLANE('',#2281);
#2281 = AXIS2_PLACEMENT_3D('',#2282,#2283,#2284);
#2282 = CARTESIAN_POINT('',(-20.,-11.25,82.5));
#2283 = DIRECTION('',(-0.,1.,0.));
#2284 = DIRECTION('',(0.,0.,1.));
#2285 = ( GEOMETRIC_REPRESENTATION_CONTEXT(3) 
GLOBAL_UNCERTAINTY_ASSIGNED_CONTEXT((#2289)) 
GLOBAL_UNIT_ASSIGNED_CONTEXT((#2286,#2287,#2288)) REPRESENTATION_CONTEXT
('Context #1','3D Context with UNIT and UNCERTAINTY') );
#2286 = ( LENGTH_UNIT() NAMED_UNIT(*) SI_UNIT(.MILLI.,.METRE.) );
#2287 = ( NAMED_UNIT(*) PLANE_ANGLE_UNIT() SI_UNIT($,.RADIAN.) );
#2288 = ( NAMED_UNIT(*) SI_UNIT($,.STERADIAN.) SOLID_ANGLE_UNIT() );
#2289 = UNCERTAINTY_MEASURE_WITH_UNIT(LENGTH_MEASURE(1.E-07),#2286,
  'distance_accuracy_value','confusion accuracy');
#2290 = PRODUCT_RELATED_PRODUCT_CATEGORY('part',$,(#7));
ENDSEC;
END-ISO-10303-21;
